<?xml version="1.0" encoding="utf-8"?>
<!-- Generator: Adobe Illustrator 26.5.1, SVG Export Plug-In . SVG Version: 6.00 Build 0)  -->
<svg version="1.1" id="Layer_1" xmlns="http://www.w3.org/2000/svg" xmlns:xlink="http://www.w3.org/1999/xlink" x="0px" y="0px"
	 width="869.28094px" height="168.10124px" viewBox="0 0 869.28094 168.10124"
	 style="enable-background:new 0 0 869.28094 168.10124;" xml:space="preserve">
<style type="text/css">
	.st0{fill:#F63838;}
	.st1{fill:#FFFFFF;}
</style>
<circle class="st0" cx="82.58171" cy="82.58171" r="82.45181"/>
<g>
	<path class="st1" d="M56.31087,72.09877h29.84146l-4.80963,44.20209H49.33976c-16.17579,0-26.41844-15.43896-24.17474-36.05964
		c2.25524-20.72636,15.69662-34.68483,31.8724-34.68483h33.39742L79.08987,63.95633H55.03539
		c-7.80892,0-14.51794,7.19072-15.61099,17.23661c-1.1046,10.1517,3.8763,16.91958,11.89441,16.91958h17.63991l1.11614-10.25762
		H45.95074L56.31087,72.09877z"/>
</g>
<g>
	<path class="st1" d="M119.13123,114.47378l-17.93029-19.40952l-3.94544,20.72813h-9.9156l5.57182-29.27286
		c0.89349-4.69405,4.103-6.59281,7.21469-6.59281c1.31861,0,2.58699,0.26375,4.01635,1.89876l17.9303,19.40965l3.94543-20.72839
		h9.96839l-5.56168,29.22009c-0.89363,4.69418-4.11315,6.64584-7.27787,6.64584
		C121.72342,116.37266,120.50782,116.10904,119.13123,114.47378z"/>
</g>
<polygon class="st1" points="135.24513,45.26434 96.91674,45.26434 96.91674,54.77019 109.7776,60.46353 96.91674,66.2077 
	96.91674,77.39105 105.45676,73.68021 105.45676,75.66272 130.82263,75.66272 130.82263,68.08854 113.72844,68.08854 
	130.82263,60.51437 113.99677,52.83851 135.24513,52.83851 "/>
<g>
	<path class="st0" d="M190.93964,39.93034h19.94727v9.07275c4.35449-5.41846,9.83301-10.33252,19.38525-10.33252
		c14.04688,0,22.19434,8.82031,22.19434,22.80713v45.99268h-19.94678v-40.7002c0-7.93848-3.93359-11.9707-10.67627-11.9707
		c-6.60205,0-10.95654,4.03223-10.95654,11.9707v40.7002h-19.94727V39.93034z"/>
	<path class="st0" d="M264.82782,74.45671v-1.13428c0-20.03516,13.90674-34.65186,32.87061-34.65186
		c21.49219,0,32.02783,15.75098,32.02783,35.91211c0,1.00781,0,3.1499-0.14062,5.79639h-44.95117
		c1.68555,8.94678,7.86621,13.60889,16.29492,13.60889c6.18066,0,10.95654-2.52051,15.73291-6.67871l10.25439,10.83691
		c-6.8833,6.80371-15.59229,10.83594-26.83008,10.83594C280.13934,108.9821,264.82782,95.49968,264.82782,74.45671z
		 M310.48114,68.53435c-0.84277-9.32471-5.33789-15.12109-12.78271-15.12109c-7.30469,0-12.08057,5.54443-13.20459,15.12109
		H310.48114z"/>
	<path class="st0" d="M335.20428,39.93034h20.0874l10.25439,39.94434l11.65918-40.19629h16.99756l11.79932,40.32227
		l10.39502-40.07031h19.80664l-20.22803,68.04395h-18.40186l-11.93994-40.07031l-12.22119,40.07031h-18.26172L335.20428,39.93034z"
		/>
	<path class="st0" d="M439.85663,99.40593l8.70947-12.60059c6.74219,4.66211,13.90625,7.56055,20.08691,7.56055
		c5.61914,0,8.00781-2.39453,8.00781-5.16699v-0.25195c0-3.90625-5.61914-5.54395-13.7666-8.69434
		c-10.67578-4.1582-19.80664-8.94629-19.80664-20.41309v-0.25195c0-12.97852,11.2373-20.66504,25.84668-20.66504
		c8.14746,0,17.27832,2.52002,24.86426,7.30859l-8.00781,12.85254c-5.61816-3.27637-11.79883-5.79639-17.1377-5.79639
		c-4.77539,0-7.30371,2.14209-7.30371,4.78857v0.25195c0,3.52783,5.61816,5.54395,13.625,8.82031
		c10.95703,4.66211,19.94727,9.57666,19.94727,20.28711v0.25195c0,13.9873-11.51855,21.04297-26.54883,21.04297
		C459.52313,108.73015,448.987,106.08464,439.85663,99.40593z"/>
	<path class="st0" d="M507.14227,39.93034h19.94727v9.07275c4.49512-5.67041,10.11426-10.33252,19.52539-10.33252
		c8.70898,0,15.03027,3.78027,18.54297,9.82861c5.47754-5.92236,12.2207-9.82861,21.35156-9.82861
		c13.34473,0,22.33496,7.8125,22.33496,22.68115v46.11865h-19.80664v-40.7002c0-7.8125-3.79297-11.9707-10.39453-11.9707
		c-6.60254,0-10.67676,4.1582-10.67676,11.9707v40.7002H548.0202v-40.7002c0-7.8125-3.65234-11.9707-10.25488-11.9707
		s-10.67578,4.1582-10.67578,11.9707v40.7002h-19.94727V39.93034z"/>
	<path class="st0" d="M620.6452,88.19109v-0.75586c0-14.86865,10.81641-21.54736,26.26855-21.54736
		c6.32129,0,11.09766,1.13428,15.7334,2.77246v-2.01611c0-7.8125-5.19727-11.84473-14.1875-11.84473
		c-7.02441,0-12.64258,2.01611-17.27832,3.78027l-5.47852-13.98682c7.30469-3.27637,14.88965-5.41846,25.70605-5.41846
		c10.25488,0,17.98047,2.52002,22.89746,6.93066c5.19727,4.66211,7.72559,11.71826,7.72559,20.41309v40.95215h-19.52539v-7.30859
		c-4.49512,5.29297-10.67578,8.56836-19.52539,8.56836C630.61884,108.73015,620.6452,101.29558,620.6452,88.19109z
		 M662.92743,85.29265v-5.66992c-2.94922-1.25977-7.02344-2.14209-11.09668-2.14209c-7.30469,0-11.94043,3.27637-11.94043,9.45068
		v0.25195c0,5.54395,3.93359,8.31641,9.69238,8.44238C657.30927,95.75163,662.92743,91.46745,662.92743,85.29265z"/>
	<path class="st0" d="M697.34344,39.93034h19.94727v9.07275c4.35449-5.41846,9.83301-10.33252,19.38477-10.33252
		c14.04785,0,22.19531,8.82031,22.19531,22.80713v45.99268h-19.94727v-40.7002c0-7.93848-3.93359-11.9707-10.67578-11.9707
		c-6.60254,0-10.95703,4.03223-10.95703,11.9707v40.7002h-19.94727V39.93034z"/>
	<path class="st0" d="M775.02411,39.93034h19.94727v67.54004h-19.94727V39.93034z"/>
	<path class="st0" d="M807.89423,88.19109v-0.75586c0-14.86865,10.81641-21.54736,26.26855-21.54736
		c6.32129,0,11.09766,1.13428,15.7334,2.77246v-2.01611c0-7.8125-5.19727-11.84473-14.1875-11.84473
		c-7.02441,0-12.64258,2.01611-17.27832,3.78027l-5.47852-13.98682c7.30469-3.27637,14.88965-5.41846,25.70605-5.41846
		c10.25488,0,17.98047,2.52002,22.89746,6.93066c5.19727,4.66211,7.72559,11.71826,7.72559,20.41309v40.95215h-19.52539v-7.30859
		c-4.49512,5.29297-10.67578,8.56836-19.52539,8.56836C817.86786,108.73015,807.89423,101.29558,807.89423,88.19109z
		 M850.17645,85.29265v-5.66992c-2.94922-1.25977-7.02344-2.14209-11.09668-2.14209c-7.30469,0-11.94043,3.27637-11.94043,9.45068
		v0.25195c0,5.54395,3.93359,8.31641,9.69238,8.44238C844.55829,95.75163,850.17645,91.46745,850.17645,85.29265z"/>
</g>
<g>
	<path class="st0" d="M418.71747,140.64421v-4.28516h19.95947v4.28516h-7.56934v19.95898h-4.80273v-19.95898H418.71747z"/>
	<path class="st0" d="M446.24677,160.6032h-4.58789v-25.13672h4.58789v9.81934c1-1.21387,2.85645-2.17871,5.1416-2.17871
		c1.98242,0,3.60645,0.60742,4.85645,1.83887c1.25,1.23242,1.87402,2.85645,1.87402,4.8916v10.76562h-4.58789v-9.58691
		c0-2.30273-1.44629-3.66016-3.49902-3.66016c-1.05371,0-1.94629,0.32129-2.67773,0.96387
		c-0.73242,0.66113-1.10742,1.55371-1.10742,2.69629V160.6032z"/>
	<path class="st0" d="M461.8327,152.01628c0.01855-2.60645,0.85742-4.74902,2.51758-6.40918s3.74902-2.5,6.30176-2.5
		c2.41016,0,4.41016,0.75,5.96289,2.26758c1.55371,1.51758,2.33887,3.53516,2.33887,6.08789
		c0,0.625-0.05371,1.26758-0.16016,1.94629h-12.39062c0.16113,0.98145,0.69629,1.80273,1.58887,2.44531
		c0.875,0.66113,1.875,0.98242,2.98145,0.98242c1.75,0,3.17773-0.80371,4.26758-2.41016l3.24902,2.42773
		c-0.78613,1.30273-1.85645,2.32129-3.23145,3.03516c-1.375,0.73145-2.83887,1.08887-4.3916,1.08887
		C465.49286,161.04948,461.72626,156.96159,461.8327,152.01628z M474.68719,150.33757
		c-0.125-0.98145-0.53613-1.78516-1.26758-2.42773c-0.73242-0.625-1.64258-0.94629-2.71387-0.94629
		c-1.125,0-2.07031,0.32129-2.85645,0.94629c-0.78516,0.64258-1.25,1.44629-1.375,2.42773H474.68719z"/>
	<path class="st0" d="M493.41473,160.6032h-5.1416l9.7832-24.24414h5.53418l9.80176,24.24414h-5.1416l-1.78516-4.74902h-11.24707
		L493.41473,160.6032z M496.57489,152.01628h8.49805l-4.23145-10.62305L496.57489,152.01628z"/>
	<path class="st0" d="M517.53485,159.21062c-1.25-1.21387-1.875-2.83887-1.875-4.87402v-10.87207h4.57031v9.69434
		c0,2.30273,1.46387,3.6416,3.53516,3.6416c1.08887,0,2-0.32129,2.73145-0.96387c0.73242-0.64258,1.10742-1.53516,1.10742-2.67773
		v-9.69434h4.57031v17.13867h-4.35645l-0.08887-1.89258c-0.98242,1.33887-2.89258,2.33887-5.32031,2.33887
		C520.40887,161.04948,518.78485,160.44206,517.53485,159.21062z"/>
	<path class="st0" d="M538.24384,147.26726h-2.89258v-3.80273h2.91016v-5.49902h4.44531v5.49902h5.1416v3.80273h-5.03418v7.05176
		c0,1.73145,0.94629,2.57129,2.53516,2.57129c0.98145,0,1.94531-0.19727,2.91016-0.58984l0.42773,3.80273
		c-1.05273,0.51758-2.73145,0.85742-4.1416,0.85742c-3.87402,0-6.30176-2.05371-6.30176-5.98145V147.26726z"/>
	<path class="st0" d="M556.38251,160.6032h-4.58789v-25.13672h4.58789v9.81934c1-1.21387,2.85645-2.17871,5.1416-2.17871
		c1.98242,0,3.60645,0.60742,4.85645,1.83887c1.25,1.23242,1.87402,2.85645,1.87402,4.8916v10.76562h-4.58789v-9.58691
		c0-2.30273-1.44629-3.66016-3.49902-3.66016c-1.05371,0-1.94629,0.32129-2.67773,0.96387
		c-0.73242,0.66113-1.10742,1.55371-1.10742,2.69629V160.6032z"/>
	<path class="st0" d="M574.57489,158.38933c-1.74902-1.69629-2.62402-3.82031-2.62402-6.35547s0.875-4.65918,2.62402-6.37305
		c1.73242-1.69629,3.91016-2.55371,6.53418-2.55371c2.625,0,4.80273,0.85742,6.55273,2.55371
		c1.73145,1.71387,2.60645,3.83789,2.60645,6.37305c0.10645,4.96289-3.99902,9.01562-9.15918,8.92676
		C578.48505,160.96062,576.30731,160.1032,574.57489,158.38933z M577.80634,155.46159
		c0.875,0.91016,1.96387,1.35645,3.30273,1.35645s2.44629-0.44629,3.32129-1.35645c0.85645-0.91016,1.28516-2.05273,1.28516-3.42773
		s-0.42871-2.49902-1.28516-3.41016c-0.875-0.91016-1.98242-1.35645-3.32129-1.35645s-2.42773,0.44629-3.30273,1.35645
		c-0.87402,0.91113-1.30273,2.03516-1.30273,3.41016S576.93231,154.55144,577.80634,155.46159z"/>
	<path class="st0" d="M594.19598,160.6032v-17.13867h4.42773l0.08887,2.33887c0.85742-1.76758,2.48145-2.69629,4.46387-2.69629
		c0.73145,0,1.48145,0.125,2.23145,0.39355l-0.35742,4.08789c-0.76758-0.26758-1.46387-0.39258-2.12402-0.39258
		c-2.01758,0-4.14258,1.08887-4.14258,4.62402v8.7832H594.19598z"/>
	<path class="st0" d="M608.1745,137.9655c0-0.76758,0.25-1.41016,0.73242-1.91016c0.48242-0.48145,1.125-0.73145,1.89258-0.73145
		c1.55273,0,2.6416,1.07129,2.6416,2.6416c0,1.55371-1.08887,2.625-2.6416,2.625c-0.76758,0-1.41016-0.25-1.89258-0.73242
		C608.4245,139.37663,608.1745,138.73308,608.1745,137.9655z M613.11981,160.6032h-4.58789v-17.13867h4.58789V160.6032z"/>
	<path class="st0" d="M619.19012,147.26726h-2.89258v-3.80273h2.91016v-5.49902h4.44531v5.49902h5.1416v3.80273h-5.03418v7.05176
		c0,1.73145,0.94629,2.57129,2.53516,2.57129c0.98145,0,1.94531-0.19727,2.91016-0.58984l0.42773,3.80273
		c-1.05273,0.51758-2.73145,0.85742-4.1416,0.85742c-3.87402,0-6.30176-2.05371-6.30176-5.98145V147.26726z"/>
	<path class="st0" d="M630.45575,143.46452h5.07031l4.48145,12.47949l4.42676-12.47949h5.08789l-8.08691,19.47754
		c-1.42773,3.42773-3.60645,5.15918-7.15918,5.15918c-1.17773,0-2.2666-0.25-3.2666-0.75l0.57129-3.67773
		c0.69629,0.30371,1.42773,0.44629,2.16016,0.44629c1.87402,0,3.24902-1.30273,3.80273-3.49902L630.45575,143.46452z"/>
	<path class="st0" d="M661.96552,158.38933c-1.74902-1.69629-2.62402-3.82031-2.62402-6.35547s0.875-4.65918,2.62402-6.37305
		c1.73242-1.69629,3.91016-2.55371,6.53418-2.55371c2.625,0,4.80273,0.85742,6.55273,2.55371
		c1.73145,1.71387,2.60645,3.83789,2.60645,6.37305c0.10645,4.96289-3.99902,9.01562-9.15918,8.92676
		C665.87567,160.96062,663.69794,160.1032,661.96552,158.38933z M665.19696,155.46159
		c0.875,0.91016,1.96387,1.35645,3.30273,1.35645s2.44629-0.44629,3.32129-1.35645c0.85645-0.91016,1.28516-2.05273,1.28516-3.42773
		s-0.42871-2.49902-1.28516-3.41016c-0.875-0.91016-1.98242-1.35645-3.32129-1.35645s-2.42773,0.44629-3.30273,1.35645
		c-0.87402,0.91113-1.30273,2.03516-1.30273,3.41016S664.32294,154.55144,665.19696,155.46159z"/>
	<path class="st0" d="M682.35419,147.26726h-3.01758v-3.80273h3.05371v-1.67773c0-1.96387,0.60645-3.57129,1.83789-4.82031
		c1.21484-1.23242,2.96387-1.85742,5.23145-1.85742c0.98145,0,2.05273,0.19629,3.24902,0.60742l-0.48242,3.74902
		c-0.66016-0.28613-1.41016-0.42871-2.28516-0.42871c-1.92773,0-3.12402,0.92871-3.12402,3.01758v1.41016h4.8916v3.80273h-4.7666
		v13.33594h-4.58789V147.26726z"/>
	<path class="st0" d="M707.77704,159.31804c-1.92871-1.08887-3.44629-2.58887-4.55273-4.49902
		c-1.10742-1.91016-1.66016-4.0166-1.66016-6.33789c0-2.33887,0.53516-4.44531,1.62402-6.35547
		c1.08984-1.91016,2.57129-3.41016,4.48145-4.49902c1.89258-1.08887,3.99902-1.625,6.33789-1.625
		c2.12402,0,4.10547,0.48242,5.96289,1.46484c1.83887,0.98145,3.3916,2.3916,4.65918,4.23047l-3.80273,2.71387
		c-1.73145-2.62402-4.0166-3.94531-6.81934-3.94531c-2.19629,0-3.99902,0.75-5.3916,2.24902
		c-1.41016,1.5-2.10645,3.42773-2.10645,5.7666s0.71387,4.2666,2.16016,5.7666c1.42773,1.5,3.24902,2.24902,5.46289,2.24902
		c1.91016,0,3.44531-0.48145,4.6416-1.42773c1.17773-0.94629,1.91016-2.125,2.21387-3.51758h-7.33789v-4.15918H725.862
		c0.05273,0.51758,0.08887,1.17773,0.08887,1.94629c0.01758,6.21191-4.41016,11.63965-11.81836,11.62207
		C711.81122,160.96062,709.68719,160.40691,707.77704,159.31804z"/>
	<path class="st0" d="M730.44989,159.51433c-1.19629-0.96387-1.78516-2.23145-1.78516-3.82031
		c0-1.625,0.69629-2.94629,2.07129-3.96387c1.37402-1.01758,3.17773-1.51758,5.44434-1.51758c1.30371,0,2.5,0.19629,3.60645,0.58984
		v-0.39355c0-0.94629-0.33887-1.73145-1.03516-2.35645c-0.69629-0.60645-1.58887-0.91016-2.67773-0.91016
		c-1.66016,0-3.17773,0.71387-4.53516,2.16016l-2.62402-2.62402c0.73242-0.94629,1.71387-1.76758,2.98145-2.5
		c1.26758-0.71387,2.69531-1.07129,4.32031-1.07129c2.51758,0,4.49902,0.625,5.96289,1.85742
		c1.44629,1.24902,2.17773,2.94531,2.17773,5.08789v10.55078h-4.35547v-1.91016c-0.92871,1.41016-2.71387,2.26758-4.85645,2.26758
		C733.19891,160.96062,731.6286,160.4782,730.44989,159.51433z M733.00262,155.44402c0,1.28516,1.125,2.10645,2.85645,2.10645
		c1.125,0,2.05371-0.33887,2.80371-1.01758c0.74902-0.67871,1.12402-1.55371,1.12402-2.60645
		c-0.98145-0.44629-2.08887-0.66113-3.28418-0.66113C734.41376,153.2653,733.00262,154.1403,733.00262,155.44402z"/>
	<path class="st0" d="M753.90887,160.6032h-4.58789v-17.13867h4.35645l0.08887,1.98145
		c0.94629-1.30273,2.89258-2.33887,5.24902-2.33887c2.62402,0,4.74902,1.10742,5.74805,3.03516
		c1.23242-1.85645,3.44629-3.03516,5.94531-3.03516c2,0,3.62402,0.60742,4.87402,1.82129
		c1.23145,1.21387,1.85645,2.85645,1.85645,4.90918v10.76562h-4.58789v-9.58691c0-2.30273-1.41016-3.66016-3.42773-3.66016
		c-1.05371,0-1.92871,0.32129-2.66016,0.94629c-0.73242,0.625-1.10742,1.5-1.10742,2.60645v9.69434h-4.58789v-9.58691
		c0-2.30273-1.41016-3.66016-3.41016-3.66016c-1.05273,0-1.92773,0.32129-2.66016,0.96387
		c-0.73145,0.66113-1.08887,1.55371-1.08887,2.69629V160.6032z"/>
	<path class="st0" d="M781.15302,152.01628c0.01855-2.60645,0.85742-4.74902,2.51758-6.40918s3.74902-2.5,6.30176-2.5
		c2.41016,0,4.41016,0.75,5.96289,2.26758c1.55371,1.51758,2.33887,3.53516,2.33887,6.08789
		c0,0.625-0.05371,1.26758-0.16016,1.94629h-12.39062c0.16113,0.98145,0.69629,1.80273,1.58887,2.44531
		c0.875,0.66113,1.875,0.98242,2.98145,0.98242c1.75,0,3.17773-0.80371,4.26758-2.41016l3.24902,2.42773
		c-0.78613,1.30273-1.85645,2.32129-3.23145,3.03516c-1.375,0.73145-2.83887,1.08887-4.3916,1.08887
		C784.81317,161.04948,781.04657,156.96159,781.15302,152.01628z M794.00751,150.33757
		c-0.125-0.98145-0.53613-1.78516-1.26758-2.42773c-0.73242-0.625-1.64258-0.94629-2.71387-0.94629
		c-1.125,0-2.07031,0.32129-2.85645,0.94629c-0.78516,0.64258-1.25,1.44629-1.375,2.42773H794.00751z"/>
	<path class="st0" d="M802.23798,160.6032v-17.13867h4.42773l0.08887,2.33887c0.85742-1.76758,2.48145-2.69629,4.46387-2.69629
		c0.73145,0,1.48145,0.125,2.23145,0.39355l-0.35742,4.08789c-0.76758-0.26758-1.46387-0.39258-2.12402-0.39258
		c-2.01758,0-4.14258,1.08887-4.14258,4.62402v8.7832H802.23798z"/>
	<path class="st0" d="M818.00262,154.49773c1.05273,1.62402,2.78418,2.6416,4.5166,2.6416
		c1.42773,0,2.44531-0.57129,2.44531-1.49902c0-0.42871-0.21387-0.75-0.64258-0.98242
		c-0.44629-0.23145-1.23145-0.46387-2.35645-0.71387c-2.05273-0.44629-3.35645-0.91016-4.57031-1.76758
		c-1.23145-0.83887-1.82129-2.07031-1.82129-3.78418c0-1.57129,0.64258-2.83887,1.92871-3.82129
		c1.26758-0.98145,2.85645-1.46387,4.7666-1.46387c2.99902,0,5.28418,1.19629,6.87305,3.57129l-2.92773,2.41016
		c-0.89258-1.41113-2.17773-2.125-3.83789-2.125c-1.5,0-2.5,0.51758-2.5,1.375c0,0.42871,0.23242,0.75,0.69629,0.96387
		c0.46387,0.23242,1.30371,0.48242,2.51758,0.78516c2.07031,0.5,3.37402,1,4.53418,1.83887
		c1.16016,0.85742,1.71387,2.07129,1.71387,3.71387c0,1.57129-0.66016,2.85645-1.96387,3.83789
		c-1.32129,0.98242-2.92773,1.48242-4.80176,1.48242c-3.30273,0-6.05273-1.5-7.6416-3.98145L818.00262,154.49773z"/>
</g>
<circle class="st0" cx="785.59576" cy="17.22323" r="11.16326"/>
</svg>
