<svg xmlns="http://www.w3.org/2000/svg" width="3464" height="705" style="shape-rendering:geometricPrecision;text-rendering:geometricPrecision;image-rendering:optimizeQuality;fill-rule:evenodd;clip-rule:evenodd"><path style="opacity:1" fill="#f53837" d="M308.5 34.5c112.048-6.742 204.215 32.258 276.5 117 67.401 88.688 86.067 187.022 56 295C605.463 550.037 535.963 619.537 432.5 655c-107.977 30.161-206.31 11.495-295-56C52.374 526.377 13.541 433.877 21 321.5 32.48 223.663 77.98 146.163 157.5 89c45.867-30.55 96.2-48.716 151-54.5Z"/><path style="opacity:.957" fill="#f63636" d="M3105.5 78.5c21.8-1.468 38.64 6.866 50.5 25a49.269 49.269 0 0 1 3 9c.91 11.725.58 23.392-1 35-11.58 21.71-29.75 31.21-54.5 28.5-19.93-3.058-32.77-14.225-38.5-33.5-5.66-27.361 3.84-47.528 28.5-60.5 4.04-1.491 8.04-2.658 12-3.5Z"/><path style="opacity:1" fill="#f53838" d="M222.5 537.5c10.325-7.317 15.325-17.317 15-30 8.202-1.359 14.369-5.692 18.5-13a424.41 424.41 0 0 1 15 36c3.38 5.047 7.714 9.047 13 12 8.576 13.11 20.409 17.277 35.5 12.5 8.562-3.543 13.729-9.71 15.5-18.5-6.54-10.905-7.207-22.238-2-34a2206.633 2206.633 0 0 0 22-45c2.116-8.931 1.282-17.598-2.5-26a88.38 88.38 0 0 0 7-18.5 165.377 165.377 0 0 1-.5-30.5 99.565 99.565 0 0 1 6-18c3.911-18.871 3.244-37.538-2-56-2.184-5.188-5.518-9.522-10-13a41.065 41.065 0 0 0-2.5-9.5c3.487-4.155 6.987-8.322 10.5-12.5a125.177 125.177 0 0 0 12-31l7.5-15a26.585 26.585 0 0 1 3.5-2c1.915-3.362 2.915-7.029 3-11a12.375 12.375 0 0 1 4.5-5 9.258 9.258 0 0 1-2-2.5c4.71-19.254-2.29-31.92-21-38-4-.667-8-.667-12 0a2844.856 2844.856 0 0 1-20 10 86.097 86.097 0 0 1-9 6.5 47.63 47.63 0 0 0-16-.5 154.225 154.225 0 0 0-21 10.5 154.847 154.847 0 0 0-8.5-14c-9.661-9.379-20.828-11.546-33.5-6.5a45.24 45.24 0 0 0-11 8.5 38.252 38.252 0 0 1-7-5c9.961-5.118 20.628-9.618 32-13.5 6.039-1.223 11.705-2.556 17-4 2.178-7.964 6.512-14.964 13-21 27.008-21.664 54.842-23.164 83.5-4.5l1-1a354.9 354.9 0 0 1 33 22c3.261.109 6.594-.225 10-1l9 2c6.25-2.89 12.75-5.224 19.5-7a3.647 3.647 0 0 1 1.5 1 98.619 98.619 0 0 0 10-3c4 1.333 8 1.333 12 0 3.354 1.459 6.687 2.459 10 3a3.943 3.943 0 0 1 2-1c7.593 2.708 15.426 5.875 23.5 9.5a238.932 238.932 0 0 1 17 12c7.578 8.255 15.745 15.088 24.5 20.5 17.235 15.329 29.902 34.329 38 57 8.041 28.896 4.874 57.062-9.5 84.5 18.248 32.986 22.581 66.652 13 101 .457.414.791.914 1 1.5-10.103 35.102-29.103 63.269-57 84.5a173.032 173.032 0 0 1-26.5 13.5c-20.457 22.176-45.123 34.51-74 37l-10 2a616.483 616.483 0 0 0-23 0 659.803 659.803 0 0 1-11.5-3c-2.8-.066-5.633-.066-8.5 0-3-1.673-6-2.34-9-2-1.945-1.681-3.945-2.348-6-2a361.419 361.419 0 0 1-25-9c-3.163.312-6.497.979-10 2-6.847-.404-13.847-.404-21 0-21.287-1.337-40.953-5.004-59-11a278.442 278.442 0 0 1-13.5-7.5 120.121 120.121 0 0 1-15-3.5Z"/><path style="opacity:1" fill="#f6373a" d="M222.5 537.5c-25.889-6.127-50.556-15.293-74-27.5-12.927-12.285-22.76-26.785-29.5-43.5a324.248 324.248 0 0 1-11-42c-1.388-9.421 1.112-17.588 7.5-24.5l-1-1a14.845 14.845 0 0 0 2-6.5 294.97 294.97 0 0 1-4.5-34c-5.291-6.372-8.124-13.705-8.5-22a238.832 238.832 0 0 1 6-30c-1.123-9.538-.623-19.205 1.5-29 2.944-6.611 7.611-11.611 14-15 4.109-11.555 9.776-22.222 17-32 5.746-6.288 12.912-9.454 21.5-9.5a482.334 482.334 0 0 1 35-39c3.069-1.846 6.402-2.846 10-3a242.43 242.43 0 0 1 22-.5 38.252 38.252 0 0 0 7 5 45.24 45.24 0 0 1 11-8.5c12.672-5.046 23.839-2.879 33.5 6.5a154.847 154.847 0 0 1 8.5 14 154.225 154.225 0 0 1 21-10.5 47.63 47.63 0 0 1 16 .5 86.097 86.097 0 0 0 9-6.5c6.64-3.287 13.307-6.621 20-10 4-.667 8-.667 12 0 18.71 6.08 25.71 18.746 21 38a9.258 9.258 0 0 0 2 2.5 12.375 12.375 0 0 0-4.5 5c-.085 3.971-1.085 7.638-3 11a26.585 26.585 0 0 0-3.5 2l-7.5 15a125.177 125.177 0 0 1-12 31c-3.513 4.178-7.013 8.345-10.5 12.5a41.065 41.065 0 0 1 2.5 9.5c4.482 3.478 7.816 7.812 10 13 5.244 18.462 5.911 37.129 2 56a99.565 99.565 0 0 0-6 18 165.377 165.377 0 0 0 .5 30.5 88.38 88.38 0 0 1-7 18.5c3.782 8.402 4.616 17.069 2.5 26a2206.633 2206.633 0 0 1-22 45c-5.207 11.762-4.54 23.095 2 34-1.771 8.79-6.938 14.957-15.5 18.5-15.091 4.777-26.924.61-35.5-12.5-5.286-2.953-9.62-6.953-13-12a424.41 424.41 0 0 0-15-36c-4.131 7.308-10.298 11.641-18.5 13 .325 12.683-4.675 22.683-15 30Z"/><path style="opacity:.972" fill="#f63737" d="M818.5 327.5c-.79 1.109-1.29 2.442-1.5 4a4218.025 4218.025 0 0 0 .5 159c-.011 1.517-.677 2.684-2 3.5a1680.41 1680.41 0 0 1-82 0c-.699-3.8-1.365-7.633-2-11.5a8889.853 8889.853 0 0 0 0-234.5 519.36 519.36 0 0 0 1.5-30.5 1472.96 1472.96 0 0 1 76.5-1c-.166 6.009.001 12.009.5 18 14.141-14.488 31.307-23.322 51.5-26.5 33.815-5.843 64.481 1.157 92 21 13.16 11.494 22.994 25.328 29.5 41.5a170.746 170.746 0 0 1 7 31l.5 96a2327.18 2327.18 0 0 1-2 96.5c-27.376.824-54.709.658-82-.5l-2-173c-1.513-9.766-5.18-18.599-11-26.5-4.312-4.823-9.645-7.489-16-8-18.547-3.965-34.547.535-48 13.5-5.63 8.607-9.297 17.94-11 28Z"/><path style="opacity:.971" fill="#f53736" d="M2540.5 206.5c27.26-2.148 53.59 1.685 79 11.5 29.44 15.069 48.27 38.569 56.5 70.5a210.969 210.969 0 0 1 3 27c.17 29.667.33 59.333.5 89 0 30.047-.67 59.88-2 89.5-24 .667-48 .667-72 0-.81-5.083-1.31-10.25-1.5-15.5-26.23 22.124-56.39 29.957-90.5 23.5-35.74-8.082-59.91-29.249-72.5-63.5-4.62-22.337-4.62-44.671 0-67 5.27-12.883 12.77-24.217 22.5-34 4.3-2.77 8.3-5.936 12-9.5 9.5-4.521 19.16-8.521 29-12 19.33-2 38.67-2 58 0a244.84 244.84 0 0 1 23 9c4.13 2.14 7.96 4.64 11.5 7.5 2.42-18.819-3.75-34.153-18.5-46-12.04-7.54-25.2-10.873-39.5-10l-18.5 1a209.682 209.682 0 0 0-31.5 9c-4.17 2.176-8.34 4.343-12.5 6.5-2.4.814-4.74.647-7-.5a1948.003 1948.003 0 0 0-26-53 7.352 7.352 0 0 1 2-3 237.499 237.499 0 0 1 37-17.5c19.07-6.105 38.4-10.272 58-12.5Zm12 171c12.61-.347 24.61 2.153 36 7.5 5.42 3.074 8.92 7.574 10.5 13.5 1.97 8.993.14 16.993-5.5 24-10.74 7.73-22.74 11.396-36 11-9.82.472-18.82-1.861-27-7-12.83-13.508-13.17-27.341-1-41.5 7.33-3.908 15-6.408 23-7.5Z"/><path style="opacity:.971" fill="#f63737" d="M3002.5 318.5c-1-.03-1.66.47-2 1.5.97 57.394 1.3 114.728 1 172a3357.613 3357.613 0 0 1-78 2.5c-1.97.239-3.8-.094-5.5-1-.33-53-.67-106-1-159a75.63 75.63 0 0 1-2-16c-.8-13.768-6.97-24.268-18.5-31.5-43.94-7.304-66.44 11.196-67.5 55.5-.33 50.333-.67 100.667-1 151a853.412 853.412 0 0 1-82.5 0c-1.17-91.998-1.33-183.998-.5-276a735.519 735.519 0 0 1 76.5 0c.31.808.81 1.475 1.5 2 .33 4.333.67 8.667 1 13 12.42-12.129 27.25-19.962 44.5-23.5 35.43-7.514 67.77-.848 97 20 25.62 24.19 37.95 54.023 37 89.5Z"/><path style="opacity:.971" fill="#f53737" d="M3444.5 494.5c-22.16-.832-44.5-1.332-67-1.5-.65-5.78-1.31-11.613-2-17.5a850.287 850.287 0 0 0-3 4c-14.69 12.676-31.69 20.51-51 23.5-37.58 4.481-69.08-7.019-94.5-34.5-23.34-34.483-26.67-70.816-10-109 8.48-14.483 19.98-25.983 34.5-34.5l23-9a284.91 284.91 0 0 1 58 0c4.3 1.93 8.8 3.43 13.5 4.5a117.056 117.056 0 0 1 22 12c1.29-30.017-12.54-48.517-41.5-55.5a306.347 306.347 0 0 0-35 0 296.879 296.879 0 0 0-32.5 9.5 74.065 74.065 0 0 0-12.5 6.5c-2.33.667-4.67.667-7 0a282.939 282.939 0 0 1-14.5-32.5c-5.09-6.937-8.42-14.604-10-23a122.13 122.13 0 0 1 15.5-9.5c30.39-13.575 62.23-20.742 95.5-21.5 30.16-1.579 57.66 5.921 82.5 22.5 14.95 12.401 26.11 27.567 33.5 45.5 4.46 14.984 7.12 30.318 8 46 .83 57.67.67 115.336-.5 173a9.11 9.11 0 0 1-5 1Zm-121-117c13.03-.158 25.37 2.675 37 8.5 12.89 12.265 13.22 24.931 1 38a160.826 160.826 0 0 1-15 8c-12.04 2.039-24.04 1.872-36-.5-12.51-4.267-18.84-13.101-19-26.5.41-5.985 2.08-11.652 5-17 2.45-2.733 5.45-4.733 9-6 6.02-1.964 12.02-3.464 18-4.5Z"/><path style="opacity:.971" fill="#f53736" d="M1286.5 381.5h-168c-.38 2.198.29 3.865 2 5 2.41 15.604 10.07 28.104 23 37.5 5.37 2.687 10.71 5.354 16 8 6.24.407 12.41 1.24 18.5 2.5 23.25-.558 42.75-9.391 58.5-26.5 1.37-.402 2.71-.902 4-1.5a97.627 97.627 0 0 1 8.5 8l33 41c.52 1.789.19 3.456-1 5-27.8 27.309-61.3 41.642-100.5 43-9.35-.73-18.85-1.396-28.5-2-1.07.028-1.9.361-2.5 1-43.62-4.877-75.78-26.544-96.5-65a573.895 573.895 0 0 1-10-25c-13.06-48.443-9.4-95.443 11-141 20.33-36.93 51.5-58.096 93.5-63.5 41.96-5.896 78.46 5.271 109.5 33.5 25.98 30.394 38.15 65.727 36.5 106-.17 7.333-.33 14.667-.5 22a49.901 49.901 0 0 0-3.5 12h-3Zm-129-105c8.36-.331 16.69.002 25 1 11.08 4.274 19.91 11.274 26.5 21 4.16 8.306 6.99 16.973 8.5 26-32.67.333-65.34 0-98-1 2.64-14.789 9.64-27.122 21-37a227.44 227.44 0 0 1 17-10Z"/><path style="opacity:.969" fill="#f53636" d="M1816.5 503.5c-.42-.722-1.08-1.222-2-1.5-6-.008-11.83-.842-17.5-2.5-.76.07-1.26.403-1.5 1-26.23-5.204-50.4-15.204-72.5-30-1.19-1.544-1.52-3.211-1-5 9.1-19.559 17.93-39.226 26.5-59 5.42-.478 10.08 1.356 14 5.5a378.061 378.061 0 0 1 23.5 10.5 76.268 76.268 0 0 1 15.5 4.5c13.15 3.167 26.49 4.167 40 3 17.92-6.108 20.75-16.275 8.5-30.5a18.79 18.79 0 0 0-5.5-4.5 732.411 732.411 0 0 0-49-22 229.72 229.72 0 0 1-47.5-32.5c-18.62-24.639-22.62-51.639-12-81 8.44-18.772 21.94-32.605 40.5-41.5 54.54-19.053 105.71-12.553 153.5 19.5-.25 5.348-1.25 10.681-3 16a1908.556 1908.556 0 0 1-20.5 46c-1.67 1.333-3.33 1.333-5 0a333.883 333.883 0 0 1-24-12.5 180.748 180.748 0 0 1-21.5-5.5c-11.91-1.854-23.74-1.854-35.5 0-7.87 2.83-10.37 8.164-7.5 16a85.88 85.88 0 0 0 8.5 7 291.934 291.934 0 0 1 21 10.5c23.44 7.221 45.11 17.888 65 32 7.16 6.163 14 12.663 20.5 19.5.35 3.451 1.85 6.284 4.5 8.5 6.12 12.237 8.79 25.237 8 39 .86 25.27-8.14 46.27-27 63-16.02 13.343-34.35 21.677-55 25a402.095 402.095 0 0 1-42 1.5Z"/><path style="opacity:.972" fill="#f63737" d="M2392.5 310.5c-1-.03-1.66.47-2 1.5.59 32.156.93 64.489 1 97 .15 27.56-.35 55.06-1.5 82.5a1522.395 1522.395 0 0 1-77.5 3c-1.6.268-2.93-.066-4-1-.65-55.14-1.32-110.14-2-165 .16-11.026-1.67-21.692-5.5-32a70.488 70.488 0 0 0-10.5-9.5c-10.7-2.053-21.37-1.886-32 .5-8.11 3.613-13.61 9.613-16.5 18a239.308 239.308 0 0 1-4.5 20c-.67 56-1.33 112-2 168a1130.965 1130.965 0 0 1-82 .5 5204.172 5204.172 0 0 1-2.5-176.5 93.147 93.147 0 0 0-8-21 61.757 61.757 0 0 1-10.5-7.5c-24.89-9.134-41.39-1.301-49.5 23.5-.7 6.751-1.7 13.418-3 20-.33 53.667-.67 107.333-1 161a1140.597 1140.597 0 0 1-82.5.5c-1.17-92.097-1.33-184.263-.5-276.5 25.43-.995 50.93-1.328 76.5-1-.17 6.009 0 12.009.5 18 23.58-21.637 51.42-30.47 83.5-26.5 21.08 3.396 38.75 12.896 53 28.5 13.79-14.121 30.46-23.288 50-27.5 31.66-5.957 61.32-.957 89 15 19.06 13.733 31.89 31.9 38.5 54.5a250.819 250.819 0 0 1 5.5 32Z"/><path style="opacity:1" fill="#fffefe" d="M540.5 209.5v29c-27.002-.167-54.002 0-81 .5l3 1.5a2541.107 2541.107 0 0 1 62 27.5 2547.143 2547.143 0 0 1-62 27.5l-3 1.5c21.664.5 43.331.667 65 .5v29h-99a24.935 24.935 0 0 0-.5-7 1244.817 1244.817 0 0 0-30.5 14 323.223 323.223 0 0 1-.5-44 3006.632 3006.632 0 0 0 47.5-21.5 3006.632 3006.632 0 0 0-47.5-21.5 684.346 684.346 0 0 1-.5-37h147Z"/><path style="opacity:1" fill="#fffdfd" d="M232.5 210.5c45.672-.333 91.338 0 137 1a7477.558 7477.558 0 0 1-44 69.5l-101 1c-26.525 7.526-43.358 24.692-50.5 51.5-4.161 18.001-3.161 35.667 3 53 5.861 13.025 15.694 21.525 29.5 25.5 26.331.5 52.665.667 79 .5a530.556 530.556 0 0 0 4-39c-30.674.333-61.341 0-92-1a3587.414 3587.414 0 0 0 40-59.5c38.332-.5 76.665-.667 115-.5a11136.482 11136.482 0 0 1-20 170c-45.335.167-90.668 0-136-.5-34.527-7.185-58.027-27.352-70.5-60.5-17.446-51.076-13.446-100.41 12-148 21.542-36.058 53.042-57.058 94.5-63Z"/><path style="opacity:.971" fill="#f63736" d="M1305.5 216.5c27.91-.328 55.74.005 83.5 1a3986.522 3986.522 0 0 0 19 68c.38 3.519.88 7.019 1.5 10.5a831.59 831.59 0 0 1 19.5 74.5c.41.457.91.791 1.5 1 1.63-4.119 3.46-8.119 5.5-12 3.98-13.24 7.98-26.573 12-40a12130.01 12130.01 0 0 0 33.5-96.5 358.825 358.825 0 0 1 53-1c1.5.833 2.67 2 3.5 3.5a160.014 160.014 0 0 1 8.5 30.5 186.217 186.217 0 0 1 10 34 111.127 111.127 0 0 1 9.5 30.5c5.8 16.92 11.47 33.92 17 51 1.74-13.513 5.08-26.513 10-39 .93-9.476 3.26-18.476 7-27a354.527 354.527 0 0 1 13-49c1.94-13.413 5.27-26.413 10-39a1713.28 1713.28 0 0 1 82.5-1 211.22 211.22 0 0 1-3.5 20c-4.83 11.465-8.17 23.465-10 36a151.845 151.845 0 0 0-10 35 1829.483 1829.483 0 0 1-18 58c-7 26.621-14 53.288-21 80-5 13.659-9 27.659-12 42-.8 2.383-1.97 4.55-3.5 6.5-24.33.667-48.67.667-73 0-.93-.388-1.59-1.055-2-2a52525.55 52525.55 0 0 0-44.5-134.5c-1.81 9.938-5.15 19.271-10 28a79.066 79.066 0 0 0-2 10 4091.418 4091.418 0 0 0-36.5 98 946.671 946.671 0 0 1-75 .5c-1.82-1.8-2.98-3.966-3.5-6.5a1306.488 1306.488 0 0 0-22-76l-3-15a1363.496 1363.496 0 0 0-16.5-53.5 18613.373 18613.373 0 0 0-35-124c.24-.902.58-1.735 1-2.5Z"/><path style="opacity:.964" fill="#f63737" d="M3070.5 216.5h84c.17 92.334 0 184.667-.5 277-13.76.662-27.59.996-41.5 1a902.86 902.86 0 0 1-42-1 9615.66 9615.66 0 0 1 0-277Z"/><path style="opacity:1" fill="#fa9090" d="M540.5 209.5c.994 9.819 1.327 19.819 1 30-26.505-.331-52.839.002-79 1l-3-1.5c26.998-.5 53.998-.667 81-.5v-29Z"/><path style="opacity:1" fill="#f97f7f" d="m462.5 295.5 62 2c-21.669.167-43.336 0-65-.5l3-1.5Z"/><path style="opacity:.031" fill="#fe1b1b" d="M3002.5 318.5c.33 58.337 0 116.67-1 175a1541.63 1541.63 0 0 1-78 1c25.89-.527 51.89-1.361 78-2.5.3-57.272-.03-114.606-1-172 .34-1.03 1-1.53 2-1.5Z"/><path style="opacity:.024" fill="#fe2221" d="M2392.5 310.5c.17 60.668 0 121.334-.5 182l-1.5 1.5c-26 .5-52 .667-78 .5 25.89-.343 51.72-1.343 77.5-3 1.15-27.44 1.65-54.94 1.5-82.5-.07-32.511-.41-64.844-1-97 .34-1.03 1-1.53 2-1.5Z"/><path style="opacity:.024" fill="#fe2929" d="M2306.5 328.5c.68 54.86 1.35 109.86 2 165-.62-.111-1.12-.444-1.5-1-.5-54.666-.67-109.332-.5-164Z"/><path style="opacity:.031" fill="#fe1f1f" d="M818.5 327.5a6956.716 6956.716 0 0 0-1 163 4218.025 4218.025 0 0 1-.5-159c.21-1.558.71-2.891 1.5-4Z"/><path style="opacity:1" fill="#fffdfd" d="M397.5 343.5c7.299-1.011 13.966.489 20 4.5a7769.338 7769.338 0 0 1 72 76.5 2049.562 2049.562 0 0 0 14-79h39a34377.02 34377.02 0 0 1-20.5 115c-4.538 17.353-15.704 24.853-33.5 22.5a36.16 36.16 0 0 1-7-4 7769.338 7769.338 0 0 1-72-76.5 1958.11 1958.11 0 0 0-14 79h-39a4519.72 4519.72 0 0 1 21.5-120c3.567-9.337 10.067-15.337 19.5-18Z"/><path style="opacity:.004" fill="#fe0000" d="M1286.5 381.5c-55.5.667-111.17 1.333-167 2a5.56 5.56 0 0 1 1 3c-1.71-1.135-2.38-2.802-2-5h168Z"/><path style="opacity:.012" fill="#fe0e0b" d="M3444.5 494.5c-22.67.167-45.34 0-68-.5l-1.5-1.5c-.33-4-.67-8-1-12-.38-.556-.88-.889-1.5-1 .98-1.315 1.98-2.648 3-4 .69 5.887 1.35 11.72 2 17.5 22.5.168 44.84.668 67 1.5Z"/><path style="opacity:.008" fill="#fe0908" d="M1816.5 503.5a382.507 382.507 0 0 0-18-1.5c-1.24-.232-2.24-.732-3-1.5.24-.597.74-.93 1.5-1a62.315 62.315 0 0 0 17.5 2.5c.92.278 1.58.778 2 1.5Z"/><path style="opacity:.01" fill="#ff0303" d="M1149.5 502.5c.6-.639 1.43-.972 2.5-1 9.65.604 19.15 1.27 28.5 2-10.37.26-20.71-.073-31-1Z"/></svg>