<svg xmlns="http://www.w3.org/2000/svg" fill-rule="evenodd" width="3464" height="705" clip-rule="evenodd" image-rendering="optimizeQuality" shape-rendering="geometricPrecision" text-rendering="geometricPrecision"><path d="M309 35c112-7 204 32 276 117a319 319 0 0 1-447 448A319 319 0 0 1 309 34Z" fill="#f53837" opacity="1"/><path d="M3106 79c21-2 38 6 50 25a49 49 0 0 1 3 9c1 11 1 23-1 35a51 51 0 0 1-54 28c-20-3-33-14-39-33-6-28 4-48 29-61l12-3Z" fill="#f63636" opacity="1"/><path d="M223 538c10-8 15-18 15-30 8-2 14-6 18-13a424 424 0 0 1 15 36c3 5 8 9 13 12 9 13 20 17 36 12 8-4 13-10 15-18-7-11-7-23-2-34a2207 2207 0 0 0 22-45c2-9 1-18-2-26a88 88 0 0 0 7-19 165 165 0 0 1-1-30 100 100 0 0 1 6-18c4-19 3-38-2-56-2-6-6-10-10-13a41 41 0 0 0-2-10l10-12a125 125 0 0 0 12-31l8-15a27 27 0 0 1 3-2l3-11a12 12 0 0 1 5-5 9 9 0 0 1-2-3c4-19-3-32-21-38h-12a2845 2845 0 0 1-20 10 86 86 0 0 1-9 7 48 48 0 0 0-16-1 154 154 0 0 0-21 11 155 155 0 0 0-9-14c-10-10-21-12-33-7a45 45 0 0 0-11 9 38 38 0 0 1-7-5 239 239 0 0 1 49-18c2-8 6-15 13-21 27-22 54-23 83-4l1-1a355 355 0 0 1 33 22l10-1 9 2c6-3 13-6 20-7a4 4 0 0 1 1 1 99 99 0 0 0 10-3h12l10 3a4 4 0 0 1 2-1l24 9a239 239 0 0 1 17 12c7 8 15 15 24 21 17 15 30 34 38 57 8 28 5 57-9 84 18 33 22 67 13 101l1 2c-11 35-30 63-57 84a173 173 0 0 1-27 14c-20 22-45 34-74 37l-10 2a616 616 0 0 0-23 0 660 660 0 0 1-11-3h-9c-3-2-6-3-9-2-2-2-4-3-6-2a361 361 0 0 1-25-9c-3 0-6 0-10 2h-21c-21-2-41-6-59-11a278 278 0 0 1-13-8 120 120 0 0 1-15-3Z" fill="#f53838" opacity="1"/><path d="M223 538c-26-7-51-16-74-28-13-12-23-27-30-43a324 324 0 0 1-11-42c-1-10 1-18 8-25l-1-1a15 15 0 0 0 2-6 295 295 0 0 1-5-34c-5-7-8-14-8-22a239 239 0 0 1 6-30c-2-10-1-20 1-29 3-7 8-12 14-15 4-12 10-23 17-32 6-7 13-10 22-10a482 482 0 0 1 35-39c3-2 6-3 10-3a242 242 0 0 1 22 0 38 38 0 0 0 7 5 45 45 0 0 1 11-9c12-5 23-3 33 7a155 155 0 0 1 9 14 154 154 0 0 1 21-11 48 48 0 0 1 16 1 86 86 0 0 0 9-7l20-10h12c18 6 25 19 21 38a9 9 0 0 0 2 3 12 12 0 0 0-5 5l-3 11a27 27 0 0 0-3 2l-8 15a125 125 0 0 1-12 31l-10 12a41 41 0 0 1 2 10c4 3 8 7 10 13 5 18 6 37 2 56a100 100 0 0 0-6 18 165 165 0 0 0 1 30 88 88 0 0 1-7 19c3 8 4 17 2 26a2207 2207 0 0 1-22 45c-5 11-5 23 2 34-2 8-7 14-15 18-16 5-27 1-36-12-5-3-10-7-13-12a424 424 0 0 0-15-36c-4 7-10 11-18 13 0 12-5 22-15 30Z" fill="#f6373a" opacity="1"/><path d="m819 328-2 4a4218 4218 0 0 0 1 159l-2 3a1680 1680 0 0 1-82 0l-2-11a8890 8890 0 0 0 0-235 519 519 0 0 0 1-30 1473 1473 0 0 1 77-1v18c14-15 31-24 52-27 33-6 64 1 92 21 13 11 22 25 29 42a171 171 0 0 1 7 31l1 96a2327 2327 0 0 1-2 96h-82l-2-173c-2-10-6-19-11-27-5-5-10-7-16-8-19-4-35 1-48 14-6 8-10 17-11 28Z" fill="#f63737" opacity="1"/><path d="M2541 207c27-3 53 1 79 11 29 15 48 39 56 71a211 211 0 0 1 3 27l1 89-2 89h-72l-2-15c-26 22-56 29-90 23-36-8-60-29-73-63-5-23-5-45 0-67 5-13 13-25 23-34l12-10c9-5 19-9 29-12 19-2 38-2 58 0a245 245 0 0 1 23 9l11 8c2-19-4-35-18-46-13-8-26-11-40-10l-18 1a210 210 0 0 0-32 9l-12 6h-7a1948 1948 0 0 0-26-53 7 7 0 0 1 2-3 237 237 0 0 1 37-18c19-6 38-10 58-12Zm12 171c12-1 24 2 36 7 5 3 8 8 10 14 2 8 0 16-5 24-11 7-23 11-36 11-10 0-19-2-27-7-13-14-14-28-1-42 7-4 15-6 23-7Z" fill="#f53736" opacity="1"/><path d="M3003 319a7770 7770 0 0 1-1 174 3358 3358 0 0 1-78 2l-6-1-1-159a76 76 0 0 1-2-16c-1-14-7-25-18-32-44-7-67 11-68 56l-1 151a853 853 0 0 1-82 0c-2-92-2-184-1-276a736 736 0 0 1 77 0l1 2 1 13c12-13 27-20 45-24 35-8 67-1 97 20 25 24 37 54 37 90Z" fill="#f63737" opacity="1"/><path d="m3445 495-67-2-2-17a850 850 0 0 0-3 4 105 105 0 0 1-145-11c-24-35-28-71-11-109 8-15 20-26 35-35l23-9a285 285 0 0 1 58 0l13 5a117 117 0 0 1 22 12c1-31-13-49-41-56a306 306 0 0 0-35 0 297 297 0 0 0-33 10 74 74 0 0 0-12 6h-7a283 283 0 0 1-15-32c-5-7-8-15-10-23a122 122 0 0 1 16-10c30-14 62-21 95-21 30-2 58 5 83 22 14 12 26 28 33 46 4 14 7 30 8 46v173a9 9 0 0 1-5 1Zm-121-117c13-1 25 2 37 8 12 12 13 25 1 38a161 161 0 0 1-15 8c-13 2-25 2-36 0-13-5-19-14-19-27 0-6 2-12 5-17 2-3 5-5 9-6l18-4Z" fill="#f53737" opacity="1"/><path d="M1287 382h-168c-1 2 0 3 2 5 2 15 10 28 23 37l16 8 18 3c23-1 43-10 59-27l4-1a98 98 0 0 1 8 8l33 41c1 1 0 3-1 5a146 146 0 0 1-129 41l-2 1c-44-5-76-27-97-65a574 574 0 0 1-10-25c-13-49-9-96 11-141 20-37 52-59 94-64 41-6 78 5 109 34 26 30 38 65 37 106l-1 22a50 50 0 0 0-3 12h-3Zm-129-105c8-1 16 0 25 1 11 4 19 11 26 21 4 8 7 16 9 26l-98-1c2-15 9-28 21-37a227 227 0 0 1 17-10Z" fill="#f53736" opacity="1"/><path d="m1817 504-2-2-18-2-1 1c-27-6-51-16-73-30-1-2-2-4-1-5l27-59c5-1 10 1 14 5a378 378 0 0 1 23 11 76 76 0 0 1 16 4c13 3 26 4 40 3 17-6 20-16 8-30a19 19 0 0 0-5-5 732 732 0 0 0-49-22 230 230 0 0 1-48-32 81 81 0 0 1-12-81c8-19 22-33 41-42 54-19 105-13 153 20l-3 16a1909 1909 0 0 1-20 46h-5a334 334 0 0 1-24-13 181 181 0 0 1-22-5c-12-2-24-2-35 0-8 2-11 8-8 16a86 86 0 0 0 9 7 292 292 0 0 1 21 10c23 7 45 18 65 32l20 20c0 3 2 6 5 8 6 12 8 25 8 39 0 25-9 46-27 63-17 13-35 22-55 25a402 402 0 0 1-42 2Z" fill="#f53636" opacity="1"/><path d="M2393 311a5990 5990 0 0 1-2 181 1522 1522 0 0 1-78 3l-4-1-2-165c0-12-2-22-6-32a70 70 0 0 0-10-10c-11-2-22-2-32 1-9 3-14 9-17 18a239 239 0 0 1-4 20l-2 168a1131 1131 0 0 1-82 0 5204 5204 0 0 1-3-176 93 93 0 0 0-8-21 62 62 0 0 1-10-8c-25-9-42-1-50 24l-3 20-1 161a1141 1141 0 0 1-82 0c-2-92-2-184-1-276 25-1 51-2 77-1v18c24-22 51-31 84-27 21 3 38 13 53 29 13-15 30-24 50-28 31-6 61-1 89 15 19 14 31 32 38 55a251 251 0 0 1 6 32Z" fill="#f63737" opacity="1"/><path d="M541 210v29h-81l3 2a2541 2541 0 0 1 62 27 2547 2547 0 0 1-62 28l-3 1 65 1v29h-99a25 25 0 0 0-1-7 1245 1245 0 0 0-30 14 323 323 0 0 1-1-44 3007 3007 0 0 0 48-22 3007 3007 0 0 0-48-21 684 684 0 0 1 0-37h147Z" fill="#fffefe" opacity="1"/><path d="M233 211c45-1 91 0 137 1a7478 7478 0 0 1-44 69l-101 1c-27 8-44 25-51 52-4 18-3 35 3 53 6 13 16 21 30 25l79 1a531 531 0 0 0 4-39l-92-1a3587 3587 0 0 0 40-60h115a11136 11136 0 0 1-20 170l-136-1c-35-7-59-27-71-60-17-52-13-101 12-148 22-37 53-58 95-63Z" fill="#fffdfd" opacity="1"/><path d="M1306 217c27-1 55 0 83 1a3987 3987 0 0 0 19 68l2 10a832 832 0 0 1 19 75l2 1 5-12 12-40a12130 12130 0 0 0 34-97 359 359 0 0 1 53-1l3 4a160 160 0 0 1 9 30 186 186 0 0 1 10 34 111 111 0 0 1 9 31l17 51c2-14 5-27 10-39 1-10 3-19 7-27a355 355 0 0 1 13-49c2-14 5-27 10-39a1713 1713 0 0 1 83-1 211 211 0 0 1-4 20c-5 11-8 23-10 36a152 152 0 0 0-10 35 1829 1829 0 0 1-18 58 98695 98695 0 0 0-33 122l-3 6a1332 1332 0 0 1-75-2 52526 52526 0 0 0-45-134c-2 9-5 19-10 28a79 79 0 0 0-2 10 4091 4091 0 0 0-36 98 947 947 0 0 1-75 0l-4-6a1306 1306 0 0 0-22-76l-3-15a1363 1363 0 0 0-16-54 18613 18613 0 0 0-35-124l1-2Z" fill="#f63736" opacity="1"/><path d="M3071 217h84l-1 277-41 1a903 903 0 0 1-42-1 9616 9616 0 0 1 0-277Z" fill="#f63737" opacity="1"/><path d="m541 210 1 30c-27-1-53 0-79 1l-3-2h81v-29Z" fill="#fa9090" opacity="1"/><path d="m463 296 62 2-65-1 3-1Z" fill="#f97f7f" opacity="1"/><path d="M398 344c7-2 13 0 20 4a7769 7769 0 0 1 72 77 2050 2050 0 0 0 14-79h39a34377 34377 0 0 1-21 115c-5 17-16 24-33 22a36 36 0 0 1-7-4 7769 7769 0 0 1-72-76 1958 1958 0 0 0-14 79h-39a4520 4520 0 0 1 21-120c4-10 10-16 20-18Z" fill="#fffdfd" opacity="1"/></svg>