<?xml version="1.0" encoding="UTF-8"?>
<!DOCTYPE svg PUBLIC "-//W3C//DTD SVG 1.1//EN" "http://www.w3.org/Graphics/SVG/1.1/DTD/svg11.dtd">
<svg xmlns="http://www.w3.org/2000/svg" version="1.1" width="2400px" height="600px" style="shape-rendering:geometricPrecision; text-rendering:geometricPrecision; image-rendering:optimizeQuality; fill-rule:evenodd; clip-rule:evenodd" xmlns:xlink="http://www.w3.org/1999/xlink">
<g><path style="opacity:0.906" fill="#01f4ff" d="M 550.5,455.5 C 550.167,454.833 549.833,454.167 549.5,453.5C 549.667,418.165 549.5,382.832 549,347.5C 543.958,294.244 521.125,250.411 480.5,216C 431.263,178.905 377.263,169.905 318.5,189C 274.128,206.372 241.628,236.539 221,279.5C 219.989,280.337 218.822,280.67 217.5,280.5C 212.328,222.196 228.161,170.529 265,125.5C 322.015,64.5376 390.182,47.371 469.5,74C 537.69,105.147 577.19,157.981 588,232.5C 589.625,306.484 589.958,380.484 589,454.5C 576.246,455.489 563.413,455.822 550.5,455.5 Z"/></g>
<g><path style="opacity:0.991" fill="#8400ff" d="M 869.5,148.5 C 926.355,146.516 971.522,168.182 1005,213.5C 1036.6,266.365 1038.6,320.365 1011,375.5C 977.667,428.42 929.501,453.254 866.5,450C 808.268,443.49 766.434,413.99 741,361.5C 719.262,304.556 726.262,251.556 762,202.5C 790.509,169.995 826.342,151.995 869.5,148.5 Z M 878.5,200.5 C 939.225,205.579 971.558,238.579 975.5,299.5C 974.544,342.282 954.878,372.782 916.5,391C 873.457,405.781 836.29,396.614 805,363.5C 786.297,337.662 779.964,308.995 786,277.5C 798.168,229.504 829.002,203.838 878.5,200.5 Z"/></g>
<g><path style="opacity:0.98" fill="#0be1ff" d="M 1644.5,163.5 C 1667.38,162.549 1680.38,173.382 1683.5,196C 1681.85,216.205 1671.02,227.038 1651,228.5C 1627.14,226.462 1616.14,213.462 1618,189.5C 1621.46,175.206 1630.29,166.539 1644.5,163.5 Z"/></g>
<g><path style="opacity:0.989" fill="#0be1ff" d="M 1929.5,168.5 C 1946.5,168.5 1963.5,168.5 1980.5,168.5C 1980.17,218.504 1980.5,268.504 1981.5,318.5C 2002.68,298.152 2023.35,277.319 2043.5,256C 2065.16,255.5 2086.83,255.333 2108.5,255.5C 2108.66,256.873 2108.49,258.207 2108,259.5C 2084.83,282 2061.67,304.5 2038.5,327C 2063.12,363.747 2087.62,400.581 2112,437.5C 2113.2,439.677 2113.7,442.011 2113.5,444.5C 2093.5,444.667 2073.5,444.5 2053.5,444C 2036.46,416.749 2019.29,389.582 2002,362.5C 1995.32,369.348 1988.49,376.015 1981.5,382.5C 1980.5,403.156 1980.17,423.823 1980.5,444.5C 1963.5,444.5 1946.5,444.5 1929.5,444.5C 1929.5,352.5 1929.5,260.5 1929.5,168.5 Z"/></g>
<g><path style="opacity:0.99" fill="#0be1ff" d="M 1250.5,168.5 C 1319.5,168.5 1388.5,168.5 1457.5,168.5C 1457.5,185.167 1457.5,201.833 1457.5,218.5C 1431.83,218.5 1406.17,218.5 1380.5,218.5C 1380.5,293.833 1380.5,369.167 1380.5,444.5C 1362.83,444.5 1345.17,444.5 1327.5,444.5C 1327.5,369.167 1327.5,293.833 1327.5,218.5C 1301.83,218.5 1276.17,218.5 1250.5,218.5C 1250.5,201.833 1250.5,185.167 1250.5,168.5 Z"/></g>
<g><path style="opacity:1" fill="#0ce0ff" d="M 549.5,453.5 C 494.832,453.667 440.166,453.5 385.5,453C 322.274,443.821 274.774,411.654 243,356.5C 230.931,333.623 223.264,309.289 220,283.5C 219.292,282.619 218.458,281.953 217.5,281.5C 217.5,281.167 217.5,280.833 217.5,280.5C 218.822,280.67 219.989,280.337 221,279.5C 241.628,236.539 274.128,206.372 318.5,189C 377.263,169.905 431.263,178.905 480.5,216C 521.125,250.411 543.958,294.244 549,347.5C 549.5,382.832 549.667,418.165 549.5,453.5 Z"/></g>
<g><path style="opacity:0.988" fill="#8400ff" d="M 1168.5,239.5 C 1221.94,236.774 1250.44,262.108 1254,315.5C 1254.5,358.165 1254.67,400.832 1254.5,443.5C 1236.5,443.5 1218.5,443.5 1200.5,443.5C 1200.97,400.466 1200.47,357.466 1199,314.5C 1193.93,297.118 1182.27,288.452 1164,288.5C 1142.97,290.861 1129.3,302.194 1123,322.5C 1121.61,327.761 1120.61,333.094 1120,338.5C 1119.5,373.498 1119.33,408.498 1119.5,443.5C 1101.5,443.5 1083.5,443.5 1065.5,443.5C 1065.5,377.5 1065.5,311.5 1065.5,245.5C 1082.5,245.5 1099.5,245.5 1116.5,245.5C 1116.17,254.192 1116.5,262.859 1117.5,271.5C 1130.22,253.976 1147.22,243.31 1168.5,239.5 Z"/></g>
<g><path style="opacity:0.982" fill="#0be1ff" d="M 1565.5,249.5 C 1577,249.182 1588,251.349 1598.5,256C 1598.96,256.414 1599.29,256.914 1599.5,257.5C 1594.75,272.913 1589.92,288.246 1585,303.5C 1562.69,293.694 1543.36,297.694 1527,315.5C 1521.91,323.11 1518.57,331.443 1517,340.5C 1516.5,375.165 1516.33,409.832 1516.5,444.5C 1499.17,444.5 1481.83,444.5 1464.5,444.5C 1464.5,381.5 1464.5,318.5 1464.5,255.5C 1480.83,255.5 1497.17,255.5 1513.5,255.5C 1513.17,264.192 1513.5,272.859 1514.5,281.5C 1526.37,262.622 1543.37,251.956 1565.5,249.5 Z"/></g>
<g><path style="opacity:0.987" fill="#0be1ff" d="M 1795.5,249.5 C 1830.36,245.236 1859.86,255.57 1884,280.5C 1889.81,287.788 1894.31,295.788 1897.5,304.5C 1882.31,310.342 1867.14,316.342 1852,322.5C 1847.65,316.135 1842.48,310.302 1836.5,305C 1816.16,292.953 1796.5,293.953 1777.5,308C 1759.38,328.276 1755.55,351.11 1766,376.5C 1780.23,400.249 1800.73,408.083 1827.5,400C 1838.94,394.721 1847.61,386.554 1853.5,375.5C 1869.17,382.004 1884.5,389.004 1899.5,396.5C 1877.43,436.706 1843.43,454.539 1797.5,450C 1759.5,445.759 1732.67,426.259 1717,391.5C 1707.38,364.631 1707.05,337.631 1716,310.5C 1731.3,275.596 1757.8,255.262 1795.5,249.5 Z"/></g>
<g><path style="opacity:0.982" fill="#0be1ff" d="M 1624.5,255.5 C 1641.83,255.5 1659.17,255.5 1676.5,255.5C 1676.5,318.5 1676.5,381.5 1676.5,444.5C 1659.17,444.5 1641.83,444.5 1624.5,444.5C 1624.5,381.5 1624.5,318.5 1624.5,255.5 Z"/></g>
<g><path style="opacity:0.99" fill="#0be1ff" d="M 2113.5,256.5 C 2133,255.172 2152.67,255.172 2172.5,256.5C 2188.24,294.313 2204.24,331.979 2220.5,369.5C 2236.79,331.969 2252.13,293.969 2266.5,255.5C 2285.84,255.333 2305.17,255.5 2324.5,256C 2285.31,346.21 2245.98,436.377 2206.5,526.5C 2188.18,527.5 2169.85,527.833 2151.5,527.5C 2164.97,496.448 2178.63,465.448 2192.5,434.5C 2166.67,374.846 2140.34,315.513 2113.5,256.5 Z"/></g>
<g><path style="opacity:1" fill="#8302ff" d="M 217.5,281.5 C 218.458,281.953 219.292,282.619 220,283.5C 223.264,309.289 230.931,333.623 243,356.5C 274.774,411.654 322.274,443.821 385.5,453C 440.166,453.5 494.832,453.667 549.5,453.5C 549.833,454.167 550.167,454.833 550.5,455.5C 550.829,486.074 550.496,516.574 549.5,547C 484.818,547.948 420.152,547.615 355.5,546C 296.311,536.504 252.144,505.67 223,453.5C 195.116,397.037 193.283,339.704 217.5,281.5 Z"/></g>
</svg>
