<svg xmlns="http://www.w3.org/2000/svg" width="3464" height="696" style="shape-rendering:geometricPrecision;text-rendering:geometricPrecision;image-rendering:optimizeQuality;fill-rule:evenodd;clip-rule:evenodd"><path style="opacity:.962" fill="#f53535" d="M3076.5 60.5c10.69 9.189 15.69 21.022 15 35.5-2.12 27.627-16.79 43.627-44 48-38.61-1.947-55.44-22.114-50.5-60.5 1.55-4.485 3.38-8.818 5.5-13a42.3 42.3 0 0 0 5-1.5c4.02-5.02 8.36-9.686 13-14a566.953 566.953 0 0 1 26.5-6.5 229.204 229.204 0 0 1 29.5 12Z"/><path style="opacity:.234" fill="#f6211f" d="M3076.5 60.5a229.204 229.204 0 0 0-29.5-12 566.953 566.953 0 0 0-26.5 6.5c-4.64 4.314-8.98 8.98-13 14a42.3 42.3 0 0 1-5 1.5c13.99-20.389 32.99-27.222 57-20.5 6.34 2.497 12 5.997 17 10.5Z"/><path style="opacity:.97" fill="#f53737" d="M982.5 215.5c-.973 1.568-1.14 3.235-.5 5a858.03 858.03 0 0 1 9.5 19 4.933 4.933 0 0 1-1 2.5 93.056 93.056 0 0 1 5 15c-.705 1.422-1.039 2.755-1 4a512.76 512.76 0 0 0 3 12.5c.12 56.3-.047 112.633-.5 169a10.258 10.258 0 0 1-1.5 4 753.161 753.161 0 0 1-77.5 0c-.83-49.904-.664-99.737.5-149.5a85.755 85.755 0 0 1-2.5-17.5c-.6-2.41-1.766-4.41-3.5-6a77.465 77.465 0 0 0-5.5-13c-7.276-9.42-16.943-13.42-29-12-14.474-.434-26.474 4.9-36 16a167.664 167.664 0 0 1-5.5 10 2.428 2.428 0 0 0-.5-2c-3.443 3.614-4.61 7.78-3.5 12.5a17.958 17.958 0 0 0-3 7l1 1a11687.43 11687.43 0 0 0-1.5 152.5c-12.61 1.324-25.443 1.99-38.5 2l-38-.5-1.5-1.5c-.826-88.361-.659-176.695.5-265l2-1c22.642 1.99 45.642 2.656 69 2 1.25.077 2.083.744 2.5 2l1 12c13.763-12.755 29.93-20.589 48.5-23.5 33.967-5.224 64.301 2.443 91 23 6.641 6.13 12.307 12.963 17 20.5Z"/><path style="opacity:.974" fill="#f53636" d="M2626.5 269.5c-1.33 28.659-2 57.659-2 87 0 29.375.34 58.708 1 88-.33.667-.67 1.333-1 2-22.99 1-45.99 1.333-69 1 .17-6.009 0-12.009-.5-18a25.5 25.5 0 0 1-6.5 5.5c1.24.232 2.24.732 3 1.5-8.7 7.355-18.37 13.189-29 17.5a34.023 34.023 0 0 1-8 1.5 41.513 41.513 0 0 0-7-1c-11.21 2.651-22.37 2.651-33.5 0-.33.333-.67.667-1 1a97.552 97.552 0 0 1-16-3c-1.07.028-1.9.361-2.5 1-26.03-8.806-44.87-25.806-56.5-51a52.607 52.607 0 0 1-3.5-17c.44.065.77-.101 1-.5a2272.36 2272.36 0 0 0-4-23.5c1.57-45.324 24.24-73.824 68-85.5 19.81-2.466 39.47-1.8 59 2a124.217 124.217 0 0 1 27 12.5c1.42-26.632-10.92-43.132-37-49.5-27.83-2.862-54.16 2.138-79 15-2 .667-4 .667-6 0a959.642 959.642 0 0 1-25-53c.76-2.133 2.09-3.8 4-5 45.75-24.539 94.41-32.206 146-23 47.04 13.82 73.04 45.32 78 94.5Zm-146 111c-5.2-9.058-6.37-18.725-3.5-29a32.09 32.09 0 0 1 5.5-7.5 119.04 119.04 0 0 1 14-5.5c15.58-2.363 30.25.137 44 7.5 8.75 8.973 10.25 19.139 4.5 30.5-7.3 6.732-15.8 10.899-25.5 12.5-9.04.765-18.04.431-27-1a46.681 46.681 0 0 1-12-7.5Z"/><path style="opacity:.971" fill="#f53737" d="M2938.5 274.5c-2.12.903-2.45 2.237-1 4-.51 55.89-1.35 111.89-2.5 168-25.78.699-51.62 1.365-77.5 2a2803.651 2803.651 0 0 1 0-149c-.63-3.534-1.3-7.034-2-10.5.31-4.736.31-9.736 0-15a123.026 123.026 0 0 0-11-20.5c-3.47-1.152-6.47-2.985-9-5.5-2.54-.796-4.87-.629-7 .5-15.84-2.964-29.84.536-42 10.5a86.062 86.062 0 0 0-9.5 12.5 189.188 189.188 0 0 0-5.5 25c-2.27 1.693-2.6 3.86-1 6.5-.66 47.766-1.33 95.599-2 143.5-25.15.671-50.32 1.338-75.5 2-1.65-1.286-2.82-2.953-3.5-5 .18-84.835.18-170.835 0-258-.24-1.291.1-2.291 1-3 22.79-.139 45.79.028 69 .5a9.39 9.39 0 0 1 2.5 1.5c.05 5.841.71 11.508 2 17a47.771 47.771 0 0 1 2.5-5 91.795 91.795 0 0 0 9-6.5 18.311 18.311 0 0 0 2-3.5c11.23-7.25 23.56-12.084 37-14.5 35.21-5.622 66.21 2.878 93 25.5 14.45 14.573 23.95 31.907 28.5 52 .92 8.332 1.75 16.666 2.5 25Z"/><path style="opacity:.975" fill="#f53636" d="M3367.5 257.5c-.24 3.264-.91 6.764-2 10.5l1.5 1.5c.33 6 .67 12 1 18 .5 53.666.67 107.332.5 161a842.533 842.533 0 0 1-71 .5 53.336 53.336 0 0 1-3-12.5c-14.49 12.168-31.16 19.501-50 22v-3c-13.89 1.032-27.89.199-42-2.5-5.79-3.105-11.79-4.605-18-4.5-9.8-4.473-18.13-10.806-25-19a11.332 11.332 0 0 1-2-6h-3c-15.75-26.522-20.75-55.188-15-86 2.9-7.288 5.9-14.454 9-21.5-.24-.902-.58-1.735-1-2.5 8.66-13.487 20.33-23.654 35-30.5 14.38-6.712 29.55-9.546 45.5-8.5 22.47-1.329 42.81 4.338 61 17 .78-27.219-12.05-44.052-38.5-50.5-27.62-2.869-53.62 2.131-78 15-2.85.944-5.35.444-7.5-1.5-7.63-16.314-15.3-32.647-23-49-.65-1.735-.48-3.402.5-5 4.5-3.085 9.17-5.918 14-8.5 22.1-9.558 45.1-16.225 69-20 16.67-.667 33.33-.667 50 0 50.49 7.33 81.16 35.83 92 85.5Zm-120 80c12.82-.412 24.82 2.421 36 8.5 9.5 9.994 10.5 20.828 3 32.5-15.68 10.912-33.01 14.079-52 9.5-4.25-2.71-8.42-5.543-12.5-8.5-10.05-25.602-1.55-39.602 25.5-42Z"/><path style="opacity:.969" fill="#f53636" d="M1211.5 454.5c-.06-.543-.39-.876-1-1-19.15 3.463-38.32 3.796-57.5 1-4.72-.272-9.55.061-14.5 1a128.677 128.677 0 0 1-23-6.5c-5.17-1.751-9.84-4.251-14-7.5.2-1.89-.46-3.39-2-4.5a78.968 78.968 0 0 0-13-8c-1.33-.667-1.33-1.333 0-2a111.156 111.156 0 0 1-13-12c.33-.333.67-.667 1-1a73.57 73.57 0 0 1-12-16c-11.46-22.6-18.12-46.6-20-72 1.07-.739 1.74-1.739 2-3 .14-14.539.14-29.039 0-43.5 1.1-13.172 4.77-25.505 11-37 2.09-.061 3.59-1.061 4.5-3a45.191 45.191 0 0 0 4-10 400.778 400.778 0 0 0 13-18c6.5-6.34 13.33-12.34 20.5-18 4.13-2.235 8.13-4.735 12-7.5a54.628 54.628 0 0 0 7-2c1.27-.977 1.27-1.811 0-2.5.11-.617.44-1.117 1-1.5 28.39-9.367 57.39-11.034 87-5 42.86 13.53 70.03 42.03 81.5 85.5 5.18 22.013 6.85 44.347 5 67-.86 4.925-2.7 9.425-5.5 13.5-54 .5-108 .667-162 .5 5.53 31.695 24.36 47.695 56.5 48 21.74-.119 39.91-8.286 54.5-24.5a10.252 10.252 0 0 1 4-1.5c2.57 1.059 4.73 2.726 6.5 5a996.174 996.174 0 0 0 34 41 12.44 12.44 0 0 1 0 7c-18.81 19.325-41.31 31.991-67.5 38Zm-2-190c2.99 6.313 4.99 12.979 6 20-30.67.333-61.34 0-92-1a9.126 9.126 0 0 0 1-5c10.84-32.087 32.51-43.587 65-34.5 8.85 4.687 15.52 11.521 20 20.5Z"/><path style="opacity:.97" fill="#f53636" d="M1864.5 181.5c14.65 4.074 28.15 10.74 40.5 20 .7 3.428.37 6.762-1 10a477.942 477.942 0 0 1-9.5 21c-2.09.061-3.59 1.061-4.5 3a53.105 53.105 0 0 1-3.5 7.5c.46.414.79.914 1 1.5a188.903 188.903 0 0 0-7.5 14c-2.38.935-4.88 1.268-7.5 1v-3a41.08 41.08 0 0 1-8-3.5 70.64 70.64 0 0 0-9-1.5l-4-1c-1.13-1.953-2.79-3.453-5-4.5-7.23-2.622-14.73-4.122-22.5-4.5-9.02-.395-18.18.105-27.5 1.5-3.27.437-4.94 2.27-5 5.5-.83 2.969-1 5.969-.5 9a28.073 28.073 0 0 0 8.5 7.5 713.341 713.341 0 0 0 55 24c6.78 4.135 13.45 8.302 20 12.5.43 2.695 1.77 4.862 4 6.5 3.57 2.27 7.24 4.437 11 6.5 1.3 3.138 3.47 5.471 6.5 7 .48.948.65 1.948.5 3 1.32-.17 2.49.163 3.5 1a120.32 120.32 0 0 0 8 17 257.823 257.823 0 0 0 4 18l1.5 1.5c-1.52 2.552-1.19 4.718 1 6.5 2.07 28.365-8.26 51.198-31 68.5-22.76 16.101-48.26 23.268-76.5 21.5-37.27.193-71.11-9.974-101.5-30.5-1.53-1.648-2.2-3.648-2-6 .43-4.037 1.6-7.87 3.5-11.5 7.08-16 14.58-31.833 22.5-47.5 1.67-.667 3.33-.667 5 0 25.41 16.625 53.41 24.292 84 23 12.83-3.499 16.67-11.332 11.5-23.5-2.53-2.527-5.03-5.027-7.5-7.5a2079.633 2079.633 0 0 0-58-27c-15.88-8.208-29.71-19.041-41.5-32.5a88.92 88.92 0 0 1-8.5-18c.66-1.293.99-2.793 1-4.5-.83-5.394-1.83-10.394-3-15 1.26-9.77 2.43-19.603 3.5-29.5a154.47 154.47 0 0 0 8.5-21c5.5-7.666 12.17-14.166 20-19.5 12.2-6.8 25.2-11.3 39-13.5 3.4.538 6.9.871 10.5 1 4.73-.549 9.4-1.216 14-2a66.641 66.641 0 0 0 23 0c3.72 1.128 7.38 2.461 11 4 2.72-.141 5.38-.141 8 0 4.55 2.3 9.38 3.633 14.5 4Z"/><path style="opacity:.97" fill="#f53737" d="M2219.5 173.5c.29 1.149 1.12 1.816 2.5 2 23.9-3.618 46.74-1.451 68.5 6.5a121.591 121.591 0 0 0 17 8c1.3 3.044 3.64 4.211 7 3.5 10.91 8.084 19.07 18.418 24.5 31a101.637 101.637 0 0 1 5.5 17c.9 5.137.9 9.97 0 14.5a952.824 952.824 0 0 0 4 21.5 7117.71 7117.71 0 0 1-3 169.5c-25.81.989-51.48.656-77-1a3253.02 3253.02 0 0 1 0-160.5c.32-4.2-.68-8.034-3-11.5.85-3.107 1.18-6.107 1-9-1.57-2.3-2.73-4.8-3.5-7.5-1.01-.837-2.18-1.17-3.5-1a60.56 60.56 0 0 1-8-5.5c-30.11-8.343-46.77 2.824-50 33.5-1.72 2.158-2.55 4.825-2.5 8-.33 50.667-.67 101.333-1 152-.37.916-.87 1.75-1.5 2.5-25.71.48-51.21.646-76.5.5a1610.642 1610.642 0 0 1-1.5-80c0-26.571.34-53.071 1-79.5a177.871 177.871 0 0 0-6.5-26.5 12.42 12.42 0 0 1-2.5-4c-1.55-.952-3.21-1.285-5-1-10.9-8.356-22.9-10.189-36-5.5-3.8 1.979-7.13 4.479-10 7.5-.28-.789-.78-1.456-1.5-2l-3 4a463.705 463.705 0 0 0-7 21c-.33 54.333-.67 108.667-1 163-.5 1.167-1.33 2-2.5 2.5-25.57.828-51.07.661-76.5-.5-.67-87.333-.67-174.667 0-262 11.61-1.323 23.44-1.989 35.5-2l35 .5 1.5 1.5c.53 6.052.53 12.052 0 18 5.04-3.542 9.21-7.876 12.5-13 2.34-2.368 5.01-4.535 8-6.5 31-15.309 62-15.309 93 0a229.805 229.805 0 0 1 19.5 16.5c6.38-6.1 13.21-11.6 20.5-16.5a173.478 173.478 0 0 1 26-9.5Z"/><path style="opacity:.082" fill="#f01c1b" d="M1864.5 181.5c-5.12-.367-9.95-1.7-14.5-4a75.696 75.696 0 0 0-8 0 108.697 108.697 0 0 0-11-4 66.641 66.641 0 0 1-23 0c-4.6.784-9.27 1.451-14 2-3.6-.129-7.1-.462-10.5-1 27.78-5.756 54.78-3.423 81 7Z"/><path style="opacity:.209" fill="#f62322" d="M2314.5 193.5c-3.36.711-5.7-.456-7-3.5a121.591 121.591 0 0 1-17-8c-21.76-7.951-44.6-10.118-68.5-6.5-1.38-.184-2.21-.851-2.5-2 27.87-5.266 54.54-2.099 80 9.5a79.204 79.204 0 0 1 15 10.5Z"/><path style="opacity:.01" fill="#fe0000" d="M753.5 179.5c22.669-.167 45.336 0 68 .5.556.383.889.883 1 1.5-23.358.656-46.358-.01-69-2ZM1381.5 181.5h-79c.42-.722 1.08-1.222 2-1.5 25-.667 50-.667 75 0 .92.278 1.58.778 2 1.5ZM1686.5 181.5h-77c.42-.722 1.08-1.222 2-1.5 24.33-.667 48.67-.667 73 0 .92.278 1.58.778 2 1.5ZM2040.5 181.5h-73c.76-.768 1.76-1.268 3-1.5 22.33-.667 44.67-.667 67 0 1.24.232 2.24.732 3 1.5ZM2762.5 181.5h-72c.42-.722 1.08-1.222 2-1.5 22.33-.667 44.67-.667 67 0 1.24.232 2.24.732 3 1.5ZM3082.5 181.5h-78c.42-.722 1.08-1.222 2-1.5 24.67-.667 49.33-.667 74 0 .92.278 1.58.778 2 1.5Z"/><path style="opacity:.021" fill="#fe0000" d="M749.5 181.5v267c-.722-.418-1.222-1.084-1.5-2-.667-87.667-.667-175.333 0-263 .278-.916.778-1.582 1.5-2Z"/><path style="opacity:.165" fill="#f82423" d="M2690.5 182.5v-1h72c1-.086 1.83.248 2.5 1 .33 4.333.67 8.667 1 13 3.11-3.94 6.94-6.94 11.5-9a18.311 18.311 0 0 1-2 3.5 91.795 91.795 0 0 1-9 6.5 47.771 47.771 0 0 0-2.5 5c-1.29-5.492-1.95-11.159-2-17a9.39 9.39 0 0 0-2.5-1.5c-23.21-.472-46.21-.639-69-.5Z"/><path style="opacity:.972" fill="#f53636" d="M1302.5 181.5h79c1-.086 1.83.248 2.5 1a3931.955 3931.955 0 0 0 17.5 69c-.63 7.195.54 14.195 3.5 21 .41.457.91.791 1.5 1a86.061 86.061 0 0 1 1.5 13c4.48 16.737 9.15 33.404 14 50 2.46-5.035 4.12-10.368 5-16 1.3-.59 2.13-1.59 2.5-3a143.977 143.977 0 0 0 3.5-16c1.3-.59 2.13-1.59 2.5-3 .85-3.716 1.85-7.383 3-11-.12-.607-.46-.94-1-1v-1c7.3-12.715 12.13-26.382 14.5-41 7.29-12.621 11.79-26.287 13.5-41a39.109 39.109 0 0 1 5-16 378.72 378.72 0 0 1 55 0c8.11 25.752 16.28 51.419 24.5 77 4.69 16.697 9.36 33.363 14 50a57.587 57.587 0 0 0 4.5 10 1540.777 1540.777 0 0 0 20-74c.31 1.238.81 1.238 1.5 0a129.968 129.968 0 0 0 6.5-19.5 3.627 3.627 0 0 1-1-1.5 35.093 35.093 0 0 0 4-8.5 3.92 3.92 0 0 0-1-2c1.5-1.491 2.34-3.324 2.5-5.5a840.92 840.92 0 0 0 1.5-14c.35-5.57 1.51-10.903 3.5-16 .82-1.323 1.98-1.989 3.5-2h77c1.62.287 2.62 1.287 3 3a922.71 922.71 0 0 0-15.5 55 133.79 133.79 0 0 0-7.5 27c-.72-.418-1.22-1.084-1.5-2-.86 5.731-2.86 11.064-6 16-1.11 7.71-2.95 15.21-5.5 22.5.56.383.89.883 1 1.5a1492.026 1492.026 0 0 1-16 58c-1.25.077-2.08.744-2.5 2-.54 3.029-1.21 6.029-2 9-.91-1.154-1.75-.987-2.5.5-.57 6.466-2.07 12.966-4.5 19.5a154.39 154.39 0 0 1-1.5 10.5c-.27 1.607-1.1 2.774-2.5 3.5a933.856 933.856 0 0 1-8.5 27.5c.46.414.79.914 1 1.5-1.34 3.338-2.67 6.672-4 10-1.25.54-2.41 1.207-3.5 2-22.1-.662-44.27-1.328-66.5-2a411.519 411.519 0 0 1-5.5-19c-.79-2.144-2.29-3.477-4.5-4a520.864 520.864 0 0 1-8-23c1.13-2.466 1.3-5.133.5-8a565.173 565.173 0 0 1-10-32 48.726 48.726 0 0 1-5-11c-.67-.752-1.5-1.086-2.5-1a186.857 186.857 0 0 0-9.5-27c-.7 3.609-1.87 6.942-3.5 10-.65-.304-1.32-.637-2-1a620.789 620.789 0 0 0-21 59 5.56 5.56 0 0 1 1 3 764.005 764.005 0 0 1-21 56.5c-24.67.667-49.33.667-74 0a128.422 128.422 0 0 1-7-22.5c1.18.219 2.18-.114 3-1a80.76 80.76 0 0 1-5.5-19c-1.33-2.667-2.67-5.333-4-8-2.53-10.318-5.2-20.651-8-31-.67-.752-1.5-1.086-2.5-1a11413.715 11413.715 0 0 1-52-181.5c.11-1.681.77-2.848 2-3.5Z"/><path style="opacity:.019" fill="red" d="M3004.5 181.5c-.49.973-.99 1.973-1.5 3-.5 87.666-.67 175.333-.5 263-1.17-88.166-1.33-176.499-.5-265 .67-.752 1.5-1.086 2.5-1Z"/><path style="opacity:.968" fill="#f53737" d="M3084.5 444.5v3c-1.78 1.844-4.11 2.51-7 2-24.22-.344-48.39-1.344-72.5-3-.83-87.903-.67-175.737.5-263.5 25.69-.806 51.52-.639 77.5.5.17 87.168.67 174.168 1.5 261Z"/><path style="opacity:.01" fill="#fe0000" d="M3084.5 182.5c.72.418 1.22 1.084 1.5 2 .67 87 .67 174 0 261-.28.916-.78 1.582-1.5 2v-265Z"/><path style="opacity:.008" fill="red" d="M2690.5 181.5v1c-.9.709-1.24 1.709-1 3-.67 85.667-1.33 171.333-2 257-.17-86.334 0-172.667.5-259 .42-1.256 1.25-1.923 2.5-2Z"/><path style="opacity:.02" fill="#fb2e2d" d="M1967.5 181.5h73c1.78 4.227 2.61 8.894 2.5 14 2.8-2.647 5.97-4.647 9.5-6-3.29 5.124-7.46 9.458-12.5 13 .53-5.948.53-11.948 0-18l-1.5-1.5-35-.5c-12.06.011-23.89.677-35.5 2-.67 87.333-.67 174.667 0 262a980.753 980.753 0 0 0 76.5.5c1.17-.5 2-1.333 2.5-2.5.33-54.333.67-108.667 1-163a463.705 463.705 0 0 1 7-21l3-4c.72.544 1.22 1.211 1.5 2-3.21 4.112-5.38 8.778-6.5 14a340.377 340.377 0 0 1-3 18c-.33 52.667-.67 105.333-1 158a1140.597 1140.597 0 0 1-82.5.5c-1.17-88.763-1.33-177.597-.5-266.5.38-.556.88-.889 1.5-1Z"/><path style="opacity:.243" fill="#f72d2d" d="M3004.5 181.5h78c.99-.172 1.66.162 2 1v262a34305.97 34305.97 0 0 1-1.5-261 1030.76 1030.76 0 0 0-77.5-.5 11570.94 11570.94 0 0 0-.5 263.5c24.11 1.656 48.28 2.656 72.5 3-25.36.657-50.36-.009-75-2-.17-87.667 0-175.334.5-263a598.85 598.85 0 0 1 1.5-3Z"/><path style="opacity:.292" fill="#f62321" d="M1116.5 181.5c1.27.689 1.27 1.523 0 2.5a54.628 54.628 0 0 1-7 2 113.776 113.776 0 0 1-12 7.5c-7.17 5.66-14 11.66-20.5 18a400.778 400.778 0 0 1-13 18 45.191 45.191 0 0 1-4 10c-.91 1.939-2.41 2.939-4.5 3 11.41-27.33 30.41-47.496 57-60.5a8.43 8.43 0 0 1 4-.5Z"/><path style="opacity:.129" fill="#f51f1d" d="M1602.5 199.5a840.92 840.92 0 0 1-1.5 14c-.16 2.176-1 4.009-2.5 5.5a3.92 3.92 0 0 1 1 2 35.093 35.093 0 0 1-4 8.5c.21.586.54 1.086 1 1.5a129.968 129.968 0 0 1-6.5 19.5c-.69 1.238-1.19 1.238-1.5 0 4.49-16.633 8.66-33.299 12.5-50 .38-.556.88-.889 1.5-1Z"/><path style="opacity:.137" fill="#f52220" d="M1851.5 250.5c-12.53-4.203-25.53-6.87-39-8-7.42.746-14.42 2.746-21 6 .06-3.23 1.73-5.063 5-5.5 9.32-1.395 18.48-1.895 27.5-1.5 7.77.378 15.27 1.878 22.5 4.5 2.21 1.047 3.87 2.547 5 4.5Z"/><path style="opacity:.291" fill="#f61f1e" d="M1724.5 207.5a154.47 154.47 0 0 1-8.5 21c-1.07 9.897-2.24 19.73-3.5 29.5 1.17 4.606 2.17 9.606 3 15-.01 1.707-.34 3.207-1 4.5a90.46 90.46 0 0 1-2.5-9 254.978 254.978 0 0 1 0-32c2.16-10.667 6.32-20.334 12.5-29Z"/><path style="opacity:.215" fill="#f52220" d="M1894.5 232.5c-4.16 9.655-8.33 19.322-12.5 29l-3 2a666.616 666.616 0 0 1-23.5-12c3.02.304 6.02.804 9 1.5a41.08 41.08 0 0 0 8 3.5v3c2.62.268 5.12-.065 7.5-1 2.32-4.802 4.82-9.469 7.5-14a3.627 3.627 0 0 0-1-1.5 53.105 53.105 0 0 0 3.5-7.5c.91-1.939 2.41-2.939 4.5-3Z"/><path style="opacity:.179" fill="#f71f1d" d="M1465.5 203.5c-1.71 14.713-6.21 28.379-13.5 41-2.37 14.618-7.2 28.285-14.5 41a1264.05 1264.05 0 0 1 28-82Z"/><path style="opacity:.015" fill="red" d="M2938.5 274.5v172a7063.61 7063.61 0 0 1-1-168c-1.45-1.763-1.12-3.097 1-4Z"/><path style="opacity:.11" fill="#f61816" d="M1666.5 266.5a454.55 454.55 0 0 0-12 38c-.11-.617-.44-1.117-1-1.5 2.55-7.29 4.39-14.79 5.5-22.5 3.14-4.936 5.14-10.269 6-16 .28.916.78 1.582 1.5 2Z"/><path style="opacity:.019" fill="#fe0000" d="M2115.5 280.5c.81 1.792 1.31 3.792 1.5 6 .5 53.999.67 107.999.5 162-.72-.418-1.22-1.084-1.5-2-.5-55.332-.67-110.666-.5-166Z"/><path style="opacity:.005" fill="#fd1311" d="M1209.5 264.5c1-.086 1.83.248 2.5 1 .56 2.79 1.89 5.123 4 7a34.046 34.046 0 0 1 1.5 8c.17 2.193-.49 4.027-2 5.5-30.67.667-61.33.667-92 0-.61-1.231-.94-2.564-1-4 .11-1.681.77-2.848 2-3.5a9.126 9.126 0 0 1-1 5c30.66 1 61.33 1.333 92 1-1.01-7.021-3.01-13.687-6-20Z"/><path style="opacity:.015" fill="#fd0000" d="M2627.5 283.5a4372.16 4372.16 0 0 1 .5 162c-.23 1.237-.73 2.237-1.5 3-.31-55.01.02-110.01 1-165Z"/><path style="opacity:.224" fill="#ee2221" d="M2344.5 241.5c2.09 5.392 3.59 11.058 4.5 17 1.57 62.99 1.9 125.99 1 189l-1.5 1.5c-27 .667-54 .667-81 0l-1.5-1.5c-.33-56.667-.67-113.333-1-170-.72-7.319-2.55-14.319-5.5-21 1.32-.17 2.49.163 3.5 1 .77 2.7 1.93 5.2 3.5 7.5.18 2.893-.15 5.893-1 9 2.32 3.466 3.32 7.3 3 11.5a3253.02 3253.02 0 0 0 0 160.5 746.814 746.814 0 0 0 77 1 7117.71 7117.71 0 0 0 3-169.5 952.824 952.824 0 0 1-4-21.5c.9-4.53.9-9.363 0-14.5Z"/><path style="opacity:.228" fill="#f72c2b" d="M2626.5 269.5c.04 4.693.37 9.359 1 14-.98 54.99-1.31 109.99-1 165a866.435 866.435 0 0 1-72 .5l-1.5-1.5c-.18-3.856-.68-7.523-1.5-11-.76-.768-1.76-1.268-3-1.5a25.5 25.5 0 0 0 6.5-5.5c.5 5.991.67 11.991.5 18 23.01.333 46.01 0 69-1 .33-.667.67-1.333 1-2-.66-29.292-1-58.625-1-88 0-29.341.67-58.341 2-87Z"/><path style="opacity:.008" fill="red" d="M833.5 290.5a6047.312 6047.312 0 0 0-1 154 3905.64 3905.64 0 0 1-.5-153c.383-.556.883-.889 1.5-1Z"/><path style="opacity:.122" fill="#f32a29" d="M2105.5 256.5c1.79-.285 3.45.048 5 1a12.42 12.42 0 0 0 2.5 4 177.871 177.871 0 0 1 6.5 26.5c-.66 26.429-1 52.929-1 79.5-.16 26.811.34 53.478 1.5 80 25.29.146 50.79-.02 76.5-.5a9.246 9.246 0 0 0 1.5-2.5c.33-50.667.67-101.333 1-152-.05-3.175.78-5.842 2.5-8v8c-.79.283-1.46.783-2 1.5 1.16 50.096 1.33 100.263.5 150.5a16.603 16.603 0 0 0-2.5 5c-26.84.331-53.51-.002-80-1 .17-54.001 0-108.001-.5-162-.19-2.208-.69-4.208-1.5-6-.63-9.238-3.96-17.238-10-24Z"/><path style="opacity:.004" fill="red" d="M2201.5 292.5c.17 51.001 0 102.001-.5 153-.06 2.41-1.22 3.744-3.5 4 .55-1.803 1.38-3.47 2.5-5 .83-50.237.66-100.404-.5-150.5.54-.717 1.21-1.217 2-1.5Z"/><path style="opacity:.071" fill="#fd1615" d="M3367.5 257.5a333.74 333.74 0 0 1 2.5 20c.67 56.667.67 113.333 0 170-.38.556-.88.889-1.5 1 .17-53.668 0-107.334-.5-161-.33-6-.67-12-1-18l-1.5-1.5c1.09-3.736 1.76-7.236 2-10.5Z"/><path style="opacity:.118" fill="#f82221" d="M2828.5 248.5c2.13-1.129 4.46-1.296 7-.5 2.53 2.515 5.53 4.348 9 5.5a123.026 123.026 0 0 1 11 20.5c.31 5.264.31 10.264 0 15 .7 3.466 1.37 6.966 2 10.5a2803.651 2803.651 0 0 0 0 149c25.88-.635 51.72-1.301 77.5-2 1.15-56.11 1.99-112.11 2.5-168-.33 56.169 0 112.169 1 168-.45.958-1.12 1.792-2 2.5-27.24.828-54.41.661-81.5-.5-.33-52-.67-104-1-156-.63-11.518-3.3-22.518-8-33-4.54-5.845-10.37-9.512-17.5-11Z"/><path style="opacity:.107" fill="#f62625" d="M982.5 215.5c8.946 15.339 14.446 32.005 16.5 50 .831 61.237.664 122.404-.5 183.5-27.572.828-55.072.661-82.5-.5a7011.348 7011.348 0 0 1-2-166 21.341 21.341 0 0 1-1.5-9c1.734 1.59 2.9 3.59 3.5 6a85.755 85.755 0 0 0 2.5 17.5 3735.802 3735.802 0 0 0-.5 149.5 753.161 753.161 0 0 0 77.5 0 10.258 10.258 0 0 0 1.5-4c.453-56.367.62-112.7.5-169a512.76 512.76 0 0 1-3-12.5c-.039-1.245.295-2.578 1-4a93.056 93.056 0 0 0-5-15 4.933 4.933 0 0 0 1-2.5 858.03 858.03 0 0 0-9.5-19c-.64-1.765-.473-3.432.5-5Z"/><path style="opacity:.188" fill="#f72929" d="M751.5 180.5a11792.418 11792.418 0 0 0-.5 265l1.5 1.5 38 .5c13.057-.01 25.89-.676 38.5-2 .169-50.904.669-101.737 1.5-152.5l-1-1a17.958 17.958 0 0 1 3-7c-1.11-4.72.057-8.886 3.5-12.5.464.594.631 1.261.5 2-1.851 5.093-2.851 10.427-3 16-.617.111-1.117.444-1.5 1a3905.64 3905.64 0 0 0 .5 153 9.175 9.175 0 0 1-2 4.5c-27.17.83-54.17.664-81-.5v-267l2-1Z"/><path style="opacity:.331" fill="#f5211f" d="M1401.5 251.5a3310.106 3310.106 0 0 1 20.5 78 1015.162 1015.162 0 0 1 15.5-43c.54.06.88.393 1 1a137.417 137.417 0 0 0-3 11c-.37 1.41-1.2 2.41-2.5 3a143.977 143.977 0 0 1-3.5 16c-.37 1.41-1.2 2.41-2.5 3-.88 5.632-2.54 10.965-5 16a2279.134 2279.134 0 0 1-14-50 86.061 86.061 0 0 0-1.5-13 3.595 3.595 0 0 1-1.5-1c-2.96-6.805-4.13-13.805-3.5-21Z"/><path style="opacity:.797" fill="#f43230" d="M319.5 26.5c108.691-2.648 197.857 37.352 267.5 120 66.623 87.983 85.29 185.65 56 293C603.069 555.102 523.902 627.935 405.5 658c-107.797 20.396-202.463-5.271-284-77C43.053 505.192 9.553 412.692 21 303.5 41.903 180.903 109.736 95.403 224.5 47a230.668 230.668 0 0 1 25-7l6-3c7.673-.294 15.006-1.96 22-5a2394.042 2394.042 0 0 0 42-5.5Z"/><path style="opacity:1" fill="#f53937" d="M316.5 31.5c11.526 1.147 23.193 1.147 35 0l12 3c3.951-.743 7.784-1.077 11.5-1l1.5 1.5a96.572 96.572 0 0 1 13.5 2.5 14.443 14.443 0 0 0 5-1c.483.948.649 1.948.5 3 2.619.268 5.119-.065 7.5-1 3.836 1.889 8.003 2.556 12.5 2v4c2.619.268 5.119-.065 7.5-1a4.458 4.458 0 0 1 1.5 2 41.32 41.32 0 0 1 12 4c1.147-.318 1.981-.984 2.5-2a8.43 8.43 0 0 1 .5 4c4.212-.555 7.879.445 11 3a12.898 12.898 0 0 0 4-1c-.098 1.116.402 2.116 1.5 3a79.985 79.985 0 0 0 17.5 7l1 2c10.984 4.807 21.151 10.807 30.5 18a52.04 52.04 0 0 0 13.5 7v3c3.987-.489 6.32 1.178 7 5a29.753 29.753 0 0 0 7 2v3c4.342 1.819 8.342 4.319 12 7.5.88 1.356 1.214 2.856 1 4.5a437.393 437.393 0 0 1 10 5c-.219 1.175.114 2.175 1 3a108.156 108.156 0 0 1 17 19c1.024 1.353 2.357 2.02 4 2-.219 1.175.114 2.175 1 3a196.577 196.577 0 0 1 10 11 11.988 11.988 0 0 1 1 6c1.478-.262 2.811.071 4 1a65.256 65.256 0 0 0 12 19.5 52.182 52.182 0 0 1 7 13.5 28.931 28.931 0 0 0 4 1.5c-1.075 4.665.259 8.665 4 12 1.149 6.726 4.149 12.392 9 17a7.93 7.93 0 0 0-1 3.5 112.917 112.917 0 0 1 8 20 587.018 587.018 0 0 0 8 35c.896-1.006 1.562-1.006 2 0a28.819 28.819 0 0 0-1 10 4.934 4.934 0 0 1 3 .5c-1.66 4.698-.993 9.031 2 13a261.02 261.02 0 0 0-1 10 18.422 18.422 0 0 0 2 7 177.384 177.384 0 0 0 0 37.5c-1.18 1.954-1.846 4.121-2 6.5.892 4.388 1.225 8.388 1 12a4.934 4.934 0 0 1-3 .5 413.09 413.09 0 0 1-10 50.5 47.499 47.499 0 0 1 1 5.5c-1.643-.02-2.976.647-4 2-1.277 2.534-1.277 5.034 0 7.5a19.745 19.745 0 0 1-5 5.5 89.89 89.89 0 0 0-2 8.5 3.943 3.943 0 0 0 1 2c-1.405 1.269-3.071 1.769-5 1.5a13.116 13.116 0 0 1-1 7 4858.612 4858.612 0 0 1-7 15.5 292.213 292.213 0 0 1-20 30.5c-1.474 2.823-1.808 5.656-1 8.5a29.812 29.812 0 0 1-5-.5c.667 4-1 5.667-5 5a11.988 11.988 0 0 1-1 6 245.159 245.159 0 0 0-16 17 6.846 6.846 0 0 0-1 4c-3.651-.338-5.317 1.328-5 5-1.478-.262-2.811.071-4 1a50.776 50.776 0 0 1-7 7 6.846 6.846 0 0 0-1 4c-1.478-.262-2.811.071-4 1l-6 7c-4.103 1.64-7.769 3.806-11 6.5a40.148 40.148 0 0 0-6.5 8.5c-2.215-1.32-3.715-.653-4.5 2a40.737 40.737 0 0 1-11 4v3a51.58 51.58 0 0 1-10 4v3a51.145 51.145 0 0 0-13 5c.411 2.776-.422 3.443-2.5 2-1.477.944-2.477 2.277-3 4a4.933 4.933 0 0 0-2.5-1 679.567 679.567 0 0 1-22.5 10c-1.098.884-1.598 1.884-1.5 3a10.305 10.305 0 0 0-3-1 22.411 22.411 0 0 1-8 2.5c-2.021.513-3.521 1.68-4.5 3.5a6.293 6.293 0 0 0-3-1c-4.765 1.246-9.098 3.246-13 6a4.933 4.933 0 0 0-2.5-1 13.049 13.049 0 0 0-4 3c-4.913-1.986-8.913-.986-12 3-1.463-.132-2.963-.465-4.5-1a1984.119 1984.119 0 0 1-4 3c-3.749.264-7.583-.069-11.5-1l-5 1c1.394 1.187 1.227 1.854-.5 2a56.166 56.166 0 0 0-9.5-1c-14.405.186-28.572 1.186-42.5 3-1.667-2.667-3.333-2.667-5 0-1.296-2.315-3.296-3.315-6-3l-3.5.5c1.154.914.987 1.747-.5 2.5a4.934 4.934 0 0 1-.5-3 58.354 58.354 0 0 1-15-2l-5 1c1.006.896 1.006 1.562 0 2a6.802 6.802 0 0 1-1.5-3l-7 1a4.934 4.934 0 0 1-.5-3c-2.097.497-3.93.83-5.5 1-3.024-3.579-6.691-4.579-11-3-2.538-2.375-5.371-3.042-8.5-2l-4-3a204.793 204.793 0 0 1-36.5-13c-2.078 1.443-2.911.776-2.5-2a12.93 12.93 0 0 1-5-.5 294.477 294.477 0 0 1-25-14.5c-2.889 1.466-4.223.466-4-3a32.923 32.923 0 0 1-9-4 3.647 3.647 0 0 0-1.5 1 8.43 8.43 0 0 1-.5-4c-1.644-.214-3.144.12-4.5 1l-1-3h-3c-.284-2.386-1.284-3.052-3-2-1.487-.753-1.654-1.586-.5-2.5a66.642 66.642 0 0 0-13-10.5c-.951.826-1.951.992-3 .5 1.211-.893 1.211-1.726 0-2.5a93.388 93.388 0 0 1-10-9c-.825-.886-1.825-1.219-3-1v-3c-3-.333-4.667-2-5-5-5.807-2.229-9.807-6.229-12-12a8.43 8.43 0 0 1-4-.5 3.647 3.647 0 0 0 1-1.5 21.53 21.53 0 0 1-5-6c-2.667-1.333-4.667-3.333-6-6-2.177 1.004-2.51.338-1-2-1.576-2.077-3.576-3.577-6-4.5a3.942 3.942 0 0 0 1-2c-4.002-2.84-6.335-6.673-7-11.5h-3a29.772 29.772 0 0 1-2-7c-1.322-.17-2.489.163-3.5 1-.307-2.811-.807-5.811-1.5-9-1.322-.17-2.489.163-3.5 1-.21-1.303-.043-2.636.5-4a938.354 938.354 0 0 1-23-41.5c.88-1.356 1.214-2.856 1-4.5-2.987.078-3.653-1.089-2-3.5-1.646-2.595-2.313-5.428-2-8.5-3.718.133-4.718-1.367-3-4.5a11.905 11.905 0 0 0-3-5c1.29-3.627.29-6.627-3-9a6.291 6.291 0 0 0 1-3c-2.147-3.217-2.813-6.551-2-10-2.832-4.274-3.832-8.774-3-13.5a21.68 21.68 0 0 0-3-8c1.757-5.259.757-9.925-3-14a1129.623 1129.623 0 0 0 1-61.5c-2.325-1.881-2.325-3.548 0-5a3.942 3.942 0 0 0-1-2c2.106-2.76 3.439-5.927 4-9.5-.15-1.82-.816-3.32-2-4.5 3.896-5.055 4.896-10.388 3-16 3.801-2.869 4.801-6.536 3-11a30.397 30.397 0 0 1 3-5c-.83-1.465-.996-2.965-.5-4.5l1 1a66.558 66.558 0 0 0 2.5-5.5c-1.126-2.816-.46-5.316 2-7.5-.502-1.216-.835-2.383-1-3.5a10.756 10.756 0 0 0 3-2.5 87.207 87.207 0 0 1 5-13c-1.41-2.314-.743-3.98 2-5a189.713 189.713 0 0 1 20-39c-.543-1.364-.71-2.697-.5-4 1.011.837 2.178 1.17 3.5 1-.815-4.333.852-6.666 5-7 .986-4.966 3.319-9.299 7-13-.826-.951-.992-1.951-.5-3l1 1a22.09 22.09 0 0 0 5.5-8 14.506 14.506 0 0 1 5-4c2.884-4.893 6.551-9.227 11-13a3.647 3.647 0 0 0-1-1.5 16.086 16.086 0 0 1 5-2.5c1.231-1.151 1.231-2.317 0-3.5l1.5-1.5c1.113 1.211 2.28 1.211 3.5 0 1.231-1.151 1.231-2.317 0-3.5 4.241-.426 6.907-2.593 8-6.5 3.735-3.714 8.069-6.714 13-9 .17-1.322-.163-2.489-1-3.5 1.172-.353 2.338-.187 3.5.5 1.3-1.207 2.8-1.874 4.5-2-.219-1.175.114-2.175 1-3 3.426-1.922 5.926-4.589 7.5-8 1.183 1.231 2.349 1.231 3.5 0-1.355-1.175-1.188-2.175.5-3 1.494 1.247 2.994 1.247 4.5 0a45.03 45.03 0 0 1 10-7 8.193 8.193 0 0 0 2.5-4c2.702 1.141 4.369.141 5-3 1.716 1.052 2.716.386 3-2 1.604 1.15 3.27 1.15 5 0 2.495-3 5.662-4.667 9.5-5-.411-2.776.422-3.443 2.5-2 1.3-1.207 2.8-1.874 4.5-2-.219-1.175.114-2.175 1-3 1.916.748 3.916.748 6 0a4.934 4.934 0 0 1 .5-3c2.041.923 4.208 1.256 6.5 1v-3c6.993-1.33 13.66-3.33 20-6 3.281-.71 5.948-2.377 8-5a15.42 15.42 0 0 0 7 1c-.249-3.075 1.085-3.742 4-2a64.894 64.894 0 0 0 8.5-5c5.397-.794 10.897-.794 16.5 0a4.934 4.934 0 0 1 .5-3c1.569.622 3.236.956 5 1 4.946-.795 9.612-2.129 14-4 5.651.584 11.484.917 17.5 1v-3Z"/><path style="opacity:1" fill="#f53838" d="M325.5 114.5c22.61-.944 42.777 5.389 60.5 19a42.869 42.869 0 0 0 10.5 3v3a311.707 311.707 0 0 0 18.5 10 84.122 84.122 0 0 1 15.5-.5c19.307-7.935 39.14-9.435 59.5-4.5a99.864 99.864 0 0 0 19.5 7v4a30.86 30.86 0 0 1 10 3v3a29.753 29.753 0 0 1 7 2l7 10h3v4c4.359.012 7.692 1.845 10 5.5 1.4 1.438 3.067 2.271 5 2.5v3c1.478-.262 2.811.071 4 1 .667 2 2 3.333 4 4 .929 1.189 1.262 2.522 1 4h3v3h4a8.43 8.43 0 0 0 .5 4c2.277 2.221 3.777 4.887 4.5 8h3c-.215 3.466 1.118 6.133 4 8 12.075 22.552 16.075 46.552 12 72-.012 9.991-2.845 18.991-8.5 27a76.01 76.01 0 0 1-2.5 9.5 82.484 82.484 0 0 0 2 6.5h3a13.116 13.116 0 0 0 1 7c2.129 3.8 3.796 7.8 5 12 2.001 9.704 4.001 19.371 6 29-.318 1.147-.984 1.981-2 2.5 1.289 3.402 1.956 7.069 2 11l-3 26.5a659.072 659.072 0 0 1-9 33h-3a80.429 80.429 0 0 1-6 16 7.293 7.293 0 0 0-3 2 200.686 200.686 0 0 1-10 18h-3c-1.194 3.205-3.194 5.871-6 8-.929 1.189-1.262 2.522-1 4a6.846 6.846 0 0 0-4 1 74.003 74.003 0 0 0-12 11 290.94 290.94 0 0 1-30 15.5c-5.649 7.485-12.649 13.318-21 17.5a7.293 7.293 0 0 0-2 3 68.694 68.694 0 0 0-14 7 137.156 137.156 0 0 1-18.5 6 370.885 370.885 0 0 1-39.5 5c-12.817-1.659-25.65-3.326-38.5-5a148.541 148.541 0 0 0-27.5-8l-2-2a5826.332 5826.332 0 0 0-58.5-2 208.176 208.176 0 0 0-29.5-6 98.739 98.739 0 0 1-22-10 63.614 63.614 0 0 1-13-4 205.88 205.88 0 0 0-13.5-2 1061.04 1061.04 0 0 0-48.5-18 427.619 427.619 0 0 1-36-23.5c-3.341-3.7-6.674-7.366-10-11a12.992 12.992 0 0 1-1-5.5h-4a134.909 134.909 0 0 1-9-20 93.297 93.297 0 0 0-3-16c.318-1.147.984-1.981 2-2.5-1.124-.839-1.79-2.006-2-3.5a124.346 124.346 0 0 0 3-16 7.293 7.293 0 0 0 2-3 273.734 273.734 0 0 1-8-40c.29-1.544.956-2.877 2-4-2.605-2.589-2.605-5.089 0-7.5-1.184-1.18-1.85-2.68-2-4.5a1826.39 1826.39 0 0 1 6-34c2.388-7.969 5.388-15.469 9-22.5-1.28-9.823-.946-19.657 1-29.5a838.597 838.597 0 0 0 7-19c.65-13.284 4.983-25.117 13-35.5a12.992 12.992 0 0 0 1-5.5h4a82.463 82.463 0 0 1 5-10h3c1.257-3.847 3.924-6.18 8-7v-3c4.257-.868 7.924-2.868 11-6a1006.75 1006.75 0 0 0 14-6 104.781 104.781 0 0 0 10-2l2-2a202.523 202.523 0 0 1 42-3v-3l10-2v-3a134.496 134.496 0 0 1 14-2.5c2.693-2.316 5.859-3.816 9.5-4.5a70.936 70.936 0 0 1 13.5-1 9.86 9.86 0 0 1 1-6c3.187-5.658 6.854-10.825 11-15.5 2.932-.295 4.932-1.795 6-4.5 8.91-6.405 18.743-10.738 29.5-13 1.03-.336 1.53-1.003 1.5-2Z"/><path style="opacity:1" fill="#f77878" d="M469.5 286.5c-.983 1.35-2.316 2.35-4 3 19.496.667 38.829 1.333 58 2-21.027.655-41.694-.012-62-2a28.799 28.799 0 0 1 8-3Z"/><path style="opacity:1" fill="#fdd9d9" d="M403.5 279.5c-1.933 2.849-4.599 4.849-8 6a400.778 400.778 0 0 0-1 40h3c-1.068.934-2.401 1.268-4 1-.167-14.004 0-28.004.5-42 1.878-.553 3.378-1.553 4.5-3a16.339 16.339 0 0 1 5-2Z"/><path style="opacity:1" fill="#f98d8c" d="M398.5 281.5c-1.122 1.447-2.622 2.447-4.5 3a881.746 881.746 0 0 0-.5 42c1.599.268 2.932-.066 4-1l6-2c-2.688 3.499-6.354 5.165-11 5-.167-15.004 0-30.004.5-45a18.155 18.155 0 0 1 5.5-2Z"/><path style="opacity:1" fill="#fbaead" d="M414.5 274.5c-2.832 3.255-6.499 4.922-11 5a105.78 105.78 0 0 1 11-5Z"/><path style="opacity:1" fill="#fbadac" d="M504.5 271.5c-3.682 2.264-7.682 3.93-12 5 3.288-3.141 7.288-4.808 12-5Z"/><path style="opacity:1" fill="#fa8c8a" d="M518.5 265.5c-3.471 2.73-7.471 4.396-12 5 3.492-2.401 7.492-4.067 12-5Z"/><path style="opacity:1" fill="#fba4a2" d="M427.5 256.5a71.558 71.558 0 0 0 14 4c.412 2.473-.588 3.806-3 4 1.062-1.075 1.062-2.075 0-3-3.942-1.33-7.608-2.996-11-5Z"/><path style="opacity:1" fill="#f77272" d="M540.5 232.5h1c-24.98 1.826-50.314 2.66-76 2.5.556.383.889.883 1 1.5h-2a43.836 43.836 0 0 0-1-2c25.83-.667 51.497-1.333 77-2Z"/><path style="opacity:1" fill="#faaeae" d="M540.5 232.5c-25.503.667-51.17 1.333-77 2 .363.683.696 1.35 1 2-1.884-.212-3.217-1.212-4-3 26.658-1 53.325-1.333 80-1Z"/><path style="opacity:1" fill="#fefdfd" d="M393.5 204.5h147v28c-26.675-.333-53.342 0-80 1 .783 1.788 2.116 2.788 4 3h2a203.72 203.72 0 0 0 21 8.5 64.735 64.735 0 0 1 9 6 135.63 135.63 0 0 1 25 10c.951.718 1.117 1.551.5 2.5a19.602 19.602 0 0 0-3.5 2c-4.508.933-8.508 2.599-12 5-.342.838-1.008 1.172-2 1-4.712.192-8.712 1.859-12 5a206.571 206.571 0 0 1-23 10 28.799 28.799 0 0 0-8 3c-.904.709-1.237 1.709-1 3h63v27h-97a9.86 9.86 0 0 0-1-6c-.607.124-.94.457-1 1a5.727 5.727 0 0 1-3 1 33.691 33.691 0 0 1-9 2v3c-2.053-.098-3.72.569-5 2l-4 1-6 2h-3a400.778 400.778 0 0 1 1-40c3.401-1.151 6.067-3.151 8-6 4.501-.078 8.168-1.745 11-5a51.796 51.796 0 0 0 17-8.5 52.56 52.56 0 0 1 7-1.5c2.412-.194 3.412-1.527 3-4a71.558 71.558 0 0 1-14-4 753.56 753.56 0 0 0-29-13c-1.399-1.39-3.066-2.39-5-3v-36Z"/><path style="opacity:1" fill="#fbb4b4" d="M393.5 204.5c48.83-.999 97.83-1.332 147-1 .994 9.486 1.327 19.152 1 29h-1v-28h-147Z"/><path style="opacity:1" fill="#f76463" d="M392.5 202.5c49.503-.332 98.836.001 148 1-49.17-.332-98.17.001-147 1v36c-1.33-5.795-1.996-11.962-2-18.5.019-6.577.352-13.077 1-19.5Z"/><path style="opacity:1" fill="#f6383a" d="M392.5 202.5a199.912 199.912 0 0 0-1 19.5c.004 6.538.67 12.705 2 18.5 1.934.61 3.601 1.61 5 3-2.549.113-4.882-.554-7-2a613.783 613.783 0 0 1-1.5-35 51.882 51.882 0 0 0-4.5 9c-2.602.935-4.602 2.602-6 5-5.244 8.812-9.077 18.146-11.5 28a290.332 290.332 0 0 1-9 21 864.794 864.794 0 0 0-9 8c-.394 4.412.106 8.745 1.5 13 6.722 5.47 11.056 12.47 13 21a228.793 228.793 0 0 1-1 49 26.091 26.091 0 0 0-3.5 5c-3.894 13.88-4.394 27.88-1.5 42a472 472 0 0 1-7 17.5c-.171 3.792.662 7.292 2.5 10.5.345 5.309.511 10.475.5 15.5a86.399 86.399 0 0 1-8.5 13.5 49.073 49.073 0 0 0-3.5 13h-3a194.304 194.304 0 0 0-11.5 30c-1.165 8.664.502 16.664 5 24 .667 1.333.667 2.667 0 4-10.316 14.142-23.483 17.642-39.5 10.5a45.2 45.2 0 0 1-9-10.5c-6.983-3.934-12.15-9.6-15.5-17-3.3-10.585-7.633-20.585-13-30-3.79.952-5.956 3.285-6.5 7-3.772 2.518-7.938 4.518-12.5 6-.343 9.21-3.51 17.21-9.5 24a1842.46 1842.46 0 0 1-7.5 5c-24.202-6.275-47.368-14.775-69.5-25.5-15.57-14.594-26.737-32.094-33.5-52.5a438.147 438.147 0 0 1-8-32c-1.926-9.878.407-18.545 7-26a217.46 217.46 0 0 0-4-45c-7.149-7.565-9.482-16.565-7-27a367.686 367.686 0 0 1 5.5-21.5c-1.763-10.349-1.096-20.516 2-30.5 3.61-5.445 8.11-10.112 13.5-14a152.241 152.241 0 0 1 16-30c6.203-6.185 13.703-9.685 22.5-10.5a302.928 302.928 0 0 1 23-27.5 247.17 247.17 0 0 1 14-12.5c9.614-2.274 19.281-2.607 29-1a1638.81 1638.81 0 0 0 6.5 4.5 128.127 128.127 0 0 0 10.5-8.5c12.215-5.362 23.215-3.529 33 5.5a244.432 244.432 0 0 0 9 15 347.123 347.123 0 0 0 21-10.5l9-1.5a23.711 23.711 0 0 0 10 .5 870.208 870.208 0 0 1 23-14l10.5-2.5a39.448 39.448 0 0 0 10.5 2.5c2.345 2.202 5.011 3.702 8 4.5 0 3.333 1.667 5 5 5a133.635 133.635 0 0 0 4 15.5 68.076 68.076 0 0 1-3 9.5 11.637 11.637 0 0 0 5 2Z"/><path style="opacity:1" fill="#f99293" d="M124.5 299.5a634.975 634.975 0 0 0-5 17c.39-3.339.89-6.673 1.5-10 .743-2.692 1.91-5.025 3.5-7Z"/><path style="opacity:1" fill="#fbbebe" d="M236.5 308.5c.342-.838 1.008-1.172 2-1h114v6c-.961 1.765-1.295 3.765-1 6l-2 7c.199-6.059.866-12.059 2-18h-115Z"/><path style="opacity:1" fill="#f88081" d="M238.5 307.5a3305.294 3305.294 0 0 1 115-1c.302 2.559-.032 4.893-1 7v-6h-114Z"/><path style="opacity:1" fill="#fa908f" d="M192.5 294.5v3c-2.556 1.202-4.889 2.869-7 5 1.411-3.497 3.744-6.164 7-8Z"/><path style="opacity:1" fill="#fa9191" d="M218.5 278.5a174.69 174.69 0 0 1-13 5.5 105.353 105.353 0 0 1-10 7.5c5.76-7.495 13.426-11.828 23-13Z"/><path style="opacity:1" fill="#f76365" d="M327.5 272.5a20.69 20.69 0 0 0-1 5c-36.024-.307-72.024.026-108 1 0-.667.333-1 1-1 35.461-.654 70.794-1.321 106-2-.073-1.527.594-2.527 2-3Z"/><path style="opacity:1" fill="#fbbebf" d="M325.5 275.5c-35.206.679-70.539 1.346-106 2 34.984-1.993 70.318-2.66 106-2Z"/><path style="opacity:1" fill="#faa4a5" d="M332.5 264.5c-.883 3.204-2.55 5.871-5 8 .883-3.204 2.55-5.871 5-8Z"/><path style="opacity:1" fill="#faa5a6" d="M336.5 257.5c-.498 2.826-1.831 5.16-4 7 .579-2.831 1.912-5.164 4-7Z"/><path style="opacity:1" fill="#fdc5c5" d="M151.5 249.5c-1.109 4.61-3.609 8.277-7.5 11a164.108 164.108 0 0 1-12.5 21c1.98-4.656 3.98-9.323 6-14 2.918-1.419 4.418-3.752 4.5-7 2.73-4.184 5.896-7.85 9.5-11Z"/><path style="opacity:1" fill="#faa5a6" d="M155.5 244.5c-.58 2.249-1.913 3.915-4 5 .58-2.249 1.913-3.915 4-5Z"/><path style="opacity:1" fill="#fcb0b0" d="M183.5 221.5a34.832 34.832 0 0 0-7 7c-5.564 2.578-10.564 5.911-15 10 5.82-7.582 13.153-13.249 22-17Z"/><path style="opacity:1" fill="#faa3a3" d="M356.5 225.5c-1.309 4.621-3.642 8.621-7 12a53.615 53.615 0 0 1 7-12Z"/><path style="opacity:1" fill="#fefefd" d="M364.5 213.5c-1.66 4.649-4.327 8.649-8 12a53.615 53.615 0 0 0-7 12c-1.193 3.724-3.359 6.724-6.5 9a29.102 29.102 0 0 0-4 9c-.708.881-1.542 1.547-2.5 2-2.088 1.836-3.421 4.169-4 7-2.45 2.129-4.117 4.796-5 8-1.406.473-2.073 1.473-2 3-35.682-.66-71.016.007-106 2-.667 0-1 .333-1 1-9.574 1.172-17.24 5.505-23 13-2 0-3 1-3 3-3.256 1.836-5.589 4.503-7 8-2.297 2.123-3.63 4.79-4 8-4.524 6.536-7.191 13.869-8 22-1.329 5.124-1.995 10.624-2 16.5.001 5.677.334 11.177 1 16.5a95.317 95.317 0 0 1 4 15.5c4.515 9.187 11.182 16.52 20 22l6 1.5v1c13.483 1.333 27.317 1.999 41.5 2 14.004 0 27.837-.333 41.5-1 1.658-6.765 2.658-13.765 3-21v-9c1.157-2.773 1.824-5.773 2-9a2063.699 2063.699 0 0 1-91-3l1-2c3.073-2.774 5.406-6.107 7-10 2.45-2.129 4.117-4.796 5-8 3.332-4.989 6.666-9.989 10-15 2.087-1.085 3.42-2.751 4-5 2.744-5.779 6.077-11.113 10-16h115a116.203 116.203 0 0 0-2 18 641.253 641.253 0 0 0-3 32c-1.098 6.479-1.765 13.146-2 20v2c-1.604 4.4-2.271 9.066-2 14v1c-.722.418-1.222 1.084-1.5 2a1697.127 1697.127 0 0 0-1.5 22v1c-.79 1.109-1.29 2.442-1.5 4a455.161 455.161 0 0 0-2.5 30c-.617.111-1.117.444-1.5 1a97.783 97.783 0 0 0-2.5 19c-46.001.167-92.001 0-138-.5-3.714-.32-7.381-.82-11-1.5-14.012-3.601-25.846-10.934-35.5-22-10.189-12.497-18.022-26.163-23.5-41a102.392 102.392 0 0 0-4-15 418.778 418.778 0 0 1-1.5-15c-.383-.556-.883-.889-1.5-1a363.156 363.156 0 0 1 3-62 634.975 634.975 0 0 1 5-17 48.25 48.25 0 0 1 7-18 164.108 164.108 0 0 0 12.5-21c3.891-2.723 6.391-6.39 7.5-11 2.087-1.085 3.42-2.751 4-5 1.715-2.382 3.715-4.382 6-6 4.436-4.089 9.436-7.422 15-10a34.832 34.832 0 0 1 7-7l4-2a302.446 302.446 0 0 1 28-9.5 116.123 116.123 0 0 1 13-2c45.665-.5 91.332-.667 137-.5a19.22 19.22 0 0 1-1 6Z"/><path style="opacity:1" fill="#fee7e7" d="M228.5 206.5c46.679-.662 93.012.005 139 2-.453 2.065-1.453 3.732-3 5a19.22 19.22 0 0 0 1-6c-45.668-.167-91.335 0-137 .5a116.123 116.123 0 0 0-13 2 302.446 302.446 0 0 0-28 9.5c9.279-6.257 19.612-10.257 31-12a34.163 34.163 0 0 0 10-1Z"/><path style="opacity:1" fill="#fbc1c1" d="M228.5 206.5c23.164-.667 46.498-1 70-1 23.676 0 47.01.667 70 2 0 .667-.333 1-1 1-45.988-1.995-92.321-2.662-139-2Z"/><path style="opacity:1" fill="#f86e70" d="M368.5 207.5c-22.99-1.333-46.324-2-70-2-23.502 0-46.836.333-70 1a34.163 34.163 0 0 1-10 1 547.49 547.49 0 0 1 9-2.5 5038.73 5038.73 0 0 1 142 0c1.383 1.461 1.049 2.294-1 2.5Z"/><path style="opacity:1" fill="#fccece" d="M461.5 289.5c20.306 1.988 40.973 2.655 62 2h1c.327 9.848-.006 19.514-1 29a2352.52 2352.52 0 0 1-97-1h97v-27h-63c-.237-1.291.096-2.291 1-3Z"/><path style="opacity:1" fill="#f97774" d="M421.5 315.5a111.46 111.46 0 0 1-8 5.5 10.098 10.098 0 0 1-6 1.5c1.28-1.431 2.947-2.098 5-2v-3a33.691 33.691 0 0 0 9-2Z"/><path style="opacity:1" fill="#f98686" d="M424.5 314.5c.06-.543.393-.876 1-1a9.86 9.86 0 0 1 1 6 2352.52 2352.52 0 0 0 97 1 2401.328 2401.328 0 0 1-98 1c.302-2.559-.032-4.893-1-7Z"/><path style="opacity:1" fill="#f64847" d="M524.5 291.5c1.328 4.788 1.995 9.954 2 15.5a131.589 131.589 0 0 1-1 16l-50 .5c-17.014 0-33.68-.667-50-2 32.838.332 65.504-.002 98-1 .994-9.486 1.327-19.152 1-29Z"/><path style="opacity:1" fill="#fa9b9c" d="M226.5 324.5c-.58 2.249-1.913 3.915-4 5 .58-2.249 1.913-3.915 4-5Z"/><path style="opacity:1" fill="#f87e7e" d="M351.5 319.5a419.478 419.478 0 0 1-3.5 36c-.232 1.237-.732 2.237-1.5 3a641.253 641.253 0 0 1 3-32l2-7Z"/><path style="opacity:1" fill="#f86767" d="M181.5 310.5a277.568 277.568 0 0 0-9 28 19.22 19.22 0 0 1 1-6c.809-8.131 3.476-15.464 8-22Z"/><path style="opacity:.196" fill="#f5201e" d="M3286.5 378.5c7.5-11.672 6.5-22.506-3-32.5-11.18-6.079-23.18-8.912-36-8.5 14.81-3.257 28.31-.257 40.5 9a114.003 114.003 0 0 1 6.5 16.5c.06 6.693-2.6 11.86-8 15.5Z"/><path style="opacity:1" fill="#fcb6b5" d="M413.5 340.5a70.612 70.612 0 0 0-23 0c7.013-3.197 14.346-3.697 22-1.5.556.383.889.883 1 1.5Z"/><path style="opacity:1" fill="#f99696" d="M504.5 340.5a361.608 361.608 0 0 1 38-1c.295 2.235-.039 4.235-1 6v-5h-37Z"/><path style="opacity:1" fill="#fefcfc" d="M413.5 340.5c6.576 5.07 12.743 10.737 18.5 17 18.972 20.307 37.972 40.641 57 61 .383-.556.883-.889 1.5-1a610.508 610.508 0 0 0 3.5-8c.758-8.368 1.592-16.701 2.5-25v-2c3.075-6.874 4.575-14.207 4.5-22a283.717 283.717 0 0 0 4.5-18 307.162 307.162 0 0 1 35-1v4a2068.61 2068.61 0 0 1-10 63v2c-1.695 2.232-2.862 4.899-3.5 8a390.931 390.931 0 0 1-3.5 27 76.142 76.142 0 0 0-3.5 17 104.484 104.484 0 0 1-7.5 9c-8.688 4.933-18.022 6.266-28 4-4.307-3.972-8.641-7.972-13-12-2.601-4.271-5.934-7.937-10-11a523.398 523.398 0 0 0-42-44c-1.93-3.6-4.597-6.6-8-9-.508-1.733-1.341-2.066-2.5-1l-1.5 6a182.096 182.096 0 0 0-4 25c.172.992-.162 1.658-1 2-1.329 8.297-2.662 16.63-4 25v2c-1.7 5.354-3.033 11.02-4 17h-37a54.968 54.968 0 0 0 1-12 5.727 5.727 0 0 1 1-3c2.896-7.621 4.229-15.621 4-24a20.69 20.69 0 0 1 1-5 1181.215 1181.215 0 0 0 12-68v-3c2.389-6.41 6.056-12.076 11-17a6.547 6.547 0 0 1 3-3 70.612 70.612 0 0 1 23 0Z"/><path style="opacity:1" fill="#fdcbca" d="M504.5 340.5h37v5h-1v-4a307.162 307.162 0 0 0-35 1 283.717 283.717 0 0 1-4.5 18c.075 7.793-1.425 15.126-4.5 22a255.663 255.663 0 0 1 8-42Z"/><path style="opacity:1" fill="#fa9c9d" d="M212.5 344.5c-.883 3.204-2.55 5.871-5 8 .883-3.204 2.55-5.871 5-8Z"/><path style="opacity:.078" fill="#f81b19" d="M2496.5 338.5a119.04 119.04 0 0 0-14 5.5 32.09 32.09 0 0 0-5.5 7.5c-2.87 10.275-1.7 19.942 3.5 29-3.69-.195-5.53-2.195-5.5-6-1.45-8.118-1.45-16.451 0-25 .33.333.67.667 1 1 .15-2.461 1.31-4.794 3.5-7a72.554 72.554 0 0 1 10-5.5c2.54-.796 4.87-.629 7 .5Z"/><path style="opacity:1" fill="#f99796" d="M387.5 343.5c-4.944 4.924-8.611 10.59-11 17a21.117 21.117 0 0 1 3.5-10c1.736-3.239 4.236-5.573 7.5-7Z"/><path style="opacity:1" fill="#f99899" d="M173.5 332.5a19.22 19.22 0 0 0-1 6v27c-.666-5.323-.999-10.823-1-16.5.005-5.876.671-11.376 2-16.5Z"/><path style="opacity:.333" fill="#f42220" d="M1874.5 301.5c26.46 14.601 39.79 36.935 40 67-2.19-1.782-2.52-3.948-1-6.5l-1.5-1.5a257.823 257.823 0 0 1-4-18 120.32 120.32 0 0 1-8-17c-1.01-.837-2.18-1.17-3.5-1a4.949 4.949 0 0 0-.5-3c-3.03-1.529-5.2-3.862-6.5-7-3.76-2.063-7.43-4.23-11-6.5-2.23-1.638-3.57-3.805-4-6.5Z"/><path style="opacity:1" fill="#fb9f9e" d="M207.5 352.5c-1.594 3.893-3.927 7.226-7 10 1.369-4.095 3.703-7.428 7-10Z"/><path style="opacity:.101" fill="#f32220" d="M3147.5 313.5c.42.765.76 1.598 1 2.5-3.1 7.046-6.1 14.212-9 21.5-5.75 30.812-.75 59.478 15 86h3c.1 2.203.77 4.203 2 6-1.87-.359-3.37-1.359-4.5-3-17.69-23.651-24.36-50.318-20-80 1.75-12.098 5.91-23.098 12.5-33Z"/><path style="opacity:1" fill="#fcdddd" d="M199.5 364.5a2063.699 2063.699 0 0 0 91 3c-31.018.659-61.685-.008-92-2 0-.667.333-1 1-1Z"/><path style="opacity:.235" fill="#f8211f" d="M1493.5 331.5a825.62 825.62 0 0 1-22 61 5.56 5.56 0 0 0-1-3 620.789 620.789 0 0 1 21-59c.68.363 1.35.696 2 1Z"/><path style="opacity:1" fill="#f87c7e" d="M198.5 365.5c30.315 1.992 60.982 2.659 92 2-.176 3.227-.843 6.227-2 9v-8h-92c-.215-1.679.452-2.679 2-3Z"/><path style="opacity:.141" fill="#f2211f" d="M1506.5 348.5c1-.086 1.83.248 2.5 1a48.726 48.726 0 0 0 5 11 565.173 565.173 0 0 0 10 32c.8 2.867.63 5.534-.5 8-5.66-17.297-11.33-34.631-17-52Z"/><path style="opacity:.137" fill="#f62b2b" d="M2689.5 185.5c.18 87.165.18 173.165 0 258 .68 2.047 1.85 3.714 3.5 5 25.18-.662 50.35-1.329 75.5-2 .67-47.901 1.34-95.734 2-143.5-1.6-2.64-1.27-4.807 1-6.5.17 50.668 0 101.334-.5 152a1113.083 1113.083 0 0 1-81.5.5c-1.52-1.897-2.18-4.064-2-6.5.67-85.667 1.33-171.333 2-257Z"/><path style="opacity:.011" fill="#ff0908" d="M2391.5 361.5a2272.36 2272.36 0 0 1 4 23.5c-.23.399-.56.565-1 .5-.77-.763-1.27-1.763-1.5-3-1-6.967-1.5-13.967-1.5-21Z"/><path style="opacity:1" fill="#f87c7c" d="M346.5 358.5a128.507 128.507 0 0 1-.5 16c-.21 1.558-.71 2.891-1.5 4 .235-6.854.902-13.521 2-20Z"/><path style="opacity:1" fill="#f97876" d="M540.5 345.5h1c-2.074 21.45-5.74 42.45-11 63a2068.61 2068.61 0 0 0 10-63Z"/><path style="opacity:.059" fill="#f71d1b" d="M1352.5 366.5c1-.086 1.83.248 2.5 1 2.8 10.349 5.47 20.682 8 31 1.33 2.667 2.67 5.333 4 8a80.76 80.76 0 0 0 5.5 19c-.82.886-1.82 1.219-3 1a1252.04 1252.04 0 0 1-17-60Z"/><path style="opacity:.231" fill="#f62120" d="M1044.5 279.5c.14 14.461.14 28.961 0 43.5-.26 1.261-.93 2.261-2 3 1.88 25.4 8.54 49.4 20 72a73.57 73.57 0 0 0 12 16c-.33.333-.67.667-1 1 3.98 4.312 8.31 8.312 13 12-1.33.667-1.33 1.333 0 2a78.968 78.968 0 0 1 13 8c1.54 1.11 2.2 2.61 2 4.5a108.626 108.626 0 0 1-18-12.5c-28.07-28.991-42.23-63.825-42.5-104.5-.51-14.379.16-28.712 2-43 .28-.916.78-1.582 1.5-2Z"/><path style="opacity:1" fill="#f97a79" d="M116.5 378.5c.617.111 1.117.444 1.5 1 .411 5.019.911 10.019 1.5 15-.617-.111-1.117-.444-1.5-1a163.52 163.52 0 0 0-1.5-15Z"/><path style="opacity:1" fill="#f88485" d="M344.5 380.5c.138 4.914-.528 9.581-2 14-.271-4.934.396-9.6 2-14Z"/><path style="opacity:1" fill="#f87473" d="M411.5 399.5c3.403 2.4 6.07 5.4 8 9-3.403-2.4-6.07-5.4-8-9Z"/><path style="opacity:1" fill="#f99596" d="M288.5 385.5c-.342 7.235-1.342 14.235-3 21v-3a180.556 180.556 0 0 0 1.5-16c.278-.916.778-1.582 1.5-2Z"/><path style="opacity:1" fill="#f75659" d="M285.5 403.5v3a1766.94 1766.94 0 0 1-83-1v-1c27.868 1.648 55.534 1.315 83-1Z"/><path style="opacity:1" fill="#faa4a5" d="M202.5 405.5a1766.94 1766.94 0 0 0 83 1c-13.663.667-27.496 1-41.5 1-14.183-.001-28.017-.667-41.5-2Z"/><path style="opacity:1" fill="#f98f8f" d="M119.5 394.5a102.392 102.392 0 0 1 4 15c-2.491-4.521-3.825-9.521-4-15Z"/><path style="opacity:1" fill="#fdd0cf" d="M496.5 384.5a1347.802 1347.802 0 0 0-2.5 25 610.508 610.508 0 0 1-3.5 8 1038.243 1038.243 0 0 1 6-33Z"/><path style="opacity:1" fill="#f99495" d="M342.5 395.5c-.339 8.23-1.339 16.23-3 24 .452-7.331.952-14.665 1.5-22 .278-.916.778-1.582 1.5-2Z"/><path style="opacity:1" fill="#fb9d9b" d="M376.5 363.5a1181.215 1181.215 0 0 1-12 68 153.292 153.292 0 0 1 6.5-38 192.099 192.099 0 0 1 4-29c.383-.556.883-.889 1.5-1Z"/><path style="opacity:1" fill="#f97370" d="M407.5 404.5c.326 8.734-1.007 17.068-4 25a182.096 182.096 0 0 1 4-25Z"/><path style="opacity:1" fill="#fcafae" d="M530.5 410.5a381.168 381.168 0 0 1-7 35 390.931 390.931 0 0 0 3.5-27c.638-3.101 1.805-5.768 3.5-8Z"/><path style="opacity:1" fill="#faa5a5" d="M339.5 420.5c-.355 11.692-1.688 23.026-4 34a455.161 455.161 0 0 1 2.5-30c.21-1.558.71-2.891 1.5-4Z"/><path style="opacity:.223" fill="#f72625" d="M1638.5 362.5a1827.463 1827.463 0 0 1-25 86.5c-24.33.667-48.67.667-73 0a42.105 42.105 0 0 1-4.5-9.5c-1.8-5.202-3.3-10.535-4.5-16 2.21.523 3.71 1.856 4.5 4a411.519 411.519 0 0 0 5.5 19c22.23.672 44.4 1.338 66.5 2 1.09-.793 2.25-1.46 3.5-2 1.33-3.328 2.66-6.662 4-10a3.627 3.627 0 0 0-1-1.5 933.856 933.856 0 0 0 8.5-27.5c1.4-.726 2.23-1.893 2.5-3.5a154.39 154.39 0 0 0 1.5-10.5c2.43-6.534 3.93-13.034 4.5-19.5.75-1.487 1.59-1.654 2.5-.5.79-2.971 1.46-5.971 2-9 .42-1.256 1.25-1.923 2.5-2Z"/><path style="opacity:1" fill="#f96c68" d="M402.5 431.5a243.867 243.867 0 0 1-1.5 22c-.377 1.442-1.21 2.442-2.5 3 1.338-8.37 2.671-16.703 4-25Z"/><path style="opacity:1" fill="#f87a79" d="M461.5 452.5c4.066 3.063 7.399 6.729 10 11-4.066-3.063-7.399-6.729-10-11Z"/><path style="opacity:.196" fill="#f31d1c" d="M1211.5 454.5c-2.82 1.007-5.82 1.84-9 2.5a354.418 354.418 0 0 1-48 1c-5.58-.15-10.91-.983-16-2.5 4.95-.939 9.78-1.272 14.5-1 19.18 2.796 38.35 2.463 57.5-1 .61.124.94.457 1 1Z"/><path style="opacity:.197" fill="#f82220" d="M2514.5 455.5c-.76.768-1.76 1.268-3 1.5-15 1.947-30 1.947-45 0-4.21-.881-8.21-2.047-12-3.5.6-.639 1.43-.972 2.5-1a97.552 97.552 0 0 0 16 3c.33-.333.67-.667 1-1 11.13 2.651 22.29 2.651 33.5 0 2.38.137 4.72.471 7 1Z"/><path style="opacity:.118" fill="#f32220" d="M3184.5 448.5c6.21-.105 12.21 1.395 18 4.5 14.11 2.699 28.11 3.532 42 2.5v3c-12.03.205-24.03-.295-36-1.5-8.4-2.048-16.4-4.882-24-8.5Z"/><path style="opacity:1" fill="#fbabaa" d="M363.5 436.5c.229 8.379-1.104 16.379-4 24-.165-3.35.002-6.683.5-10a375.1 375.1 0 0 0 3.5-14Z"/><path style="opacity:1" fill="#fde4e5" d="M335.5 454.5a205.89 205.89 0 0 1-3 22c-46.68.293-93.347-.041-140-1h-4a13.94 13.94 0 0 1-6-3c3.619.68 7.286 1.18 11 1.5 45.999.5 91.999.667 138 .5a97.783 97.783 0 0 1 2.5-19c.383-.556.883-.889 1.5-1Z"/><path style="opacity:1" fill="#f98d8c" d="M398.5 458.5a114.08 114.08 0 0 1-3 18h-40c.769-4.486 1.769-8.82 3-13a54.968 54.968 0 0 1-1 12h37c.967-5.98 2.3-11.646 4-17Z"/><path style="opacity:1" fill="#faadae" d="M192.5 475.5c46.653.959 93.32 1.293 140 1v1c-45.335.167-90.668 0-136-.5-1.558-.21-2.891-.71-4-1.5Z"/><path style="opacity:1" fill="#fcbdbd" d="M512.5 471.5c-.453.958-1.119 1.792-2 2.5-7.625 3.315-15.625 4.315-24 3-.916-.278-1.582-.778-2-1.5 9.978 2.266 19.312.933 28-4Z"/><path style="opacity:1" fill="#f76264" d="M188.5 475.5h4c1.109.79 2.442 1.29 4 1.5 45.332.5 90.665.667 136 .5a3177.259 3177.259 0 0 1-138 .5c-2.352-.24-4.352-1.073-6-2.5Z"/><path style="opacity:.965" fill="#f63737" d="M2764.5 547.5c17.18-1.165 31.85 4.168 44 16a268.258 268.258 0 0 1-13.5 14c-10.64-10.783-23.14-13.616-37.5-8.5-13.09 6.324-20.09 16.824-21 31.5 3.89 26.045 18.89 36.878 45 32.5 9.63-3.792 15.96-10.625 19-20.5a241.063 241.063 0 0 0-31-1v-16h50c3.38 26.76-7.29 45.26-32 55.5-26.66 6.564-47.82-1.27-63.5-23.5-12.21-25.94-8.04-48.773 12.5-68.5 8.5-6.104 17.83-9.937 28-11.5Z"/><path style="opacity:.942" fill="#f63737" d="M2361.5 549.5c12.32-1.509 17.82 3.824 16.5 16-5.51 8.863-12.51 10.196-21 4-4.46-8.168-2.96-14.835 4.5-20Z"/><path style="opacity:.958" fill="#f63737" d="M2659.5 549.5c7.07-.339 14.07.161 21 1.5a3.92 3.92 0 0 1 1 2 367.29 367.29 0 0 1-5 14.5c-3.55.119-7.22.285-11 .5-4.32 3.8-5.99 8.633-5 14.5h17v16h-17v52h-19v-52h-12v-16h12c-2.51-15.997 3.49-26.997 18-33Z"/><path style="opacity:.983" fill="#f53737" d="M1631.5 550.5h75v18h-28v82h-19v-82h-28v-18Z"/><path style="opacity:.976" fill="#f63737" d="M1717.5 550.5h19c-.17 13.004 0 26.004.5 39 10.7-10.944 22.87-12.777 36.5-5.5 5.61 4.487 8.78 10.32 9.5 17.5.5 16.33.67 32.663.5 49h-19c.17-14.337 0-28.671-.5-43-3.63-9.768-10.13-12.268-19.5-7.5-3.03 2.559-5.2 5.726-6.5 9.5a333.972 333.972 0 0 0-1.5 41h-19v-100Z"/><path style="opacity:.967" fill="#f63737" d="M1936.5 550.5c7.92-.315 15.75.018 23.5 1 12.47 32.92 24.64 65.92 36.5 99h-22a139.842 139.842 0 0 0-8-23.5 228.672 228.672 0 0 0-37 .5 880.577 880.577 0 0 1-8 22.5c-7.33.667-14.67.667-22 0a3550.934 3550.934 0 0 0 37-99.5Zm11 23a1975.42 1975.42 0 0 1 13 34.5c-7.99.5-15.99.666-24 .5a749.208 749.208 0 0 0 11-35Z"/><path style="opacity:.976" fill="#f63737" d="M2139.5 550.5h19c-.17 13.004 0 26.004.5 39 10.7-10.944 22.87-12.777 36.5-5.5 5.61 4.487 8.78 10.32 9.5 17.5.5 16.33.67 32.663.5 49h-19c.17-14.337 0-28.671-.5-43-3.63-9.768-10.13-12.268-19.5-7.5-3.03 2.559-5.2 5.726-6.5 9.5a333.972 333.972 0 0 0-1.5 41h-19v-100Z"/><path style="opacity:.954" fill="#f63737" d="M2090.5 561.5h19v21h17v16h-17c-.17 10.339 0 20.672.5 31a11.477 11.477 0 0 0 3.5 4.5c3.7.579 7.37.412 11-.5a94.91 94.91 0 0 0 4 15c-.32 1.147-.98 1.981-2 2.5-11.12 4.323-21.28 2.823-30.5-4.5-2.48-3.289-4.14-6.956-5-11-.5-12.329-.67-24.662-.5-37h-12v-16h12v-21ZM2398.5 561.5h19v21h17v16h-17c-.17 10.339 0 20.672.5 31a11.477 11.477 0 0 0 3.5 4.5c3.7.579 7.37.412 11-.5a94.91 94.91 0 0 0 4 15c-.32 1.147-.98 1.981-2 2.5-11.12 4.323-21.28 2.823-30.5-4.5-2.48-3.289-4.14-6.956-5-11-.5-12.329-.67-24.662-.5-37h-12v-16h12v-21Z"/><path style="opacity:.964" fill="#f63737" d="M1825.5 579.5c26.96.295 39.96 13.962 39 41-17.34-.167-34.67 0-52 .5 4.63 13.149 13.63 17.483 27 13a106.28 106.28 0 0 0 9-7.5 79.032 79.032 0 0 1 15 7.5c-13.56 19.659-31.22 24.325-53 14-16.66-13.224-20.83-29.724-12.5-49.5 6.36-10.542 15.52-16.875 27.5-19Zm2 16c8.57-.389 14.57 3.278 18 11a241.063 241.063 0 0 1-31 1c1.78-6.778 6.11-10.778 13-12Z"/><path style="opacity:.961" fill="#f63737" d="M2247.5 579.5c23.5-.991 37.33 10.009 41.5 33 1.1 22.565-9.4 36.065-31.5 40.5-25.29.876-39.29-11.291-42-36.5 1.48-20.47 12.15-32.803 32-37Zm1 18c16.1.606 22.93 8.939 20.5 25-4.94 12.093-13.44 15.593-25.5 10.5-7.96-6.923-10.13-15.423-6.5-25.5 2.82-4.661 6.65-7.995 11.5-10Z"/><path style="opacity:.979" fill="#f63737" d="M2333.5 579.5c4.83-.334 9.33.666 13.5 3-.42 5.776-1.59 11.442-3.5 17-15.63-3.944-24.13 2.056-25.5 18a541.98 541.98 0 0 0-.5 33h-19v-68h18c-.16 3.018 0 6.018.5 9 3.89-6.349 9.39-10.349 16.5-12Z"/><path style="opacity:.961" fill="#f63737" d="M2582.5 579.5c23.5-.991 37.33 10.009 41.5 33 1.1 22.565-9.4 36.065-31.5 40.5-25.29.876-39.29-11.291-42-36.5 1.48-20.47 12.15-32.803 32-37Zm1 18c16.1.606 22.93 8.939 20.5 25-4.94 12.093-13.44 15.593-25.5 10.5-7.96-6.923-10.13-15.423-6.5-25.5 2.82-4.661 6.65-7.995 11.5-10Z"/><path style="opacity:.956" fill="#f63737" d="M2853.5 579.5c10.89-.801 20.89 1.699 30 7.5 3.68 4.2 6.18 9.033 7.5 14.5.5 16.33.67 32.663.5 49h-19c.16-2.027 0-4.027-.5-6-11.16 10.496-23.32 11.663-36.5 3.5-11.44-11.727-11.77-23.727-1-36 11.75-7.083 24.08-8.25 37-3.5.88-6.661-2.12-10.828-9-12.5-8.06-1.134-14.73 1.366-20 7.5a182.34 182.34 0 0 1-13.5-9c-.67-.667-.67-1.333 0-2 6.64-7.401 14.81-11.735 24.5-13Zm0 41a59.76 59.76 0 0 1 19 2c-1.42 11.889-8.09 16.722-20 14.5-5.42-2.017-7.26-5.85-5.5-11.5 1.8-2.326 3.97-3.992 6.5-5Z"/><path style="opacity:.975" fill="#f63737" d="M2940.5 579.5c10.73-1.045 18.89 2.955 24.5 12 10.78-12.567 23.61-15.067 38.5-7.5 4.22 3.605 7.05 8.105 8.5 13.5 1.4 17.629 1.9 35.296 1.5 53h-20c.17-15.337 0-30.67-.5-46-6.33-8.986-13.33-9.32-21-1a56.807 56.807 0 0 0-3 8c-.5 12.996-.67 25.996-.5 39h-19c.17-14.337 0-28.671-.5-43-.79-6.457-4.46-9.79-11-10-7.18.848-11.52 4.848-13 12a333.972 333.972 0 0 0-1.5 41h-19v-68h18c-.16 2.687 0 5.354.5 8 4.58-5.862 10.41-9.528 17.5-11Z"/><path style="opacity:.964" fill="#f63737" d="M3055.5 579.5c26.96.295 39.96 13.962 39 41-17.34-.167-34.67 0-52 .5 4.63 13.149 13.63 17.483 27 13a106.28 106.28 0 0 0 9-7.5 79.032 79.032 0 0 1 15 7.5c-13.56 19.659-31.22 24.325-53 14-16.66-13.224-20.83-29.724-12.5-49.5 6.36-10.542 15.52-16.875 27.5-19Zm2 16c8.57-.389 14.57 3.278 18 11a241.063 241.063 0 0 1-31 1c1.78-6.778 6.11-10.778 13-12Z"/><path style="opacity:.979" fill="#f63737" d="M3139.5 579.5c4.83-.334 9.33.666 13.5 3-.42 5.776-1.59 11.442-3.5 17-15.63-3.944-24.13 2.056-25.5 18a541.98 541.98 0 0 0-.5 33h-19v-68h18c-.16 3.018 0 6.018.5 9 3.89-6.349 9.39-10.349 16.5-12Z"/><path style="opacity:.954" fill="#f63737" d="M3181.5 579.5c10.21-.595 19.54 1.905 28 7.5a41.198 41.198 0 0 1 6 9 128.02 128.02 0 0 1-16.5 7.5c-4.72-7.35-11.22-9.517-19.5-6.5-3.36 1.835-3.69 4.002-1 6.5a61.06 61.06 0 0 0 18 5.5c17.26 4.365 23.09 14.865 17.5 31.5-6.65 8.9-15.65 13.234-27 13-14.64.004-25.14-6.496-31.5-19.5a87.666 87.666 0 0 1 16.5-8.5c3.73 7.782 9.9 11.282 18.5 10.5 4.81-.466 6.98-2.966 6.5-7.5l-1.5-1.5a363.48 363.48 0 0 1-28-9c-8.59-5.588-11.42-13.421-8.5-23.5 4.97-8.894 12.47-13.894 22.5-15Z"/><path style="opacity:.964" fill="#f63737" d="M2001.5 582.5h19c-.17 14.67 0 29.337.5 44 1.56 6.124 5.56 9.124 12 9 7.52-1.185 12.19-5.519 14-13 .5-13.329.67-26.663.5-40h19v68h-18c.16-2.357 0-4.69-.5-7-10.75 10.936-22.91 12.77-36.5 5.5-5.36-4.219-8.53-9.719-9.5-16.5-.5-16.663-.67-33.33-.5-50Z"/><path style="opacity:1" fill="#f63737" d="M2356.5 582.5h20v68h-20v-68Z"/><path style="opacity:.965" fill="#f63737" d="M2440.5 583.5c7.15-1.155 14.49-1.322 22-.5a972.914 972.914 0 0 0 17 39.5 999.05 999.05 0 0 0 16-39 81.22 81.22 0 0 1 22-.5 2538.184 2538.184 0 0 0-42 97.5h-21c4.52-11.204 9.18-22.371 14-33.5-8.96-21.42-18.3-42.587-28-63.5Z"/></svg>