<svg xmlns="http://www.w3.org/2000/svg" xmlns:xlink="http://www.w3.org/1999/xlink" width="380" height="76" viewBox="0 0 378 76"><defs><clipPath id="b"><path d="M0 0h378v76H0z"/></clipPath><clipPath id="c"><path d="M0 0h378v76H0z"/></clipPath><clipPath id="d"><path d="M0 0h378v76H0z"/></clipPath><clipPath id="e"><path d="M0 0h378v76H0z"/></clipPath><clipPath id="f"><path d="M0 0h378v76H0z"/></clipPath><clipPath id="g"><path d="M0 0h378v76H0z"/></clipPath><clipPath id="h"><path d="M0 0h378v76H0z"/></clipPath><clipPath id="i"><path d="M0 0h378v76H0z"/></clipPath><clipPath id="j"><path d="M0 0h378v76H0z"/></clipPath><clipPath id="k"><path d="M0 0h378v76H0z"/></clipPath><clipPath id="l"><path d="M0 0h378v76H0z"/></clipPath><clipPath id="m"><path d="M0 0h378v76H0z"/></clipPath><clipPath id="n"><path d="M0 0h378v76H0z"/></clipPath><clipPath id="o"><path d="M0 0h378v76H0z"/></clipPath><clipPath id="p"><path d="M0 0h378v76H0z"/></clipPath><clipPath id="q"><path d="M0 0h378v76H0z"/></clipPath><clipPath id="r"><path d="M0 0h378v76H0z"/></clipPath><clipPath id="s"><path d="M0 0h378v76H0z"/></clipPath><clipPath id="t"><path d="M0 0h378v76H0z"/></clipPath><clipPath id="u"><path d="M0 0h378v76H0z"/></clipPath><clipPath id="v"><path d="M0 0h378v76H0z"/></clipPath><clipPath id="w"><path d="M0 0h378v76H0z"/></clipPath><clipPath id="x"><path d="M0 0h378v76H0z"/></clipPath><clipPath id="y"><path d="M0 0h378v76H0z"/></clipPath><clipPath id="z"><path d="M0 0h378v76H0z"/></clipPath><clipPath id="A"><path d="M0 0h378v76H0z"/></clipPath><clipPath id="B"><path d="M0 0h378v76H0z"/></clipPath><clipPath id="C"><path d="M0 0h378v76H0z"/></clipPath><clipPath id="D"><path d="M0 0h378v76H0z"/></clipPath><clipPath id="E"><path d="M0 0h378v76H0z"/></clipPath><clipPath id="F"><path d="M0 0h378v76H0z"/></clipPath><clipPath id="G"><path d="M0 0h378v76H0z"/></clipPath><clipPath id="H"><path d="M0 0h378v76H0z"/></clipPath><clipPath id="I"><path d="M0 0h378v76H0z"/></clipPath><clipPath id="J"><path d="M0 0h378v76H0z"/></clipPath><clipPath id="K"><path d="M0 0h378v76H0z"/></clipPath><clipPath id="L"><path d="M0 0h378v76H0z"/></clipPath><clipPath id="M"><path d="M0 0h378v76H0z"/></clipPath><clipPath id="N"><path d="M0 0h378v76H0z"/></clipPath><clipPath id="O"><path d="M0 0h378v76H0z"/></clipPath><clipPath id="P"><path d="M0 0h378v76H0z"/></clipPath><clipPath id="Q"><path d="M0 0h378v76H0z"/></clipPath><clipPath id="R"><path d="M0 0h378v76H0z"/></clipPath><clipPath id="S"><path d="M0 0h378v76H0z"/></clipPath><clipPath id="T"><path d="M0 0h378v76H0z"/></clipPath><clipPath id="U"><path d="M0 0h378v76H0z"/></clipPath><clipPath id="V"><path d="M0 0h378v76H0z"/></clipPath><clipPath id="W"><path d="M0 0h378v76H0z"/></clipPath><clipPath id="X"><path d="M0 0h378v76H0z"/></clipPath><clipPath id="Y"><path d="M0 0h378v76H0z"/></clipPath><clipPath id="Z"><path d="M0 0h378v76H0z"/></clipPath><clipPath id="aa"><path d="M0 0h378v76H0z"/></clipPath><clipPath id="ab"><path d="M0 0h378v76H0z"/></clipPath><clipPath id="ac"><path d="M0 0h378v76H0z"/></clipPath><clipPath id="ad"><path d="M0 0h378v76H0z"/></clipPath><clipPath id="ae"><path d="M0 0h378v76H0z"/></clipPath><clipPath id="af"><path d="M0 0h378v76H0z"/></clipPath><clipPath id="ag"><path d="M0 0h378v76H0z"/></clipPath><clipPath id="ah"><path d="M0 0h378v76H0z"/></clipPath><clipPath id="ai"><path d="M0 0h378v76H0z"/></clipPath><clipPath id="aj"><path d="M0 0h378v76H0z"/></clipPath><clipPath id="ak"><path d="M0 0h378v76H0z"/></clipPath><clipPath id="al"><path d="M0 0h378v76H0z"/></clipPath><clipPath id="am"><path d="M0 0h378v76H0z"/></clipPath><clipPath id="an"><path d="M0 0h378v76H0z"/></clipPath><clipPath id="ao"><path d="M0 0h378v76H0z"/></clipPath><clipPath id="ap"><path d="M0 0h378v76H0z"/></clipPath><clipPath id="aq"><path d="M0 0h378v76H0z"/></clipPath><clipPath id="ar"><path d="M0 0h378v76H0z"/></clipPath><clipPath id="as"><path d="M0 0h378v76H0z"/></clipPath><clipPath id="at"><path d="M0 0h378v76H0z"/></clipPath><clipPath id="au"><path d="M0 0h378v76H0z"/></clipPath><clipPath id="av"><path d="M0 0h378v76H0z"/></clipPath><clipPath id="aw"><path d="M0 0h378v76H0z"/></clipPath><clipPath id="ax"><path d="M0 0h378v76H0z"/></clipPath><clipPath id="ay"><path d="M0 0h378v76H0z"/></clipPath><mask id="aA"><g filter="url(#a)"><path style="fill:#000;fill-opacity:.960784;stroke:none" d="M0 0h378v76H0z"/></g></mask><mask id="aC"><g filter="url(#a)"><path style="fill:#000;fill-opacity:.235294;stroke:none" d="M0 0h378v76H0z"/></g></mask><mask id="aE"><g filter="url(#a)"><path style="fill:#000;fill-opacity:.968627;stroke:none" d="M0 0h378v76H0z"/></g></mask><mask id="aG"><g filter="url(#a)"><path style="fill:#000;fill-opacity:.972549;stroke:none" d="M0 0h378v76H0z"/></g></mask><mask id="aI"><g filter="url(#a)"><path style="fill:#000;fill-opacity:.972549;stroke:none" d="M0 0h378v76H0z"/></g></mask><mask id="aK"><g filter="url(#a)"><path style="fill:#000;fill-opacity:.976471;stroke:none" d="M0 0h378v76H0z"/></g></mask><mask id="aM"><g filter="url(#a)"><path style="fill:#000;fill-opacity:.968627;stroke:none" d="M0 0h378v76H0z"/></g></mask><mask id="aO"><g filter="url(#a)"><path style="fill:#000;fill-opacity:.968627;stroke:none" d="M0 0h378v76H0z"/></g></mask><mask id="aQ"><g filter="url(#a)"><path style="fill:#000;fill-opacity:.968627;stroke:none" d="M0 0h378v76H0z"/></g></mask><mask id="aS"><g filter="url(#a)"><path style="fill:#000;fill-opacity:.0823529;stroke:none" d="M0 0h378v76H0z"/></g></mask><mask id="aU"><g filter="url(#a)"><path style="fill:#000;fill-opacity:.207843;stroke:none" d="M0 0h378v76H0z"/></g></mask><mask id="aW"><g filter="url(#a)"><path style="fill:#000;fill-opacity:.0117647;stroke:none" d="M0 0h378v76H0z"/></g></mask><mask id="aY"><g filter="url(#a)"><path style="fill:#000;fill-opacity:.0196078;stroke:none" d="M0 0h378v76H0z"/></g></mask><mask id="ba"><g filter="url(#a)"><path style="fill:#000;fill-opacity:.164706;stroke:none" d="M0 0h378v76H0z"/></g></mask><mask id="bc"><g filter="url(#a)"><path style="fill:#000;fill-opacity:.972549;stroke:none" d="M0 0h378v76H0z"/></g></mask><mask id="be"><g filter="url(#a)"><path style="fill:#000;fill-opacity:.0196078;stroke:none" d="M0 0h378v76H0z"/></g></mask><mask id="bg"><g filter="url(#a)"><path style="fill:#000;fill-opacity:.968627;stroke:none" d="M0 0h378v76H0z"/></g></mask><mask id="bi"><g filter="url(#a)"><path style="fill:#000;fill-opacity:.0117647;stroke:none" d="M0 0h378v76H0z"/></g></mask><mask id="bk"><g filter="url(#a)"><path style="fill:#000;fill-opacity:.00784314;stroke:none" d="M0 0h378v76H0z"/></g></mask><mask id="bm"><g filter="url(#a)"><path style="fill:#000;fill-opacity:.0196078;stroke:none" d="M0 0h378v76H0z"/></g></mask><mask id="bo"><g filter="url(#a)"><path style="fill:#000;fill-opacity:.243137;stroke:none" d="M0 0h378v76H0z"/></g></mask><mask id="bq"><g filter="url(#a)"><path style="fill:#000;fill-opacity:.290196;stroke:none" d="M0 0h378v76H0z"/></g></mask><mask id="bs"><g filter="url(#a)"><path style="fill:#000;fill-opacity:.129412;stroke:none" d="M0 0h378v76H0z"/></g></mask><mask id="bu"><g filter="url(#a)"><path style="fill:#000;fill-opacity:.137255;stroke:none" d="M0 0h378v76H0z"/></g></mask><mask id="bw"><g filter="url(#a)"><path style="fill:#000;fill-opacity:.290196;stroke:none" d="M0 0h378v76H0z"/></g></mask><mask id="by"><g filter="url(#a)"><path style="fill:#000;fill-opacity:.215686;stroke:none" d="M0 0h378v76H0z"/></g></mask><mask id="bA"><g filter="url(#a)"><path style="fill:#000;fill-opacity:.180392;stroke:none" d="M0 0h378v76H0z"/></g></mask><mask id="bC"><g filter="url(#a)"><path style="fill:#000;fill-opacity:.0156863;stroke:none" d="M0 0h378v76H0z"/></g></mask><mask id="bE"><g filter="url(#a)"><path style="fill:#000;fill-opacity:.109804;stroke:none" d="M0 0h378v76H0z"/></g></mask><mask id="bG"><g filter="url(#a)"><path style="fill:#000;fill-opacity:.0196078;stroke:none" d="M0 0h378v76H0z"/></g></mask><mask id="bI"><g filter="url(#a)"><path style="fill:#000;fill-opacity:.00392157;stroke:none" d="M0 0h378v76H0z"/></g></mask><mask id="bK"><g filter="url(#a)"><path style="fill:#000;fill-opacity:.0156863;stroke:none" d="M0 0h378v76H0z"/></g></mask><mask id="bM"><g filter="url(#a)"><path style="fill:#000;fill-opacity:.223529;stroke:none" d="M0 0h378v76H0z"/></g></mask><mask id="bO"><g filter="url(#a)"><path style="fill:#000;fill-opacity:.227451;stroke:none" d="M0 0h378v76H0z"/></g></mask><mask id="bQ"><g filter="url(#a)"><path style="fill:#000;fill-opacity:.00784314;stroke:none" d="M0 0h378v76H0z"/></g></mask><mask id="bS"><g filter="url(#a)"><path style="fill:#000;fill-opacity:.121569;stroke:none" d="M0 0h378v76H0z"/></g></mask><mask id="bU"><g filter="url(#a)"><path style="fill:#000;fill-opacity:.00392157;stroke:none" d="M0 0h378v76H0z"/></g></mask><mask id="bW"><g filter="url(#a)"><path style="fill:#000;fill-opacity:.0705882;stroke:none" d="M0 0h378v76H0z"/></g></mask><mask id="bY"><g filter="url(#a)"><path style="fill:#000;fill-opacity:.117647;stroke:none" d="M0 0h378v76H0z"/></g></mask><mask id="ca"><g filter="url(#a)"><path style="fill:#000;fill-opacity:.105882;stroke:none" d="M0 0h378v76H0z"/></g></mask><mask id="cc"><g filter="url(#a)"><path style="fill:#000;fill-opacity:.188235;stroke:none" d="M0 0h378v76H0z"/></g></mask><mask id="ce"><g filter="url(#a)"><path style="fill:#000;fill-opacity:.329412;stroke:none" d="M0 0h378v76H0z"/></g></mask><mask id="cg"><g filter="url(#a)"><path style="fill:#000;fill-opacity:.796078;stroke:none" d="M0 0h378v76H0z"/></g></mask><mask id="ci"><g filter="url(#a)"><path style="fill:#000;fill-opacity:.196078;stroke:none" d="M0 0h378v76H0z"/></g></mask><mask id="ck"><g filter="url(#a)"><path style="fill:#000;fill-opacity:.0784314;stroke:none" d="M0 0h378v76H0z"/></g></mask><mask id="cm"><g filter="url(#a)"><path style="fill:#000;fill-opacity:.333333;stroke:none" d="M0 0h378v76H0z"/></g></mask><mask id="co"><g filter="url(#a)"><path style="fill:#000;fill-opacity:.101961;stroke:none" d="M0 0h378v76H0z"/></g></mask><mask id="cq"><g filter="url(#a)"><path style="fill:#000;fill-opacity:.235294;stroke:none" d="M0 0h378v76H0z"/></g></mask><mask id="cs"><g filter="url(#a)"><path style="fill:#000;fill-opacity:.141176;stroke:none" d="M0 0h378v76H0z"/></g></mask><mask id="cu"><g filter="url(#a)"><path style="fill:#000;fill-opacity:.137255;stroke:none" d="M0 0h378v76H0z"/></g></mask><mask id="cw"><g filter="url(#a)"><path style="fill:#000;fill-opacity:.0117647;stroke:none" d="M0 0h378v76H0z"/></g></mask><mask id="cy"><g filter="url(#a)"><path style="fill:#000;fill-opacity:.0588235;stroke:none" d="M0 0h378v76H0z"/></g></mask><mask id="cA"><g filter="url(#a)"><path style="fill:#000;fill-opacity:.231373;stroke:none" d="M0 0h378v76H0z"/></g></mask><mask id="cC"><g filter="url(#a)"><path style="fill:#000;fill-opacity:.223529;stroke:none" d="M0 0h378v76H0z"/></g></mask><mask id="cE"><g filter="url(#a)"><path style="fill:#000;fill-opacity:.196078;stroke:none" d="M0 0h378v76H0z"/></g></mask><mask id="cG"><g filter="url(#a)"><path style="fill:#000;fill-opacity:.196078;stroke:none" d="M0 0h378v76H0z"/></g></mask><mask id="cI"><g filter="url(#a)"><path style="fill:#000;fill-opacity:.117647;stroke:none" d="M0 0h378v76H0z"/></g></mask><mask id="cK"><g filter="url(#a)"><path style="fill:#000;fill-opacity:.964706;stroke:none" d="M0 0h378v76H0z"/></g></mask><mask id="cM"><g filter="url(#a)"><path style="fill:#000;fill-opacity:.941176;stroke:none" d="M0 0h378v76H0z"/></g></mask><mask id="cO"><g filter="url(#a)"><path style="fill:#000;fill-opacity:.956863;stroke:none" d="M0 0h378v76H0z"/></g></mask><mask id="cQ"><g filter="url(#a)"><path style="fill:#000;fill-opacity:.984314;stroke:none" d="M0 0h378v76H0z"/></g></mask><mask id="cS"><g filter="url(#a)"><path style="fill:#000;fill-opacity:.976471;stroke:none" d="M0 0h378v76H0z"/></g></mask><mask id="cU"><g filter="url(#a)"><path style="fill:#000;fill-opacity:.968627;stroke:none" d="M0 0h378v76H0z"/></g></mask><mask id="cW"><g filter="url(#a)"><path style="fill:#000;fill-opacity:.976471;stroke:none" d="M0 0h378v76H0z"/></g></mask><mask id="cY"><g filter="url(#a)"><path style="fill:#000;fill-opacity:.952941;stroke:none" d="M0 0h378v76H0z"/></g></mask><mask id="da"><g filter="url(#a)"><path style="fill:#000;fill-opacity:.964706;stroke:none" d="M0 0h378v76H0z"/></g></mask><mask id="dc"><g filter="url(#a)"><path style="fill:#000;fill-opacity:.960784;stroke:none" d="M0 0h378v76H0z"/></g></mask><mask id="de"><g filter="url(#a)"><path style="fill:#000;fill-opacity:.980392;stroke:none" d="M0 0h378v76H0z"/></g></mask><mask id="dg"><g filter="url(#a)"><path style="fill:#000;fill-opacity:.960784;stroke:none" d="M0 0h378v76H0z"/></g></mask><mask id="di"><g filter="url(#a)"><path style="fill:#000;fill-opacity:.956863;stroke:none" d="M0 0h378v76H0z"/></g></mask><mask id="dk"><g filter="url(#a)"><path style="fill:#000;fill-opacity:.976471;stroke:none" d="M0 0h378v76H0z"/></g></mask><mask id="dm"><g filter="url(#a)"><path style="fill:#000;fill-opacity:.964706;stroke:none" d="M0 0h378v76H0z"/></g></mask><mask id="do"><g filter="url(#a)"><path style="fill:#000;fill-opacity:.980392;stroke:none" d="M0 0h378v76H0z"/></g></mask><mask id="dq"><g filter="url(#a)"><path style="fill:#000;fill-opacity:.952941;stroke:none" d="M0 0h378v76H0z"/></g></mask><mask id="ds"><g filter="url(#a)"><path style="fill:#000;fill-opacity:.964706;stroke:none" d="M0 0h378v76H0z"/></g></mask><mask id="du"><g filter="url(#a)"><path style="fill:#000;fill-opacity:.964706;stroke:none" d="M0 0h378v76H0z"/></g></mask><g id="az" clip-path="url(#b)"><path style="stroke:none;fill-rule:evenodd;fill:#f53535;fill-opacity:1" d="M335.715 6.605c1.168 1.004 1.71 2.297 1.637 3.88-.23 3.015-1.832 4.761-4.801 5.238-4.215-.211-6.051-2.414-5.512-6.606.168-.488.371-.96.602-1.418.183-.043.367-.097.546-.164.438-.55.91-1.058 1.418-1.531a61.103 61.103 0 0 1 2.891-.707 24.69 24.69 0 0 1 3.219 1.308Zm0 0"/></g><g id="aB" clip-path="url(#c)"><path style="stroke:none;fill-rule:evenodd;fill:#f6211f;fill-opacity:1" d="M335.715 6.605a24.69 24.69 0 0 0-3.219-1.308c-.969.21-1.933.45-2.89.707-.508.473-.981.98-1.418 1.531-.18.067-.364.121-.547.164 1.527-2.226 3.597-2.972 6.218-2.238a6.094 6.094 0 0 1 1.856 1.144Zm0 0"/></g><g id="aD" clip-path="url(#d)"><path style="stroke:none;fill-rule:evenodd;fill:#f53737;fill-opacity:1" d="M107.21 23.531a.615.615 0 0 0-.054.547c.356.688.703 1.379 1.04 2.074a.542.542 0 0 1-.11.274c.227.527.41 1.078.547 1.637a.916.916 0 0 0-.11.437c.102.457.211.91.325 1.363.015 6.149-.004 12.301-.051 18.457a1.147 1.147 0 0 1-.164.434 80.36 80.36 0 0 1-8.457 0c-.094-5.45-.074-10.89.054-16.324a9.271 9.271 0 0 1-.273-1.91 1.328 1.328 0 0 0-.383-.657 8.219 8.219 0 0 0-.601-1.418c-.793-1.027-1.848-1.465-3.164-1.308-1.579-.051-2.887.535-3.926 1.746-.188.37-.39.734-.602 1.09a.265.265 0 0 0-.054-.22c-.375.395-.504.852-.383 1.368a2 2 0 0 0-.328.766l.109.11c-.09 5.546-.145 11.097-.164 16.651a40.132 40.132 0 0 1-4.2.215l-4.148-.054-.164-.16c-.09-9.653-.07-19.297.055-28.938l.219-.11c2.472.215 4.98.29 7.53.22.138.007.227.077.274.218l.11 1.309a9.837 9.837 0 0 1 5.289-2.567c3.707-.57 7.02.266 9.933 2.512a10.78 10.78 0 0 1 1.852 2.238Zm0 0"/></g><g id="aF" clip-path="url(#e)"><path style="stroke:none;fill-rule:evenodd;fill:#f53636;fill-opacity:1" d="M286.61 29.43a205.77 205.77 0 0 0-.22 9.5c0 3.207.04 6.41.11 9.61-.035.07-.07.144-.11.214-2.507.11-5.015.148-7.527.11.016-.657 0-1.31-.054-1.966a2.839 2.839 0 0 1-.711.602.572.572 0 0 1 .328.164 11.555 11.555 0 0 1-3.164 1.91 3.72 3.72 0 0 1-.875.164 4.531 4.531 0 0 0-.762-.11 7.816 7.816 0 0 1-3.656 0l-.11.11a10.264 10.264 0 0 1-1.746-.328.373.373 0 0 0-.273.11c-2.84-.961-4.895-2.817-6.164-5.57a5.677 5.677 0 0 1-.383-1.856.1.1 0 0 0 .11-.055c-.141-.855-.286-1.71-.438-2.566.172-4.95 2.648-8.059 7.422-9.336a20.34 20.34 0 0 1 6.437.218c1.035.336 2.024.793 2.946 1.368.156-2.91-1.192-4.711-4.036-5.407-3.039-.312-5.91.235-8.62 1.637a.995.995 0 0 1-.657 0 104.113 104.113 0 0 1-2.727-5.785c.082-.234.227-.418.438-.547 4.992-2.68 10.3-3.516 15.93-2.512 5.132 1.508 7.972 4.95 8.511 10.32Zm-15.93 12.12c-.57-.991-.696-2.046-.383-3.167.16-.301.36-.578.598-.82.496-.231 1.007-.434 1.53-.602 1.7-.258 3.302.016 4.802.82.953.98 1.117 2.09.488 3.332a5.3 5.3 0 0 1-2.781 1.364 12.19 12.19 0 0 1-2.946-.11 5.043 5.043 0 0 1-1.308-.816Zm0 0"/></g><g id="aH" clip-path="url(#f)"><path style="stroke:none;fill-rule:evenodd;fill:#f53737;fill-opacity:1" d="M320.656 29.973c-.23.101-.265.246-.11.437-.054 6.106-.148 12.219-.273 18.344-2.812.078-5.632.152-8.457.219a305.292 305.292 0 0 1 0-16.27c-.066-.387-.14-.766-.218-1.144.035-.52.035-1.063 0-1.641a13.547 13.547 0 0 0-1.2-2.238 2.454 2.454 0 0 1-.98-.598.944.944 0 0 0-.766.055c-1.726-.325-3.254.058-4.582 1.144a9.338 9.338 0 0 0-1.039 1.367c-.258.895-.46 1.805-.597 2.727-.25.188-.286.422-.11.71-.074 5.216-.144 10.438-.219 15.669-2.746.074-5.492.148-8.238.219-.18-.141-.308-.32-.383-.543.02-9.266.02-18.657 0-28.176-.027-.14.012-.25.11-.324 2.488-.016 4.996 0 7.531.054a.96.96 0 0 1 .27.164 8.58 8.58 0 0 0 .218 1.856c.082-.188.172-.371.274-.547.34-.215.668-.453.984-.71a1.93 1.93 0 0 0 .215-.384 11.03 11.03 0 0 1 4.039-1.582c3.844-.613 7.227.317 10.148 2.785a11.504 11.504 0 0 1 3.11 5.68c.101.906.191 1.817.273 2.727Zm0 0"/></g><g id="aJ" clip-path="url(#g)"><path style="stroke:none;fill-rule:evenodd;fill:#f53636;fill-opacity:1" d="M367.469 28.117a5.321 5.321 0 0 1-.219 1.149l.164.164c.035.652.074 1.308.11 1.965.054 5.859.074 11.718.054 17.578a89.865 89.865 0 0 1-7.746.054 5.835 5.835 0 0 1-.328-1.363 10.47 10.47 0 0 1-5.457 2.402v-.328a17.288 17.288 0 0 1-4.582-.273 3.946 3.946 0 0 0-1.965-.492 7.66 7.66 0 0 1-2.727-2.075 1.219 1.219 0 0 1-.218-.652h-.328c-1.72-2.898-2.266-6.027-1.637-9.394.316-.793.644-1.579.98-2.348a1.027 1.027 0 0 0-.11-.27 8.934 8.934 0 0 1 3.821-3.332 10.004 10.004 0 0 1 4.965-.93c2.453-.144 4.672.477 6.656 1.86.086-2.973-1.312-4.812-4.199-5.516-3.015-.312-5.851.23-8.512 1.637-.312.106-.586.05-.82-.164-.832-1.781-1.668-3.562-2.508-5.348a.591.591 0 0 1 .055-.546c.488-.336 1-.649 1.527-.93a31.223 31.223 0 0 1 7.528-2.184 66.9 66.9 0 0 1 5.457 0c5.511.801 8.855 3.914 10.039 9.336Zm-13.094 8.735a7.598 7.598 0 0 1 3.93.93c1.035 1.09 1.144 2.273.324 3.55-1.711 1.191-3.602 1.535-5.672 1.035a29.82 29.82 0 0 1-1.363-.926c-1.098-2.796-.172-4.324 2.781-4.59Zm0 0"/></g><g id="aL" clip-path="url(#h)"><path style="stroke:none;fill-rule:evenodd;fill:#f53636;fill-opacity:1" d="M132.203 49.629c-.008-.059-.043-.094-.11-.11a19.35 19.35 0 0 1-6.277.11 6.453 6.453 0 0 0-1.582.11 13.69 13.69 0 0 1-2.507-.712 5.084 5.084 0 0 1-1.528-.816.508.508 0 0 0-.219-.492 8.818 8.818 0 0 0-1.418-.875c-.144-.07-.144-.145 0-.219-.507-.398-.98-.836-1.417-1.309.035-.035.07-.074.109-.109a8.052 8.052 0 0 1-1.313-1.746 20.562 20.562 0 0 1-2.18-7.863.523.523 0 0 0 .216-.328c.015-1.586.015-3.172 0-4.75a10.183 10.183 0 0 1 1.203-4.04.525.525 0 0 0 .488-.328c.191-.343.336-.71.437-1.093.493-.641.965-1.297 1.418-1.965a28.962 28.962 0 0 1 2.239-1.965c.449-.242.886-.516 1.308-.82.262-.055.516-.125.766-.215.137-.11.137-.2 0-.274a.229.229 0 0 1 .11-.164c3.097-1.023 6.261-1.207 9.492-.547 4.675 1.477 7.64 4.59 8.894 9.336.566 2.403.746 4.844.547 7.317a3.757 3.757 0 0 1-.602 1.472c-5.894.055-11.785.075-17.68.055.606 3.461 2.66 5.211 6.169 5.242 2.37-.011 4.355-.906 5.945-2.676.133-.082.281-.14.437-.164.282.118.516.297.707.547 1.2 1.524 2.438 3.02 3.711 4.477.075.25.075.515 0 .765-2.05 2.11-4.507 3.493-7.363 4.149Zm-.219-20.746c.325.687.543 1.418.653 2.183-3.344.036-6.692 0-10.04-.109a.987.987 0 0 0 .11-.547c1.184-3.504 3.547-4.758 7.094-3.765a5.001 5.001 0 0 1 2.183 2.238Zm0 0"/></g><g id="aN" clip-path="url(#i)"><path style="stroke:none;fill-rule:evenodd;fill:#f53636;fill-opacity:1" d="M203.457 19.82a13.186 13.186 0 0 1 4.422 2.184c.074.375.039.738-.11 1.09-.328.773-.671 1.539-1.039 2.293a.525.525 0 0 0-.488.328 5.796 5.796 0 0 1-.383.82.37.37 0 0 1 .11.164 22.027 22.027 0 0 0-.82 1.528c-.258.101-.532.14-.817.109v-.328a4.248 4.248 0 0 1-.875-.383 8.149 8.149 0 0 0-.98-.164l-.438-.11a1.205 1.205 0 0 0-.543-.488 8.204 8.204 0 0 0-2.457-.492 15.6 15.6 0 0 0-3 .164c-.36.047-.539.246-.547.602-.09.324-.11.648-.054.98.25.332.566.613.93.82a77.853 77.853 0 0 0 6 2.622c.737.449 1.468.906 2.183 1.363.047.293.191.531.437.71.387.247.79.485 1.2.712.14.34.378.593.707.761.054.106.074.215.054.329.145-.02.274.02.383.109.242.64.535 1.262.875 1.855.121.66.266 1.317.434 1.965l.164.164c-.164.282-.13.516.11.711.226 3.098-.903 5.59-3.384 7.48-2.484 1.759-5.265 2.54-8.347 2.348-4.067.02-7.758-1.09-11.075-3.332a.808.808 0 0 1-.218-.652c.047-.441.175-.86.382-1.258a110.02 110.02 0 0 1 2.454-5.187.735.735 0 0 1 .546 0c2.774 1.816 5.829 2.652 9.165 2.511 1.402-.382 1.82-1.238 1.257-2.566-.277-.273-.55-.547-.82-.816-2.094-1.016-4.203-2-6.328-2.95a15.273 15.273 0 0 1-4.527-3.55 9.62 9.62 0 0 1-.93-1.965c.074-.14.11-.305.11-.492-.09-.586-.2-1.133-.329-1.637.137-1.067.266-2.14.383-3.223.363-.738.676-1.504.926-2.293a8.702 8.702 0 0 1 2.183-2.129 12.778 12.778 0 0 1 4.258-1.472c.371.058.75.093 1.145.11a27.103 27.103 0 0 0 1.527-.22 7.33 7.33 0 0 0 2.512 0c.406.125.804.27 1.199.438a8.1 8.1 0 0 1 .871 0c.496.25 1.023.394 1.582.437Zm0 0"/></g><g id="aP" clip-path="url(#j)"><path style="stroke:none;fill-rule:evenodd;fill:#f53737;fill-opacity:1" d="M242.195 18.945c.035.125.125.2.274.22 2.61-.395 5.101-.161 7.476.71.594.336 1.215.629 1.856.871.14.332.394.461.762.383a8.167 8.167 0 0 1 2.675 3.387c.254.597.453 1.218.598 1.855.101.559.101 1.09 0 1.582.137.785.285 1.567.437 2.348a769.245 769.245 0 0 1-.328 18.508 80.29 80.29 0 0 1-8.402-.11 354.155 354.155 0 0 1 0-17.523 1.952 1.952 0 0 0-.324-1.258c.09-.336.125-.664.105-.98a2.805 2.805 0 0 1-.379-.82.486.486 0 0 0-.382-.11 6.322 6.322 0 0 1-.875-.602c-3.286-.91-5.102.309-5.454 3.66-.187.235-.28.528-.273.875-.035 5.532-.074 11.063-.11 16.598a.96.96 0 0 1-.163.27c-2.805.054-5.59.074-8.348.054a171.35 171.35 0 0 1-.164-8.734c0-2.902.039-5.793.11-8.68-.165-.98-.4-1.949-.712-2.894a1.264 1.264 0 0 1-.27-.438.794.794 0 0 0-.546-.11c-1.192-.91-2.5-1.112-3.93-.6a4.205 4.205 0 0 0-1.09.82.472.472 0 0 0-.164-.22l-.328.438a47.744 47.744 0 0 0-.762 2.293c-.039 5.934-.074 11.867-.109 17.801a.513.513 0 0 1-.273.27 104.31 104.31 0 0 1-8.348-.055c-.074-9.535-.074-19.07 0-28.606a34.127 34.127 0 0 1 3.871-.218l3.82.054.164.164c.059.66.059 1.313 0 1.965a5.027 5.027 0 0 0 1.364-1.422c.257-.257.547-.492.875-.707 3.382-1.672 6.765-1.672 10.148 0 .742.559 1.453 1.16 2.125 1.801.7-.668 1.445-1.265 2.238-1.8.918-.422 1.868-.77 2.836-1.04Zm0 0"/></g><g id="aR" clip-path="url(#k)"><path style="stroke:none;fill-rule:evenodd;fill:#f01c1b;fill-opacity:1" d="M203.457 19.82a4.194 4.194 0 0 1-1.582-.437 8.1 8.1 0 0 0-.871 0c-.39-.168-.793-.313-1.2-.438a7.33 7.33 0 0 1-2.511 0c-.5.086-1.012.16-1.527.22a9.798 9.798 0 0 1-1.145-.11c3.031-.63 5.977-.375 8.836.765Zm0 0"/></g><g id="aT" clip-path="url(#l)"><path style="stroke:none;fill-rule:evenodd;fill:#f62322;fill-opacity:1" d="M252.563 21.129c-.368.078-.622-.05-.762-.383a13.385 13.385 0 0 1-1.856-.871c-2.375-.871-4.867-1.105-7.476-.71-.149-.02-.239-.095-.274-.22 3.043-.574 5.953-.23 8.73 1.04.59.316 1.137.699 1.637 1.144Zm0 0"/></g><g id="aV" clip-path="url(#m)"><path style="stroke:none;fill-rule:evenodd;fill:#fe0000;fill-opacity:1" d="M82.223 19.602c2.476-.02 4.949 0 7.422.054a.24.24 0 0 1 .109.164c-2.55.07-5.059-.004-7.531-.218Zm68.53.218h-8.62a.34.34 0 0 1 .219-.164c2.726-.074 5.453-.074 8.183 0a.35.35 0 0 1 .219.164Zm33.282 0h-8.402a.34.34 0 0 1 .219-.164c2.652-.074 5.308-.074 7.964 0a.34.34 0 0 1 .22.164Zm38.63 0h-7.966a.572.572 0 0 1 .328-.164c2.434-.074 4.871-.074 7.309 0a.572.572 0 0 1 .328.164Zm78.784 0h-7.855a.34.34 0 0 1 .219-.164c2.437-.074 4.875-.074 7.312 0a.573.573 0 0 1 .324.164Zm34.922 0h-8.512a.33.33 0 0 1 .22-.164c2.69-.074 5.382-.074 8.073 0a.35.35 0 0 1 .22.164Zm0 0"/></g><g id="aX" clip-path="url(#n)"><path style="stroke:none;fill-rule:evenodd;fill:#fe0000;fill-opacity:1" d="M81.79 19.82v29.153a.33.33 0 0 1-.165-.22c-.074-9.57-.074-19.144 0-28.714a.33.33 0 0 1 .164-.219Zm0 0"/></g><g id="aZ" clip-path="url(#o)"><path style="stroke:none;fill-rule:evenodd;fill:#f82423;fill-opacity:1" d="M293.594 19.93v-.11h7.855c.11-.011.2.028.274.11.035.472.074.945.109 1.418.34-.43.758-.758 1.254-.985a1.93 1.93 0 0 1-.215.383 10.13 10.13 0 0 1-.984.711c-.102.176-.192.36-.274.547a8.58 8.58 0 0 1-.218-1.856.96.96 0 0 0-.27-.164c-2.535-.054-5.043-.07-7.531-.054Zm0 0"/></g><g id="bb" clip-path="url(#p)"><path style="stroke:none;fill-rule:evenodd;fill:#f53636;fill-opacity:1" d="M142.133 19.82h8.62c.11-.011.2.028.274.11.614 2.515 1.25 5.027 1.907 7.53-.067.79.058 1.552.382 2.294a.38.38 0 0 0 .164.11c.09.468.145.945.165 1.421.488 1.828 1 3.649 1.527 5.461.27-.55.45-1.133.547-1.75a.476.476 0 0 0 .273-.328c.16-.574.285-1.156.38-1.746a.458.458 0 0 0 .273-.328c.093-.407.203-.805.328-1.2-.012-.066-.051-.101-.11-.109v-.11a13.155 13.155 0 0 0 1.582-4.476 11.517 11.517 0 0 0 1.473-4.476c.055-.618.242-1.211.547-1.75a41.568 41.568 0 0 1 6 0c.887 2.812 1.777 5.617 2.676 8.41.511 1.824 1.02 3.64 1.527 5.46.129.38.293.743.492 1.09.793-2.675 1.52-5.367 2.18-8.081.035.136.09.136.164 0 .293-.688.531-1.399.71-2.13a.34.34 0 0 1-.109-.163c.188-.286.333-.598.438-.926a.447.447 0 0 0-.11-.219.905.905 0 0 0 .27-.602c.063-.507.113-1.019.164-1.527.04-.61.168-1.191.383-1.746a.425.425 0 0 1 .383-.219h8.402c.176.032.285.14.328.328a99.095 99.095 0 0 0-1.691 6.004 14.629 14.629 0 0 0-.82 2.95.379.379 0 0 1-.165-.22 4.493 4.493 0 0 1-.652 1.747c-.12.844-.324 1.66-.601 2.457a.245.245 0 0 1 .109.164 161.466 161.466 0 0 1-1.746 6.332c-.137.008-.227.082-.274.219-.058.332-.132.66-.218.984-.098-.125-.192-.11-.274.055a7.984 7.984 0 0 1-.488 2.129c-.043.383-.098.765-.164 1.144a.504.504 0 0 1-.274.383 98.868 98.868 0 0 1-.925 3.004.465.465 0 0 1 .11.164c-.15.363-.294.727-.438 1.09a2.163 2.163 0 0 0-.383.219c-2.41-.07-4.832-.145-7.258-.22a45.217 45.217 0 0 1-.598-2.073.647.647 0 0 0-.492-.434 57.885 57.885 0 0 1-.875-2.512 1.22 1.22 0 0 0 .055-.875 63.534 63.534 0 0 1-1.09-3.496 5.367 5.367 0 0 1-.547-1.199.306.306 0 0 0-.27-.11 20.329 20.329 0 0 0-1.039-2.949 3.786 3.786 0 0 1-.382 1.094c-.07-.035-.141-.07-.215-.11a67.13 67.13 0 0 0-2.293 6.442c.066.098.105.211.11.328a84 84 0 0 1-2.294 6.168c-2.691.075-5.383.075-8.074 0a14.107 14.107 0 0 1-.766-2.457.33.33 0 0 0 .329-.11 8.7 8.7 0 0 1-.598-2.073c-.149-.29-.293-.582-.438-.871a134.803 134.803 0 0 0-.875-3.387.31.31 0 0 0-.27-.11c-1.948-6.59-3.839-13.195-5.675-19.82.012-.18.082-.308.219-.379Zm0 0"/></g><g id="bd" clip-path="url(#q)"><path style="stroke:none;fill-rule:evenodd;fill:red;fill-opacity:1" d="M327.86 19.82c-.055.106-.11.215-.165.328-.054 9.57-.074 19.145-.054 28.715-.13-9.625-.145-19.27-.055-28.933a.308.308 0 0 1 .273-.11Zm0 0"/></g><g id="bf" clip-path="url(#r)"><path style="stroke:none;fill-rule:evenodd;fill:#f53737;fill-opacity:1" d="M336.59 48.54v.323c-.195.203-.45.278-.766.219a140.287 140.287 0 0 1-7.91-.328c-.094-9.598-.074-19.188.055-28.77 2.8-.09 5.62-.07 8.457.055.015 9.516.07 19.016.164 28.5Zm0 0"/></g><g id="bh" clip-path="url(#s)"><path style="stroke:none;fill-rule:evenodd;fill:#fe0000;fill-opacity:1" d="M336.59 19.93a.338.338 0 0 1 .16.218c.074 9.5.074 19 0 28.5a.34.34 0 0 1-.16.215Zm0 0"/></g><g id="bj" clip-path="url(#t)"><path style="stroke:none;fill-rule:evenodd;fill:red;fill-opacity:1" d="M293.594 19.82v.11c-.098.074-.137.183-.11.324-.074 9.355-.144 18.71-.218 28.066-.02-9.43 0-18.855.054-28.28.047-.142.137-.212.274-.22Zm0 0"/></g><g id="bl" clip-path="url(#u)"><path style="stroke:none;fill-rule:evenodd;fill:#fb2e2d;fill-opacity:1" d="M214.7 19.82h7.964c.195.461.285.97.274 1.528.304-.29.652-.508 1.035-.657a5.027 5.027 0 0 1-1.364 1.422c.059-.652.059-1.304 0-1.965l-.164-.164-3.82-.054c-1.313 0-2.605.074-3.871.218-.074 9.536-.074 19.07 0 28.606 2.781.129 5.566.148 8.348.055a.513.513 0 0 0 .273-.27c.035-5.934.07-11.867.11-17.8.234-.77.488-1.536.761-2.294l.328-.437a.472.472 0 0 1 .164.219c-.351.449-.586.957-.71 1.527-.09.66-.2 1.316-.329 1.969l-.105 17.25c-3 .129-6.004.148-9.004.054-.13-9.691-.145-19.39-.055-29.097a.229.229 0 0 1 .164-.11Zm0 0"/></g><g id="bn" clip-path="url(#v)"><path style="stroke:none;fill-rule:evenodd;fill:#f72d2d;fill-opacity:1" d="M327.86 19.82h8.511c.106-.02.18.016.219.11v28.61c-.094-9.5-.149-19-.164-28.5-2.82-.126-5.64-.145-8.457-.056-.13 9.59-.149 19.18-.055 28.77 2.629.184 5.266.293 7.91.328-2.765.074-5.496 0-8.183-.219-.02-9.57 0-19.144.054-28.715l.164-.328Zm0 0"/></g><g id="bp" clip-path="url(#w)"><path style="stroke:none;fill-rule:evenodd;fill:#f62321;fill-opacity:1" d="M121.836 19.82c.137.075.137.164 0 .274-.25.09-.504.16-.766.215-.418.3-.855.574-1.308.82a28.962 28.962 0 0 0-2.239 1.965 41.059 41.059 0 0 1-1.418 1.965c-.101.382-.246.75-.437 1.093a.525.525 0 0 1-.488.328c1.242-2.984 3.316-5.187 6.218-6.605.141-.055.29-.074.438-.055Zm0 0"/></g><g id="br" clip-path="url(#x)"><path style="stroke:none;fill-rule:evenodd;fill:#f51f1d;fill-opacity:1" d="M174.867 21.785c-.05.508-.101 1.02-.164 1.527a.905.905 0 0 1-.27.602.447.447 0 0 1 .11.219c-.106.328-.25.64-.438.926a.37.37 0 0 0 .11.164c-.18.73-.418 1.441-.711 2.129-.074.136-.129.136-.164 0 .492-1.813.945-3.633 1.363-5.457a.245.245 0 0 1 .164-.11Zm0 0"/></g><g id="bt" clip-path="url(#y)"><path style="stroke:none;fill-rule:evenodd;fill:#f52220;fill-opacity:1" d="M202.04 27.352a18.048 18.048 0 0 0-4.255-.872c-.808.082-1.574.301-2.293.657.008-.356.188-.555.547-.602a15.6 15.6 0 0 1 3-.164c.848.04 1.668.203 2.457.492.238.114.422.278.543.489Zm0 0"/></g><g id="bv" clip-path="url(#z)"><path style="stroke:none;fill-rule:evenodd;fill:#f61f1e;fill-opacity:1" d="M188.18 22.656c-.25.79-.563 1.555-.926 2.293a165.307 165.307 0 0 1-.383 3.223c.129.504.238 1.05.328 1.637 0 .187-.035.351-.11.492-.105-.32-.198-.649-.273-.98a28.999 28.999 0 0 1 0-3.497 8.296 8.296 0 0 1 1.364-3.168Zm0 0"/></g><g id="bx" clip-path="url(#A)"><path style="stroke:none;fill-rule:evenodd;fill:#f52220;fill-opacity:1" d="M206.73 25.387c-.453 1.054-.906 2.11-1.363 3.168l-.328.218a71.938 71.938 0 0 1-2.562-1.312c.328.035.656.09.98.164.277.16.57.29.875.383v.328c.285.031.559-.008.816-.11.254-.523.528-1.035.82-1.527a.392.392 0 0 0-.109-.164c.149-.262.278-.539.383-.82a.525.525 0 0 1 .488-.328Zm0 0"/></g><g id="bz" clip-path="url(#B)"><path style="stroke:none;fill-rule:evenodd;fill:#f71f1d;fill-opacity:1" d="M159.918 22.223a11.517 11.517 0 0 1-1.473 4.476 13.155 13.155 0 0 1-1.582 4.477c.918-3.02 1.934-6.004 3.055-8.953Zm0 0"/></g><g id="bB" clip-path="url(#C)"><path style="stroke:none;fill-rule:evenodd;fill:red;fill-opacity:1" d="M320.656 29.973v18.78a776.001 776.001 0 0 1-.11-18.343c-.155-.191-.12-.336.11-.437Zm0 0"/></g><g id="bD" clip-path="url(#D)"><path style="stroke:none;fill-rule:evenodd;fill:#f61816;fill-opacity:1" d="M181.852 29.102a49.596 49.596 0 0 0-1.309 4.148.245.245 0 0 0-.11-.164c.278-.797.481-1.613.602-2.457.34-.54.559-1.121.653-1.746a.379.379 0 0 0 .164.219Zm0 0"/></g><g id="bF" clip-path="url(#E)"><path style="stroke:none;fill-rule:evenodd;fill:#fe0000;fill-opacity:1" d="M230.848 30.629c.09.195.144.414.164.656.054 5.895.074 11.793.054 17.688a.356.356 0 0 1-.164-.22c-.054-6.038-.074-12.081-.054-18.124Zm0 0"/></g><g id="bH" clip-path="url(#F)"><path style="stroke:none;fill-rule:evenodd;fill:#fd1311;fill-opacity:1" d="M131.984 28.883c.11-.012.2.027.274.11.058.304.203.558.433.76.09.286.145.579.164.876a.711.711 0 0 1-.218.601c-3.344.07-6.692.07-10.04 0a1.112 1.112 0 0 1-.109-.437c.012-.184.086-.313.219-.383a.987.987 0 0 1-.11.547c3.348.11 6.696.145 10.04.11a7.628 7.628 0 0 0-.653-2.184Zm0 0"/></g><g id="bJ" clip-path="url(#G)"><path style="stroke:none;fill-rule:evenodd;fill:#fd0000;fill-opacity:1" d="M286.719 30.957c.129 5.895.144 11.793.054 17.691a.573.573 0 0 1-.164.325c-.035-6.004.004-12.012.11-18.016Zm0 0"/></g><g id="bL" clip-path="url(#H)"><path style="stroke:none;fill-rule:evenodd;fill:#ee2221;fill-opacity:1" d="M255.836 26.371c.23.59.394 1.207.492 1.856.172 6.878.207 13.757.11 20.636l-.165.164c-2.945.075-5.89.075-8.84 0l-.163-.164-.106-18.562a7.62 7.62 0 0 0-.601-2.293c.144-.02.269.02.382.11.082.296.211.57.38.82.019.316-.016.644-.106.98.25.379.36.797.324 1.258a354.155 354.155 0 0 0 0 17.523c2.797.184 5.602.219 8.402.11.184-6.168.293-12.336.328-18.508-.152-.781-.3-1.563-.437-2.348a4.141 4.141 0 0 0 0-1.582Zm0 0"/></g><g id="bN" clip-path="url(#I)"><path style="stroke:none;fill-rule:evenodd;fill:#f72c2b;fill-opacity:1" d="M286.61 29.43c.003.511.038 1.02.109 1.527a769.403 769.403 0 0 0-.11 18.016 92.43 92.43 0 0 1-7.855.054l-.164-.164a6.527 6.527 0 0 0-.164-1.199.572.572 0 0 0-.328-.164c.27-.16.507-.363.71-.602.055.657.07 1.309.055 1.965 2.512.04 5.02 0 7.528-.11.039-.07.074-.144.109-.214-.07-3.2-.11-6.402-.11-9.61 0-3.206.075-6.37.22-9.5Zm0 0"/></g><g id="bP" clip-path="url(#J)"><path style="stroke:none;fill-rule:evenodd;fill:red;fill-opacity:1" d="M90.953 31.723a670.268 670.268 0 0 0-.11 16.816c-.124-5.57-.144-11.14-.054-16.707a.245.245 0 0 1 .164-.11Zm0 0"/></g><g id="bR" clip-path="url(#K)"><path style="stroke:none;fill-rule:evenodd;fill:#f32a29;fill-opacity:1" d="M229.758 28.008a.794.794 0 0 1 .547.11c.058.163.152.312.27.437.312.945.546 1.914.71 2.894-.07 2.887-.11 5.778-.11 8.68-.015 2.93.04 5.84.165 8.734 2.758.02 5.543 0 8.347-.054a.908.908 0 0 0 .165-.27c.035-5.535.074-11.066.109-16.598-.008-.347.086-.64.273-.875v.875a.44.44 0 0 0-.218.16c.125 5.473.144 10.95.054 16.438a1.776 1.776 0 0 0-.273.543c-2.93.04-5.84 0-8.73-.11.019-5.894 0-11.792-.055-17.687a1.93 1.93 0 0 0-.164-.656 4.243 4.243 0 0 0-1.09-2.621Zm0 0"/></g><g id="bT" clip-path="url(#L)"><path style="stroke:none;fill-rule:evenodd;fill:red;fill-opacity:1" d="M240.234 31.941c.016 5.567 0 11.137-.054 16.707-.008.262-.133.407-.383.434.058-.195.148-.379.273-.543.09-5.488.07-10.965-.054-16.437a.44.44 0 0 1 .218-.16Zm0 0"/></g><g id="bV" clip-path="url(#M)"><path style="stroke:none;fill-rule:evenodd;fill:#fd1615;fill-opacity:1" d="M367.469 28.117c.113.727.203 1.453.273 2.184.074 6.187.074 12.375 0 18.562a.245.245 0 0 1-.164.11c.02-5.86 0-11.72-.055-17.578-.035-.657-.074-1.313-.109-1.965l-.164-.164c.121-.41.195-.793.219-1.149Zm0 0"/></g><g id="bX" clip-path="url(#N)"><path style="stroke:none;fill-rule:evenodd;fill:#f82221;fill-opacity:1" d="M308.652 27.137a.944.944 0 0 1 .766-.055c.273.273.602.473.98.598.47.707.872 1.457 1.2 2.238.035.578.035 1.121 0 1.64.078.38.152.758.218 1.145a305.292 305.292 0 0 0 0 16.27c2.825-.067 5.645-.141 8.457-.22.125-6.124.22-12.237.274-18.343-.035 6.133 0 12.25.11 18.344a.739.739 0 0 1-.22.273c-2.972.094-5.937.075-8.894-.054-.035-5.676-.07-11.356-.11-17.032a10.068 10.068 0 0 0-.87-3.605 3.169 3.169 0 0 0-1.91-1.2Zm0 0"/></g><g id="bZ" clip-path="url(#O)"><path style="stroke:none;fill-rule:evenodd;fill:#f62625;fill-opacity:1" d="M107.21 23.531a13.817 13.817 0 0 1 1.802 5.461c.093 6.688.074 13.363-.055 20.035a121.26 121.26 0 0 1-9-.054 757.604 757.604 0 0 1-.219-18.125 2.355 2.355 0 0 1-.164-.985c.188.176.317.395.383.657.023.644.117 1.285.273 1.91a398.988 398.988 0 0 0-.054 16.324 80.36 80.36 0 0 0 8.457 0c.082-.129.14-.281.164-.434.047-6.156.066-12.308.05-18.457a53.197 53.197 0 0 1-.324-1.363.916.916 0 0 1 .11-.438c-.137-.558-.32-1.109-.547-1.636a.542.542 0 0 0 .11-.274 85.585 85.585 0 0 0-1.04-2.074.615.615 0 0 1 .055-.547Zm0 0"/></g><g id="cb" clip-path="url(#P)"><path style="stroke:none;fill-rule:evenodd;fill:#f72929;fill-opacity:1" d="M82.004 19.71c-.125 9.645-.145 19.29-.055 28.938l.164.16 4.149.055c1.425 0 2.824-.07 4.199-.215.02-5.558.074-11.109.164-16.652l-.11-.11a2 2 0 0 1 .329-.765c-.121-.516.008-.973.383-1.367.05.066.07.14.054.219a5.493 5.493 0 0 0-.328 1.75.245.245 0 0 0-.164.109c-.09 5.566-.07 11.137.055 16.707a.992.992 0 0 1-.219.488c-2.965.094-5.91.075-8.836-.054V19.82Zm0 0"/></g><g id="cd" clip-path="url(#Q)"><path style="stroke:none;fill-rule:evenodd;fill:#f5211f;fill-opacity:1" d="M152.934 27.46a359.358 359.358 0 0 1 2.238 8.52 110.098 110.098 0 0 1 1.691-4.695c.059.008.098.043.11.11-.125.394-.235.796-.328 1.199a.458.458 0 0 1-.274.328c-.094.59-.219 1.172-.379 1.746a.476.476 0 0 1-.273.328 6.129 6.129 0 0 1-.547 1.75 246.486 246.486 0 0 1-1.527-5.46 9.666 9.666 0 0 0-.165-1.423.38.38 0 0 1-.164-.11 4.657 4.657 0 0 1-.382-2.292Zm0 0"/></g><g id="cf" clip-path="url(#R)"><path style="stroke:none;fill-rule:evenodd;fill:#f43230;fill-opacity:1" d="M34.863 2.895c11.864-.29 21.594 4.078 29.192 13.101 7.27 9.61 9.308 20.274 6.11 31.996-4.356 12.621-12.997 20.574-25.915 23.86-11.766 2.226-22.094-.579-30.992-8.41C4.699 55.163 1.043 45.061 2.293 33.14c2.281-13.387 9.684-22.723 22.203-28.008a25.507 25.507 0 0 1 2.73-.766l.653-.328c.84-.031 1.64-.21 2.402-.543 1.532-.187 3.059-.39 4.582-.601Zm0 0"/></g><g id="ch" clip-path="url(#S)"><path style="stroke:none;fill-rule:evenodd;fill:#f5201e;fill-opacity:1" d="M358.629 41.332c.82-1.277.71-2.46-.324-3.55a7.598 7.598 0 0 0-3.93-.93c1.617-.356 3.09-.028 4.418.984a12.5 12.5 0 0 1 .71 1.8c.009.731-.284 1.298-.874 1.696Zm0 0"/></g><g id="cj" clip-path="url(#T)"><path style="stroke:none;fill-rule:evenodd;fill:#f81b19;fill-opacity:1" d="M272.426 36.96c-.524.169-1.035.372-1.531.602-.239.243-.438.52-.598.82-.313 1.122-.188 2.177.383 3.169-.403-.024-.606-.242-.602-.656a7.817 7.817 0 0 1 0-2.73l.11.108c.015-.27.14-.523.382-.765.348-.227.711-.43 1.09-.602a.976.976 0 0 1 .766.055Zm0 0"/></g><g id="cl" clip-path="url(#U)"><path style="stroke:none;fill-rule:evenodd;fill:#f42220;fill-opacity:1" d="M204.55 32.922c2.887 1.594 4.34 4.035 4.364 7.316-.238-.195-.273-.43-.11-.71l-.163-.165a27.95 27.95 0 0 1-.434-1.965 12.97 12.97 0 0 1-.875-1.855.482.482 0 0 0-.383-.11.505.505 0 0 0-.054-.328 1.463 1.463 0 0 1-.708-.761c-.41-.227-.812-.465-1.199-.711a1.057 1.057 0 0 1-.437-.711Zm0 0"/></g><g id="cn" clip-path="url(#V)"><path style="stroke:none;fill-rule:evenodd;fill:#f32220;fill-opacity:1" d="M343.46 34.234c.048.082.087.172.11.27-.336.77-.664 1.555-.98 2.348-.63 3.367-.082 6.496 1.637 9.394h.328c.011.238.082.457.218.652a.748.748 0 0 1-.492-.328c-1.93-2.582-2.66-5.492-2.183-8.734a8.647 8.647 0 0 1 1.363-3.602Zm0 0"/></g><g id="cp" clip-path="url(#W)"><path style="stroke:none;fill-rule:evenodd;fill:#f8211f;fill-opacity:1" d="M162.973 36.2a89.568 89.568 0 0 1-2.399 6.66.621.621 0 0 0-.11-.329 67.13 67.13 0 0 1 2.294-6.441c.074.039.144.074.215.11Zm0 0"/></g><g id="cr" clip-path="url(#X)"><path style="stroke:none;fill-rule:evenodd;fill:#f2211f;fill-opacity:1" d="M164.395 38.055c.109-.008.199.027.27.11.132.42.315.823.546 1.198a63.534 63.534 0 0 0 1.09 3.496c.09.313.07.606-.055.875-.617-1.89-1.234-3.78-1.851-5.68Zm0 0"/></g><g id="ct" clip-path="url(#Y)"><path style="stroke:none;fill-rule:evenodd;fill:#f62b2b;fill-opacity:1" d="M293.484 20.254c.02 9.52.02 18.91 0 28.176.075.222.204.402.383.543 2.746-.07 5.492-.145 8.238-.22.075-5.23.145-10.452.22-15.667-.177-.29-.141-.523.109-.711.02 5.535 0 11.066-.055 16.598-2.965.129-5.93.148-8.895.054a.984.984 0 0 1-.218-.707c.074-9.355.144-18.71.218-28.066Zm0 0"/></g><g id="cv" clip-path="url(#Z)"><path style="stroke:none;fill-rule:evenodd;fill:#ff0908;fill-opacity:1" d="M260.965 39.473c.152.855.297 1.71.437 2.566a.1.1 0 0 1-.109.055.624.624 0 0 1-.164-.328 16.044 16.044 0 0 1-.164-2.293Zm0 0"/></g><g id="cx" clip-path="url(#aa)"><path style="stroke:none;fill-rule:evenodd;fill:#f71d1b;fill-opacity:1" d="M147.59 40.02a.31.31 0 0 1 .27.109c.308 1.129.597 2.258.874 3.387.145.289.29.582.438.87a8.7 8.7 0 0 0 .598 2.075.33.33 0 0 1-.329.11 135.817 135.817 0 0 1-1.851-6.551Zm0 0"/></g><g id="cz" clip-path="url(#ab)"><path style="stroke:none;fill-rule:evenodd;fill:#f62120;fill-opacity:1" d="M113.977 30.52c.015 1.578.015 3.164 0 4.75a.523.523 0 0 1-.215.328c.203 2.773.93 5.394 2.18 7.863a8.052 8.052 0 0 0 1.312 1.746c-.04.035-.074.074-.11.11.434.468.907.906 1.418 1.308-.144.074-.144.148 0 .219.5.246.973.539 1.418.875a.508.508 0 0 1 .22.492c-.7-.39-1.36-.848-1.966-1.367-3.062-3.164-4.609-6.969-4.636-11.41a28.16 28.16 0 0 1 .218-4.696.348.348 0 0 1 .16-.218Zm0 0"/></g><g id="cB" clip-path="url(#ac)"><path style="stroke:none;fill-rule:evenodd;fill:#f72625;fill-opacity:1" d="M178.797 39.582a202.177 202.177 0 0 1-2.727 9.445c-2.656.075-5.312.075-7.968 0a4.644 4.644 0 0 1-.489-1.035c-.199-.57-.363-1.152-.492-1.746.242.055.406.2.492.434.184.699.383 1.39.598 2.074 2.426.074 4.848.148 7.258.219.117-.086.246-.157.383-.22.144-.362.289-.726.437-1.089a.433.433 0 0 0-.11-.164c.325-.996.633-1.996.926-3.004a.504.504 0 0 0 .274-.383c.066-.379.121-.761.164-1.144.266-.715.43-1.422.488-2.13.082-.163.176-.179.274-.054.086-.324.16-.652.218-.984.047-.137.137-.211.274-.219Zm0 0"/></g><g id="cD" clip-path="url(#ad)"><path style="stroke:none;fill-rule:evenodd;fill:#f31d1c;fill-opacity:1" d="M132.203 49.629a7.24 7.24 0 0 1-.984.273 38.442 38.442 0 0 1-5.239.11 6.767 6.767 0 0 1-1.746-.274 6.453 6.453 0 0 1 1.582-.11 19.35 19.35 0 0 0 6.278-.108c.066.015.101.05.11.109Zm0 0"/></g><g id="cF" clip-path="url(#ae)"><path style="stroke:none;fill-rule:evenodd;fill:#f82220;fill-opacity:1" d="M274.387 49.738a.573.573 0 0 1-.325.164c-1.636.211-3.273.211-4.91 0a8.532 8.532 0 0 1-1.312-.382.373.373 0 0 1 .273-.11c.575.16 1.157.27 1.746.328l.11-.11c1.215.29 2.433.29 3.656 0 .258.017.516.052.762.11Zm0 0"/></g><g id="cH" clip-path="url(#af)"><path style="stroke:none;fill-rule:evenodd;fill:#f32220;fill-opacity:1" d="M347.5 48.973a3.946 3.946 0 0 1 1.965.492c1.539.297 3.066.387 4.582.273v.328a32.925 32.925 0 0 1-3.926-.164 13.21 13.21 0 0 1-2.621-.93Zm0 0"/></g><g id="cJ" clip-path="url(#ag)"><path style="stroke:none;fill-rule:evenodd;fill:#f63737;fill-opacity:1" d="M301.668 59.785c1.875-.129 3.477.453 4.8 1.746-.472.528-.96 1.04-1.472 1.528-1.16-1.176-2.523-1.485-4.09-.926-1.43.691-2.195 1.836-2.293 3.437.426 2.844 2.063 4.028 4.91 3.551 1.051-.414 1.743-1.16 2.075-2.238a26.437 26.437 0 0 0-3.383-.11v-1.746h5.457c.367 2.922-.797 4.942-3.492 6.059-2.91.719-5.22-.137-6.93-2.566-1.332-2.832-.879-5.325 1.363-7.48a7.02 7.02 0 0 1 3.055-1.255Zm0 0"/></g><g id="cL" clip-path="url(#ah)"><path style="stroke:none;fill-rule:evenodd;fill:#f63737;fill-opacity:1" d="M257.691 60.004c1.344-.164 1.946.418 1.801 1.746-.601.969-1.363 1.113-2.289.438-.488-.895-.324-1.622.488-2.184Zm0 0"/></g><g id="cN" clip-path="url(#ai)"><path style="stroke:none;fill-rule:evenodd;fill:#f63737;fill-opacity:1" d="M290.21 60.004a9.398 9.398 0 0 1 2.294.164.447.447 0 0 1 .11.219 44.454 44.454 0 0 1-.548 1.582c-.386.011-.789.031-1.199.054-.472.414-.656.942-.547 1.582h1.856v1.747h-1.856v5.68h-2.074v-5.68h-1.308v-1.747h1.308c-.273-1.746.383-2.945 1.965-3.601Zm0 0"/></g><g id="cP" clip-path="url(#aj)"><path style="stroke:none;fill-rule:evenodd;fill:#f53737;fill-opacity:1" d="M178.031 60.113h8.188v1.965h-3.059v8.953h-2.07v-8.953h-3.059Zm0 0"/></g><g id="cR" clip-path="url(#ak)"><path style="stroke:none;fill-rule:evenodd;fill:#f63737;fill-opacity:1" d="M187.418 60.113h2.074c-.02 1.418 0 2.84.055 4.258 1.168-1.195 2.496-1.394 3.98-.601.614.492.961 1.128 1.04 1.91.054 1.785.07 3.566.054 5.351h-2.074c.02-1.566 0-3.129-.055-4.695-.394-1.066-1.105-1.34-2.129-.82a2.335 2.335 0 0 0-.707 1.039 35.705 35.705 0 0 0-.164 4.476h-2.074Zm0 0"/></g><g id="cT" clip-path="url(#al)"><path style="stroke:none;fill-rule:evenodd;fill:#f63737;fill-opacity:1" d="M211.316 60.113c.864-.035 1.72 0 2.563.11a608.215 608.215 0 0 1 3.984 10.808h-2.402a15.277 15.277 0 0 0-.871-2.566 25.352 25.352 0 0 0-4.04.055 91.71 91.71 0 0 1-.87 2.457c-.801.074-1.602.074-2.403 0a385.572 385.572 0 0 0 4.04-10.864Zm1.2 2.512c.484 1.25.957 2.504 1.418 3.766-.871.054-1.743.074-2.618.054.43-1.265.832-2.539 1.2-3.82Zm0 0"/></g><g id="cV" clip-path="url(#am)"><path style="stroke:none;fill-rule:evenodd;fill:#f63737;fill-opacity:1" d="M233.469 60.113h2.07c-.016 1.418 0 2.84.055 4.258 1.168-1.195 2.496-1.394 3.984-.601a2.7 2.7 0 0 1 1.035 1.91c.055 1.785.075 3.566.055 5.351h-2.07c.015-1.566 0-3.129-.055-4.695-.398-1.066-1.106-1.34-2.129-.82a2.343 2.343 0 0 0-.71 1.039 37.254 37.254 0 0 0-.165 4.476h-2.07Zm0 0"/></g><g id="cX" clip-path="url(#an)"><path style="stroke:none;fill-rule:evenodd;fill:#f63737;fill-opacity:1" d="M228.121 61.313h2.074v2.292h1.852v1.747h-1.852c-.02 1.128 0 2.257.055 3.386.082.196.215.364.379.492.406.063.805.043 1.203-.054.098.554.246 1.105.434 1.636a.41.41 0 0 1-.22.274c-1.21.473-2.32.309-3.327-.492-.27-.36-.45-.758-.543-1.2-.055-1.347-.074-2.695-.055-4.042h-1.309v-1.747h1.31Zm33.61 0h2.074v2.292h1.855v1.747h-1.855c-.02 1.128 0 2.257.054 3.386.082.196.215.364.38.492.406.063.804.043 1.202-.054.098.554.247 1.105.434 1.636a.404.404 0 0 1-.215.274c-1.215.473-2.324.309-3.328-.492a2.969 2.969 0 0 1-.547-1.2c-.055-1.347-.074-2.695-.055-4.042h-1.308v-1.747h1.308Zm0 0"/></g><g id="cZ" clip-path="url(#ao)"><path style="stroke:none;fill-rule:evenodd;fill:#f63737;fill-opacity:1" d="M199.203 63.277c2.942.035 4.36 1.528 4.254 4.477-1.89-.016-3.781 0-5.672.055.504 1.437 1.488 1.91 2.945 1.421.344-.253.672-.527.98-.82a8.44 8.44 0 0 1 1.638.82c-1.477 2.145-3.407 2.657-5.782 1.528-1.816-1.442-2.273-3.246-1.363-5.406.692-1.149 1.692-1.84 3-2.075Zm.219 1.75c.933-.043 1.59.356 1.965 1.2-1.125.109-2.254.144-3.383.109.191-.738.664-1.176 1.418-1.309Zm0 0"/></g><g id="db" clip-path="url(#ap)"><path style="stroke:none;fill-rule:evenodd;fill:#f63737;fill-opacity:1" d="M245.254 63.277c2.562-.105 4.07 1.094 4.527 3.606.121 2.465-1.027 3.937-3.437 4.422-2.758.093-4.29-1.235-4.582-3.985.16-2.238 1.324-3.582 3.492-4.043Zm.11 1.97c1.753.062 2.5.972 2.234 2.726-.54 1.32-1.465 1.703-2.782 1.148-.867-.758-1.105-1.683-.71-2.785a2.603 2.603 0 0 1 1.257-1.09Zm0 0"/></g><g id="dd" clip-path="url(#aq)"><path style="stroke:none;fill-rule:evenodd;fill:#f63737;fill-opacity:1" d="M254.637 63.277a2.6 2.6 0 0 1 1.472.328 7.23 7.23 0 0 1-.382 1.856c-1.704-.43-2.633.227-2.782 1.969-.054 1.199-.074 2.402-.054 3.601h-2.075v-7.426h1.965c-.015.333 0 .657.055.985.426-.695 1.023-1.13 1.8-1.313Zm0 0"/></g><g id="df" clip-path="url(#ar)"><path style="stroke:none;fill-rule:evenodd;fill:#f63737;fill-opacity:1" d="M281.809 63.277c2.562-.105 4.074 1.094 4.527 3.606.121 2.465-1.024 3.937-3.438 4.422-2.757.093-4.285-1.235-4.582-3.985.16-2.238 1.325-3.582 3.493-4.043Zm.109 1.97c1.758.062 2.5.972 2.238 2.726-.539 1.32-1.469 1.703-2.785 1.148-.867-.758-1.105-1.683-.707-2.785a2.577 2.577 0 0 1 1.254-1.09Zm0 0"/></g><g id="dh" clip-path="url(#as)"><path style="stroke:none;fill-rule:evenodd;fill:#f63737;fill-opacity:1" d="M311.379 63.277a5.249 5.249 0 0 1 3.277.82c.399.458.672.989.817 1.583.054 1.785.074 3.566.054 5.351h-2.074c.02-.222 0-.437-.055-.656-1.214 1.148-2.543 1.273-3.98.383-1.25-1.281-1.285-2.59-.11-3.93 1.282-.773 2.626-.902 4.036-.383.097-.726-.23-1.183-.98-1.363-.88-.125-1.61.148-2.184.816a20.5 20.5 0 0 1-1.473-.98c-.074-.074-.074-.148 0-.219.727-.808 1.617-1.281 2.672-1.422Zm0 4.477c.7-.035 1.398.035 2.074.219-.152 1.3-.883 1.828-2.18 1.586-.593-.223-.793-.641-.601-1.258.195-.254.433-.434.707-.547Zm0 0"/></g><g id="dj" clip-path="url(#at)"><path style="stroke:none;fill-rule:evenodd;fill:#f63737;fill-opacity:1" d="M320.875 63.277c1.172-.113 2.063.325 2.672 1.313 1.176-1.371 2.578-1.645 4.203-.82.46.394.77.886.926 1.476.152 1.922.207 3.852.164 5.785h-2.184c.02-1.676 0-3.347-.054-5.023-.688-.98-1.454-1.016-2.29-.11a5.905 5.905 0 0 0-.328.875c-.054 1.418-.074 2.84-.054 4.258h-2.075c.02-1.566 0-3.129-.054-4.695-.086-.703-.485-1.07-1.2-1.09-.785.09-1.257.527-1.417 1.309a35.706 35.706 0 0 0-.164 4.476h-2.075v-7.426h1.965c-.015.293 0 .586.055.875.5-.64 1.137-1.039 1.91-1.203Zm0 0"/></g><g id="dl" clip-path="url(#au)"><path style="stroke:none;fill-rule:evenodd;fill:#f63737;fill-opacity:1" d="M333.422 63.277c2.945.035 4.363 1.528 4.258 4.477-1.895-.016-3.785 0-5.676.055.508 1.437 1.488 1.91 2.95 1.421.339-.253.667-.527.98-.82a8.552 8.552 0 0 1 1.636.82c-1.48 2.145-3.406 2.657-5.785 1.528-1.816-1.442-2.273-3.246-1.363-5.406.695-1.149 1.695-1.84 3-2.075Zm.219 1.75c.937-.043 1.59.356 1.964 1.2-1.125.109-2.253.144-3.382.109.195-.738.668-1.176 1.418-1.309Zm0 0"/></g><g id="dn" clip-path="url(#av)"><path style="stroke:none;fill-rule:evenodd;fill:#f63737;fill-opacity:1" d="M342.59 63.277a2.6 2.6 0 0 1 1.473.328 7.23 7.23 0 0 1-.383 1.856c-1.703-.43-2.633.227-2.782 1.969-.054 1.199-.074 2.402-.054 3.601h-2.074v-7.426h1.964c-.015.333 0 .657.055.985.426-.695 1.024-1.13 1.8-1.313Zm0 0"/></g><g id="dp" clip-path="url(#aw)"><path style="stroke:none;fill-rule:evenodd;fill:#f63737;fill-opacity:1" d="M347.172 63.277a4.905 4.905 0 0 1 3.055.82c.261.298.48.63.656.985-.578.313-1.18.586-1.801.816-.516-.8-1.223-1.039-2.129-.707-.363.2-.402.434-.11.707.622.301 1.286.504 1.966.602 1.882.477 2.52 1.625 1.91 3.441-.727.97-1.707 1.442-2.946 1.418-1.597 0-2.742-.71-3.437-2.129a9.7 9.7 0 0 1 1.8-.93c.407.852 1.079 1.235 2.02 1.15.524-.052.762-.325.707-.821l-.164-.164a39.696 39.696 0 0 1-3.054-.98c-.938-.614-1.247-1.47-.926-2.567.543-.973 1.36-1.52 2.453-1.64Zm0 0"/></g><g id="dr" clip-path="url(#ax)"><path style="stroke:none;fill-rule:evenodd;fill:#f63737;fill-opacity:1" d="M218.41 63.605h2.07c-.015 1.602 0 3.204.055 4.805.172.668.61.996 1.313.985.82-.13 1.328-.602 1.527-1.422.055-1.453.07-2.91.055-4.368h2.07v7.426h-1.96c.015-.258 0-.511-.056-.765-1.175 1.195-2.5 1.394-3.984.601a2.696 2.696 0 0 1-1.035-1.8c-.055-1.82-.074-3.641-.055-5.462Zm0 0"/></g><g id="dt" clip-path="url(#ay)"><path style="stroke:none;fill-rule:evenodd;fill:#f63737;fill-opacity:1" d="M266.313 63.715a8.964 8.964 0 0 1 2.402-.055c.586 1.453 1.203 2.89 1.855 4.313.61-1.407 1.192-2.825 1.746-4.258a8.969 8.969 0 0 1 2.399-.055 275.525 275.525 0 0 0-4.582 10.649h-2.293a185.645 185.645 0 0 1 1.527-3.66 197.05 197.05 0 0 0-3.055-6.934Zm0 0"/></g><filter id="a" filterUnits="objectBoundingBox" x="0%" y="0%" width="100%" height="100%"><feColorMatrix in="SourceGraphic" values="0 0 0 0 1 0 0 0 0 1 0 0 0 0 1 0 0 0 1 0"/></filter></defs><use xlink:href="#az" mask="url(#aA)"/><use xlink:href="#aB" mask="url(#aC)"/><use xlink:href="#aD" mask="url(#aE)"/><use xlink:href="#aF" mask="url(#aG)"/><use xlink:href="#aH" mask="url(#aI)"/><use xlink:href="#aJ" mask="url(#aK)"/><use xlink:href="#aL" mask="url(#aM)"/><use xlink:href="#aN" mask="url(#aO)"/><use xlink:href="#aP" mask="url(#aQ)"/><use xlink:href="#aR" mask="url(#aS)"/><use xlink:href="#aT" mask="url(#aU)"/><use xlink:href="#aV" mask="url(#aW)"/><use xlink:href="#aX" mask="url(#aY)"/><use xlink:href="#aZ" mask="url(#ba)"/><use xlink:href="#bb" mask="url(#bc)"/><use xlink:href="#bd" mask="url(#be)"/><use xlink:href="#bf" mask="url(#bg)"/><use xlink:href="#bh" mask="url(#bi)"/><use xlink:href="#bj" mask="url(#bk)"/><use xlink:href="#bl" mask="url(#bm)"/><use xlink:href="#bn" mask="url(#bo)"/><use xlink:href="#bp" mask="url(#bq)"/><use xlink:href="#br" mask="url(#bs)"/><use xlink:href="#bt" mask="url(#bu)"/><use xlink:href="#bv" mask="url(#bw)"/><use xlink:href="#bx" mask="url(#by)"/><use xlink:href="#bz" mask="url(#bA)"/><use xlink:href="#bB" mask="url(#bC)"/><use xlink:href="#bD" mask="url(#bE)"/><use xlink:href="#bF" mask="url(#bG)"/><use xlink:href="#bH" mask="url(#bI)"/><use xlink:href="#bJ" mask="url(#bK)"/><use xlink:href="#bL" mask="url(#bM)"/><use xlink:href="#bN" mask="url(#bO)"/><use xlink:href="#bP" mask="url(#bQ)"/><use xlink:href="#bR" mask="url(#bS)"/><use xlink:href="#bT" mask="url(#bU)"/><use xlink:href="#bV" mask="url(#bW)"/><use xlink:href="#bX" mask="url(#bY)"/><use xlink:href="#bZ" mask="url(#ca)"/><use xlink:href="#cb" mask="url(#cc)"/><use xlink:href="#cd" mask="url(#ce)"/><use xlink:href="#cf" mask="url(#cg)"/><path style="stroke:none;fill-rule:evenodd;fill:#f53937;fill-opacity:1" d="M34.54 3.441c1.257.125 2.526.125 3.815 0l1.31.325a6.396 6.396 0 0 1 1.257-.11l.164.164c.496.059.988.149 1.473.274.187-.004.37-.04.543-.11.054.106.074.215.054.329.29.03.559-.008.82-.11.419.207.876.281 1.364.219v.437c.285.028.558-.007.82-.109a.508.508 0 0 1 .164.219c.453.078.895.222 1.309.437a.43.43 0 0 0 .273-.218c.051.136.07.289.055.437.457-.063.86.047 1.2.324.148-.011.296-.047.437-.105-.012.12.043.23.164.324a8.574 8.574 0 0 0 1.906.766l.11.218a15.78 15.78 0 0 1 3.327 1.965c.454.328.95.582 1.473.766v.328c.438-.055.692.129.766.543.246.105.5.18.765.219v.328c.473.199.91.472 1.309.82a.722.722 0 0 1 .11.492c.363.176.73.36 1.09.543a.337.337 0 0 0 .109.328c.699.618 1.32 1.313 1.855 2.075a.512.512 0 0 0 .438.218.337.337 0 0 0 .109.328c.379.387.742.79 1.09 1.204.094.203.129.43.11.652a.54.54 0 0 1 .437.11c.304.78.75 1.503 1.308 2.128.324.453.582.95.762 1.477.144.066.289.12.437.164-.117.508.028.945.438 1.308.125.735.453 1.356.98 1.856a.94.94 0 0 0-.109.383c.36.699.652 1.43.875 2.183.25 1.285.543 2.559.871 3.825.098-.11.172-.11.219 0a3.209 3.209 0 0 0-.11 1.09.56.56 0 0 1 .329.054c-.18.516-.11.988.218 1.422-.043.363-.078.727-.109 1.09.02.27.094.527.219.765a19.38 19.38 0 0 0 0 4.094c-.13.215-.203.45-.219.711.098.48.133.914.11 1.309a.505.505 0 0 1-.329.054 45.587 45.587 0 0 1-1.09 5.516c.047.2.082.398.11.602a.512.512 0 0 0-.438.218.843.843 0 0 0 0 .817c-.14.234-.328.437-.547.601-.086.305-.16.617-.218.93a.465.465 0 0 0 .109.219.649.649 0 0 1-.543.164c.031.258-.004.523-.11.761-.253.567-.507 1.13-.765 1.692a31.334 31.334 0 0 1-2.184 3.332c-.16.309-.195.617-.105.93a3.654 3.654 0 0 1-.547-.055c.074.437-.11.617-.547.543.02.226-.015.453-.11.656-.608.59-1.19 1.211-1.745 1.856a.786.786 0 0 0-.11.437c-.398-.035-.578.145-.543.547a.533.533 0 0 0-.437.11c-.23.277-.484.535-.766.765a.765.765 0 0 0-.11.434.527.527 0 0 0-.433.109l-.656.766a4.33 4.33 0 0 0-1.2.71 4.423 4.423 0 0 0-.71.926c-.242-.144-.406-.07-.488.22a4.4 4.4 0 0 1-1.203.437v.328c-.348.183-.711.328-1.09.437v.328a5.431 5.431 0 0 0-1.418.543c.043.305-.047.38-.274.219a.789.789 0 0 0-.328.438.563.563 0 0 0-.273-.11c-.813.38-1.63.742-2.453 1.094-.121.094-.176.203-.164.328a1.12 1.12 0 0 0-.329-.11 2.44 2.44 0 0 1-.87.274.726.726 0 0 0-.493.379.698.698 0 0 0-.328-.11c-.52.137-.992.356-1.418.657a.579.579 0 0 0-.273-.11 1.496 1.496 0 0 0-.438.329c-.535-.215-.973-.11-1.309.328a2.111 2.111 0 0 1-.492-.11l-.433.329a4.215 4.215 0 0 1-1.258-.11l-.543.11c.152.128.133.203-.055.218a6.212 6.212 0 0 0-1.039-.11c-1.57.02-3.117.13-4.637.329-.183-.293-.363-.293-.546 0-.141-.254-.36-.363-.653-.328l-.383.055c.125.097.11.191-.054.273a.565.565 0 0 1-.055-.328 6.452 6.452 0 0 1-1.637-.219l-.547.11c.11.097.11.167 0 .218a.789.789 0 0 1-.164-.328l-.761.11a.56.56 0 0 1-.055-.329c-.23.055-.43.09-.602.11-.328-.39-.73-.5-1.199-.328-.277-.258-.586-.332-.926-.22l-.437-.327a22.186 22.186 0 0 1-3.984-1.418c-.227.156-.317.086-.274-.219-.183.016-.367 0-.543-.055a32.634 32.634 0 0 1-2.73-1.582c-.313.16-.461.051-.434-.328a3.645 3.645 0 0 1-.984-.437.418.418 0 0 0-.164.11.982.982 0 0 1-.055-.438.687.687 0 0 0-.488.109l-.11-.328h-.328c-.031-.258-.14-.332-.328-.219-.164-.082-.18-.172-.055-.273a7.285 7.285 0 0 0-1.418-1.145c-.105.09-.214.11-.328.055.133-.098.133-.188 0-.274-.386-.3-.75-.629-1.09-.984a.346.346 0 0 0-.328-.11v-.324c-.328-.039-.508-.218-.547-.547a2.166 2.166 0 0 1-1.308-1.312.882.882 0 0 1-.438-.055.34.34 0 0 0 .11-.164 2.243 2.243 0 0 1-.543-.652 1.425 1.425 0 0 1-.656-.656c-.239.109-.274.035-.11-.22a1.465 1.465 0 0 0-.656-.491.39.39 0 0 0 .11-.219 1.759 1.759 0 0 1-.762-1.254h-.329a3.24 3.24 0 0 1-.218-.766.501.501 0 0 0-.383.11 8.411 8.411 0 0 0-.164-.98.46.46 0 0 0-.38.109.78.78 0 0 1 .056-.438c-.875-1.488-1.715-3-2.512-4.531a.701.701 0 0 0 .11-.492c-.325.008-.4-.121-.22-.383a1.442 1.442 0 0 1-.218-.93c-.407.016-.516-.148-.328-.488a1.262 1.262 0 0 0-.325-.547c.141-.398.032-.723-.328-.984a.698.698 0 0 0 .11-.328c-.235-.352-.309-.715-.22-1.09-.308-.469-.417-.957-.327-1.477a2.337 2.337 0 0 0-.328-.87c.191-.575.082-1.087-.329-1.528.098-2.239.137-4.477.11-6.719-.254-.203-.254-.387 0-.543a.39.39 0 0 0-.11-.219c.231-.3.38-.648.438-1.039a.756.756 0 0 0-.219-.492c.426-.55.535-1.133.328-1.746.414-.313.524-.715.329-1.2.09-.195.199-.374.328-.546a.593.593 0 0 1-.055-.492l.11.11a8.34 8.34 0 0 0 .273-.602c-.125-.31-.051-.579.215-.817a1.525 1.525 0 0 1-.106-.383c.121-.07.234-.164.324-.273.145-.488.328-.961.547-1.422-.152-.25-.082-.434.219-.543.559-1.5 1.293-2.93 2.184-4.262a.77.77 0 0 1-.055-.433c.11.09.234.125.379.11-.086-.477.094-.731.547-.767.109-.543.363-1.015.765-1.421-.09-.102-.11-.211-.054-.325l.109.11c.262-.246.465-.543.598-.875.148-.184.336-.332.546-.438a5.463 5.463 0 0 1 1.2-1.418.359.359 0 0 0-.11-.164c.164-.12.352-.215.547-.273.133-.125.133-.254 0-.383l.164-.164c.121.133.25.133.383 0 .133-.125.133-.254 0-.383.461-.047.754-.281.871-.707a4.904 4.904 0 0 1 1.418-.984.468.468 0 0 0-.11-.383.463.463 0 0 1 .384.055.79.79 0 0 1 .492-.22.337.337 0 0 1 .11-.327c.37-.207.644-.5.816-.871.128.132.257.132.382 0-.148-.13-.129-.239.055-.329.164.137.328.137.492 0a4.725 4.725 0 0 1 1.09-.765.873.873 0 0 0 .274-.438c.293.125.476.016.546-.324.184.113.293.04.325-.219.175.125.359.125.547 0a1.46 1.46 0 0 1 1.035-.547c-.043-.304.047-.375.273-.218a.8.8 0 0 1 .492-.219.337.337 0 0 1 .11-.328.905.905 0 0 0 .656 0 .529.529 0 0 1 .05-.328c.227.101.462.136.712.11v-.329a10.944 10.944 0 0 0 2.183-.652 1.48 1.48 0 0 0 .871-.547c.242.093.504.133.766.11-.027-.337.117-.411.437-.22.32-.16.633-.34.926-.546a6.32 6.32 0 0 1 1.801 0 .56.56 0 0 1 .055-.329 1.5 1.5 0 0 0 .547.11 6.372 6.372 0 0 0 1.527-.438c.617.067 1.25.102 1.91.11Zm0 0"/><path style="stroke:none;fill-rule:evenodd;fill:#f53838;fill-opacity:1" d="M35.52 12.504c2.468-.106 4.667.586 6.601 2.074.367.156.75.266 1.145.328v.328c.66.387 1.336.75 2.02 1.09a9.076 9.076 0 0 1 1.69-.054c2.11-.868 4.274-1.032 6.493-.493.683.328 1.394.586 2.129.766v.437c.379.047.75.157 1.09.329v.328c.265.039.519.113.765.215l.766 1.093h.324v.438c.477 0 .84.199 1.094.601a.872.872 0 0 0 .543.27v.328a.533.533 0 0 1 .437.11.663.663 0 0 0 .438.437.536.536 0 0 1 .11.437h.327v.329h.434a.982.982 0 0 0 .054.437c.25.242.415.531.493.871h.328c-.024.379.12.672.437.875 1.317 2.461 1.754 5.082 1.309 7.863a5.017 5.017 0 0 1-.93 2.946c-.066.351-.16.699-.273 1.039.066.238.136.476.218.71h.329c-.036.259.004.524.109.762.234.414.414.852.547 1.313.219 1.059.437 2.113.652 3.164a.41.41 0 0 1-.219.273c.145.372.215.774.22 1.204l-.325 2.894a72.157 72.157 0 0 1-.984 3.602h-.328a8.851 8.851 0 0 1-.653 1.746.851.851 0 0 0-.328.218 22.304 22.304 0 0 1-1.09 1.965h-.328a1.93 1.93 0 0 1-.656.875.533.533 0 0 0-.11.438.726.726 0 0 0-.437.11 8.281 8.281 0 0 0-1.309 1.198 31.63 31.63 0 0 1-3.273 1.696 6.477 6.477 0 0 1-2.29 1.91.75.75 0 0 0-.218.328c-.539.195-1.05.45-1.527.762-.66.265-1.332.484-2.02.656a41.04 41.04 0 0 1-4.312.547c-1.399-.184-2.797-.363-4.2-.547a16.39 16.39 0 0 0-3-.875l-.218-.219a583.693 583.693 0 0 0-6.383-.215 22.656 22.656 0 0 0-3.223-.656 10.814 10.814 0 0 1-2.398-1.094 6.625 6.625 0 0 1-1.418-.437c-.488-.086-.98-.16-1.473-.215-1.75-.7-3.515-1.355-5.293-1.969a46.449 46.449 0 0 1-3.93-2.566c-.363-.402-.726-.8-1.09-1.2a1.384 1.384 0 0 1-.109-.6h-.437c-.387-.7-.715-1.43-.98-2.184a10.193 10.193 0 0 0-.329-1.747.418.418 0 0 1 .219-.273.542.542 0 0 1-.219-.383 14.63 14.63 0 0 0 .328-1.746.8.8 0 0 0 .215-.328 30.212 30.212 0 0 1-.87-4.367.863.863 0 0 1 .218-.438c-.285-.281-.285-.554 0-.82a.755.755 0 0 1-.219-.488c.207-1.242.426-2.48.656-3.715a14.2 14.2 0 0 1 .98-2.457 9.91 9.91 0 0 1 .11-3.219c.262-.691.516-1.383.762-2.078.074-1.45.547-2.742 1.422-3.875.078-.191.117-.395.11-.602h.433c.156-.375.34-.738.547-1.09h.328c.136-.421.426-.675.87-.765V20.8a2.3 2.3 0 0 0 1.204-.653c.508-.214 1.02-.433 1.527-.656.368-.055.73-.129 1.09-.219l.219-.218a21.962 21.962 0 0 1 4.582-.328v-.329l1.094-.218v-.328a14.356 14.356 0 0 1 1.527-.27 2.148 2.148 0 0 1 1.035-.492 7.46 7.46 0 0 1 1.473-.11 1.09 1.09 0 0 1 .11-.656c.347-.617.75-1.18 1.198-1.691a.734.734 0 0 0 .657-.492 8.424 8.424 0 0 1 3.218-1.418c.114-.04.168-.11.165-.22Zm0 0"/><path style="stroke:none;fill-rule:evenodd;fill:#f77878;fill-opacity:1" d="M51.234 31.285a.951.951 0 0 1-.437.328c2.129.07 4.238.145 6.328.219-2.293.07-4.55-.004-6.766-.219.274-.152.567-.261.875-.328Zm0 0"/><path style="stroke:none;fill-rule:evenodd;fill:#fdd9d9;fill-opacity:1" d="M44.031 30.52c-.21.312-.504.53-.875.656a45.246 45.246 0 0 0-.11 4.367h.329a.507.507 0 0 1-.434.11c-.02-1.528 0-3.06.055-4.587a.933.933 0 0 0 .488-.328c.168-.101.356-.175.547-.218Zm0 0"/><path style="stroke:none;fill-rule:evenodd;fill:#f98d8c;fill-opacity:1" d="M43.484 30.738a.933.933 0 0 1-.488.328 94.488 94.488 0 0 0-.055 4.586.507.507 0 0 0 .434-.109l.656-.219c-.293.383-.695.567-1.199.547-.02-1.64 0-3.277.055-4.914.183-.105.386-.18.597-.219Zm0 0"/><path style="stroke:none;fill-rule:evenodd;fill:#fbaead;fill-opacity:1" d="M45.23 29.973c-.308.355-.707.539-1.199.547.39-.204.79-.387 1.2-.547Zm0 0"/><path style="stroke:none;fill-rule:evenodd;fill:#fbadac;fill-opacity:1" d="M55.05 29.648a4.563 4.563 0 0 1-1.308.543c.36-.343.797-.523 1.309-.543Zm0 0"/><path style="stroke:none;fill-rule:evenodd;fill:#fa8c8a;fill-opacity:1" d="M56.578 28.992c-.375.297-.812.48-1.308.547.382-.266.82-.445 1.308-.547Zm0 0"/><path style="stroke:none;fill-rule:evenodd;fill:#fba4a2;fill-opacity:1" d="M46.648 28.008c.497.199 1.008.344 1.528.437.047.27-.063.414-.324.438.113-.117.113-.227 0-.328a6.357 6.357 0 0 1-1.204-.547Zm0 0"/><path style="stroke:none;fill-rule:evenodd;fill:#f77272;fill-opacity:1" d="M58.98 25.387h.11c-2.727.199-5.492.293-8.293.273a.259.259 0 0 1 .11.164h-.22a5.706 5.706 0 0 0-.109-.219c2.82-.07 5.621-.144 8.402-.218Zm0 0"/><path style="stroke:none;fill-rule:evenodd;fill:#faaeae;fill-opacity:1" d="M58.98 25.387c-2.78.074-5.582.148-8.402.218.04.075.074.149.11.22a.514.514 0 0 1-.438-.329c2.91-.11 5.82-.144 8.73-.11Zm0 0"/><path style="stroke:none;fill-rule:evenodd;fill:#fefdfd;fill-opacity:1" d="M42.941 22.332h16.04v3.055c-2.91-.035-5.82 0-8.731.11.086.194.23.304.438.327h.218c.746.352 1.512.66 2.29.93.347.191.675.41.984.652.941.274 1.855.64 2.726 1.094.106.078.121.168.055.273a2.198 2.198 0 0 0-.383.22 3.526 3.526 0 0 0-1.308.546c-.036.09-.11.125-.22.11-.51.019-.948.199-1.308.542-.812.414-1.652.782-2.508 1.094a3.154 3.154 0 0 0-.875.328c-.097.078-.132.184-.109.328h6.875v2.946H46.539a1.05 1.05 0 0 0-.11-.653c-.062.012-.1.047-.105.11a.617.617 0 0 1-.328.105 3.558 3.558 0 0 1-.984.219v.328a.654.654 0 0 0-.543.219l-.438.11-.656.218h-.328a45.246 45.246 0 0 1 .11-4.367c.37-.125.663-.344.874-.656.492-.008.89-.192 1.2-.547a5.592 5.592 0 0 0 1.855-.926c.25-.074.508-.129.766-.164.261-.024.37-.168.324-.438a7.822 7.822 0 0 1-1.528-.437 76.543 76.543 0 0 0-3.164-1.418 1.311 1.311 0 0 0-.543-.328Zm0 0"/><path style="stroke:none;fill-rule:evenodd;fill:#fbb4b4;fill-opacity:1" d="M42.941 22.332c5.329-.11 10.672-.148 16.04-.11.109 1.036.144 2.09.109 3.165h-.11v-3.055Zm0 0"/><path style="stroke:none;fill-rule:evenodd;fill:#f76463;fill-opacity:1" d="M42.832 22.113c5.402-.039 10.785 0 16.148.11-5.367-.04-10.71 0-16.039.109v3.93a8.818 8.818 0 0 1-.218-2.02c0-.719.039-1.43.109-2.129Zm0 0"/><path style="stroke:none;fill-rule:evenodd;fill:#f6383a;fill-opacity:1" d="M42.832 22.113c-.074.707-.11 1.418-.11 2.13 0 .714.071 1.386.22 2.019.21.066.39.175.542.328a1.233 1.233 0 0 1-.761-.219 62.458 62.458 0 0 1-.164-3.82c-.196.308-.36.637-.493.98-.285.102-.5.285-.656.547-.57.961-.988 1.98-1.254 3.059a33.69 33.69 0 0 1-.98 2.293c-.332.289-.656.578-.985.87-.043.485.012.958.164 1.423a4.012 4.012 0 0 1 1.418 2.293 24.727 24.727 0 0 1-.109 5.347 3.103 3.103 0 0 0-.379.547 9.592 9.592 0 0 0-.164 4.586 45.26 45.26 0 0 1-.766 1.91c-.02.414.075.797.274 1.149.039.578.055 1.144.055 1.691a9.646 9.646 0 0 1-.926 1.477c-.192.453-.32.93-.383 1.418h-.328a21.308 21.308 0 0 0-1.254 3.277 3.892 3.892 0 0 0 .543 2.621.45.45 0 0 1 0 .434c-1.125 1.547-2.563 1.93-4.309 1.148a4.852 4.852 0 0 1-.98-1.148 3.925 3.925 0 0 1-1.692-1.856 16.66 16.66 0 0 0-1.421-3.273c-.41.101-.649.355-.707.761a5.431 5.431 0 0 1-1.364.657c-.039 1.004-.383 1.879-1.039 2.62-.27.184-.543.364-.816.548a41.06 41.06 0 0 1-7.586-2.785 13.592 13.592 0 0 1-3.656-5.735 48.505 48.505 0 0 1-.871-3.492c-.211-1.078.043-2.027.761-2.84a23.566 23.566 0 0 0-.433-4.914c-.782-.828-1.036-1.809-.766-2.95.176-.788.379-1.57.602-2.347a7.061 7.061 0 0 1 .218-3.328 5.837 5.837 0 0 1 1.473-1.531 16.568 16.568 0 0 1 1.746-3.274 3.885 3.885 0 0 1 2.453-1.148 33.532 33.532 0 0 1 2.512-3.004c.492-.473 1-.93 1.527-1.363a7.926 7.926 0 0 1 3.164-.11c.239.164.473.328.711.493.399-.29.778-.602 1.145-.93 1.332-.586 2.535-.387 3.601.601.309.559.637 1.102.98 1.637a37.986 37.986 0 0 0 2.294-1.144l.98-.164c.356.093.73.113 1.094.054a91.427 91.427 0 0 1 2.508-1.531l1.148-.273c.367.144.75.238 1.145.273.254.242.547.406.87.492 0 .363.184.547.548.547.113.57.258 1.137.437 1.691a8.02 8.02 0 0 1-.328 1.04c.16.113.348.187.547.218Zm0 0"/><path style="stroke:none;fill-rule:evenodd;fill:#f99293;fill-opacity:1" d="M13.586 32.703a77.512 77.512 0 0 0-.547 1.856c.043-.364.098-.727.164-1.09.082-.293.211-.551.383-.766Zm0 0"/><path style="stroke:none;fill-rule:evenodd;fill:#fbbebe;fill-opacity:1" d="M25.809 33.688c.035-.094.109-.13.218-.11h12.438v.656c-.106.192-.14.41-.11.653l-.218.765c.023-.66.097-1.316.218-1.965Zm0 0"/><path style="stroke:none;fill-rule:evenodd;fill:#f88081;fill-opacity:1" d="M26.027 33.578c4.18-.11 8.364-.144 12.547-.11.035.278-.004.536-.11.766v-.656Zm0 0"/><path style="stroke:none;fill-rule:evenodd;fill:#fa908f;fill-opacity:1" d="M21.008 32.156v.328a2.728 2.728 0 0 0-.766.547c.153-.383.41-.672.766-.875Zm0 0"/><path style="stroke:none;fill-rule:evenodd;fill:#fa9191;fill-opacity:1" d="M23.844 30.41a18.81 18.81 0 0 1-1.418.602c-.348.293-.711.566-1.094.82.629-.82 1.465-1.293 2.512-1.422Zm0 0"/><path style="stroke:none;fill-rule:evenodd;fill:#f76365;fill-opacity:1" d="M35.738 29.754c-.058.18-.097.363-.11.547-3.929-.031-7.858.004-11.784.11 0-.071.035-.11.11-.11 3.866-.07 7.722-.145 11.566-.219-.008-.164.066-.273.218-.328Zm0 0"/><path style="stroke:none;fill-rule:evenodd;fill:#fbbebf;fill-opacity:1" d="M35.52 30.082c-3.844.074-7.7.148-11.567.219 3.817-.215 7.672-.29 11.567-.219Zm0 0"/><path style="stroke:none;fill-rule:evenodd;fill:#faa4a5;fill-opacity:1" d="M36.281 28.883c-.093.347-.277.64-.543.87.094-.347.278-.64.543-.87Zm0 0"/><path style="stroke:none;fill-rule:evenodd;fill:#faa5a6;fill-opacity:1" d="M36.719 28.117c-.055.309-.2.563-.438.766.067-.309.211-.567.438-.766Zm0 0"/><path style="stroke:none;fill-rule:evenodd;fill:#fdc5c5;fill-opacity:1" d="M16.531 27.246c-.12.5-.394.902-.816 1.2a18.117 18.117 0 0 1-1.367 2.292c.218-.508.437-1.02.656-1.527a.815.815 0 0 0 .492-.766 5.796 5.796 0 0 1 1.035-1.199Zm0 0"/><path style="stroke:none;fill-rule:evenodd;fill:#faa5a6;fill-opacity:1" d="M16.969 26.7a.82.82 0 0 1-.438.546.823.823 0 0 1 .438-.547Zm0 0"/><path style="stroke:none;fill-rule:evenodd;fill:#fcb0b0;fill-opacity:1" d="M20.023 24.188c-.289.214-.546.472-.761.761a6.346 6.346 0 0 0-1.637 1.094 5.843 5.843 0 0 1 2.398-1.855Zm0 0"/><path style="stroke:none;fill-rule:evenodd;fill:#faa3a3;fill-opacity:1" d="M38.902 24.625a2.982 2.982 0 0 1-.765 1.309c.199-.47.457-.91.765-1.309Zm0 0"/><path style="stroke:none;fill-rule:evenodd;fill:#fefefd;fill-opacity:1" d="M39.773 23.313c-.18.507-.468.945-.87 1.312-.31.398-.567.84-.766 1.309a1.893 1.893 0 0 1-.707.984c-.2.3-.348.633-.438.98a.771.771 0 0 1-.273.22c-.227.198-.371.456-.438.765-.265.23-.449.523-.543.87-.152.056-.226.165-.218.329-3.895-.07-7.75.004-11.567.219-.074 0-.11.039-.11.11-1.046.128-1.882.6-2.511 1.421-.219 0-.324.11-.324.324a1.712 1.712 0 0 0-.766.875c-.25.23-.394.524-.437.875a4.994 4.994 0 0 0-.871 2.403 7.176 7.176 0 0 0-.22 1.8c0 .621.036 1.22.11 1.801.192.55.34 1.117.438 1.692a5.772 5.772 0 0 0 2.18 2.402l.656.164v.11c1.472.148 2.98.218 4.527.218 1.527 0 3.04-.035 4.531-.11.18-.738.29-1.5.324-2.292v-.98c.13-.305.2-.634.22-.985a221.612 221.612 0 0 1-9.93-.328l.109-.219c.336-.3.59-.664.766-1.09a1.74 1.74 0 0 0 .543-.875c.363-.543.726-1.09 1.093-1.637a.817.817 0 0 0 .434-.546c.3-.63.664-1.215 1.094-1.746h12.546a13.265 13.265 0 0 0-.218 1.964 69.583 69.583 0 0 0-.325 3.496 15.84 15.84 0 0 0-.218 2.184v.219a3.76 3.76 0 0 0-.219 1.527v.11a.367.367 0 0 0-.164.218c-.059.801-.113 1.602-.164 2.403v.109a.968.968 0 0 0-.164.434 51.228 51.228 0 0 0-.274 3.277.259.259 0 0 0-.164.11c-.156.679-.25 1.374-.27 2.074-5.019.019-10.042 0-15.062-.055a12.29 12.29 0 0 1-1.199-.164c-1.527-.39-2.82-1.192-3.875-2.403a15.607 15.607 0 0 1-2.562-4.476 11.366 11.366 0 0 0-.438-1.637 58.015 58.015 0 0 1-.164-1.637.229.229 0 0 0-.164-.109 40.083 40.083 0 0 1 .328-6.773c.176-.621.356-1.239.547-1.856.121-.7.379-1.367.762-1.965.511-.73.968-1.496 1.367-2.293.422-.297.695-.699.816-1.199a.82.82 0 0 0 .438-.547c.187-.262.406-.48.656-.656a6.346 6.346 0 0 1 1.637-1.094c.215-.289.472-.547.761-.762l.438-.218c1-.395 2.02-.742 3.055-1.04.468-.097.941-.171 1.418-.218 4.984-.055 9.968-.07 14.949-.055 0 .223-.035.446-.11.657Zm0 0"/><path style="stroke:none;fill-rule:evenodd;fill:#fee7e7;fill-opacity:1" d="M24.934 22.55c5.093-.073 10.152 0 15.168.216a.912.912 0 0 1-.329.547c.075-.211.11-.434.11-.657-4.98-.015-9.965 0-14.95.055-.476.047-.949.121-1.417.219a33.46 33.46 0 0 0-3.055 1.039 8.195 8.195 0 0 1 3.383-1.313c.367.02.734-.015 1.09-.105Zm0 0"/><path style="stroke:none;fill-rule:evenodd;fill:#fbc1c1;fill-opacity:1" d="M24.934 22.55c2.527-.073 5.074-.109 7.64-.109 2.582 0 5.13.07 7.637.215 0 .074-.035.11-.11.11-5.015-.215-10.074-.29-15.167-.215Zm0 0"/><path style="stroke:none;fill-rule:evenodd;fill:#f86e70;fill-opacity:1" d="M40.21 22.656a132.766 132.766 0 0 0-7.636-.215c-2.566 0-5.113.036-7.64.11-.356.09-.723.125-1.09.105.324-.093.652-.183.98-.27a539.263 539.263 0 0 1 15.496 0c.153.157.114.25-.11.27Zm0 0"/><path style="stroke:none;fill-rule:evenodd;fill:#fccece;fill-opacity:1" d="M50.36 31.613c2.214.215 4.472.29 6.765.219h.11c.035 1.074 0 2.129-.11 3.164-3.527.04-7.059 0-10.586-.11h10.586v-2.945H50.25c-.023-.144.012-.25.11-.328Zm0 0"/><path style="stroke:none;fill-rule:evenodd;fill:#f97774;fill-opacity:1" d="M45.996 34.45c-.281.214-.574.413-.875.6-.195.122-.422.18-.652.165a.654.654 0 0 1 .543-.219v-.328c.336-.027.668-.098.984-.219Zm0 0"/><path style="stroke:none;fill-rule:evenodd;fill:#f98686;fill-opacity:1" d="M46.324 34.344c.004-.063.043-.098.106-.11.105.2.144.43.11.653 3.526.11 7.058.148 10.585.11-3.563.108-7.129.148-10.695.108.035-.277 0-.535-.106-.761Zm0 0"/><path style="stroke:none;fill-rule:evenodd;fill:#f64847;fill-opacity:1" d="M57.234 31.832c.145.52.22 1.086.22 1.691 0 .582-.04 1.168-.11 1.747l-5.457.054c-1.856 0-3.676-.074-5.457-.219 3.586.036 7.148 0 10.695-.109.11-1.035.145-2.09.11-3.164Zm0 0"/><path style="stroke:none;fill-rule:evenodd;fill:#fa9b9c;fill-opacity:1" d="M24.715 35.434a.817.817 0 0 1-.434.546.817.817 0 0 1 .434-.546Zm0 0"/><path style="stroke:none;fill-rule:evenodd;fill:#f87e7e;fill-opacity:1" d="M38.355 34.887a44.231 44.231 0 0 1-.382 3.933.62.62 0 0 1-.16.328c.078-1.168.187-2.336.324-3.496Zm0 0"/><path style="stroke:none;fill-rule:evenodd;fill:#f86767;fill-opacity:1" d="M19.805 33.906c-.38 1-.707 2.02-.98 3.055 0-.223.038-.441.109-.652.086-.891.378-1.692.87-2.403Zm0 0"/><use xlink:href="#ch" mask="url(#ci)"/><path style="stroke:none;fill-rule:evenodd;fill:#fcb6b5;fill-opacity:1" d="M45.121 37.18a7.718 7.718 0 0 0-2.508 0c.766-.348 1.567-.403 2.399-.164a.245.245 0 0 1 .11.164Zm0 0"/><path style="stroke:none;fill-rule:evenodd;fill:#f99696;fill-opacity:1" d="M55.05 37.18a39.73 39.73 0 0 1 4.15-.11c.03.246-.005.465-.11.657v-.547Zm0 0"/><path style="stroke:none;fill-rule:evenodd;fill:#fefcfc;fill-opacity:1" d="M45.121 37.18c.719.554 1.39 1.172 2.02 1.86 2.07 2.214 4.144 4.437 6.218 6.66a.245.245 0 0 1 .164-.11c.13-.293.258-.582.383-.875.082-.914.176-1.824.274-2.73v-.22c.336-.75.5-1.55.492-2.402.183-.648.348-1.304.488-1.965 1.27-.109 2.547-.144 3.82-.109v.438c-.328 2.3-.69 4.593-1.09 6.878v.22a2.123 2.123 0 0 0-.382.874 44.441 44.441 0 0 1-.383 2.95 8.56 8.56 0 0 0-.383 1.855c-.254.34-.527.668-.816.98-.95.54-1.969.684-3.055.438-.473-.434-.945-.871-1.418-1.309a4.279 4.279 0 0 0-1.094-1.203 57.856 57.856 0 0 0-4.582-4.805 2.842 2.842 0 0 0-.875-.98c-.054-.191-.144-.227-.27-.11l-.163.653c-.211.898-.356 1.812-.438 2.73.02.11-.02.184-.11.22-.144.905-.288 1.816-.437 2.73v.218a13.86 13.86 0 0 0-.437 1.856h-4.035c.082-.43.12-.871.11-1.309a.621.621 0 0 1 .108-.328 6.74 6.74 0 0 0 .434-2.62c.016-.188.05-.372.11-.548a128.9 128.9 0 0 0 1.312-7.426v-.328c.258-.699.66-1.316 1.2-1.855a.721.721 0 0 1 .327-.328 7.718 7.718 0 0 1 2.508 0Zm0 0"/><path style="stroke:none;fill-rule:evenodd;fill:#fdcbca;fill-opacity:1" d="M55.05 37.18h4.04v.547h-.11v-.438c-1.273-.035-2.55 0-3.82.11-.14.66-.305 1.316-.488 1.964a5.68 5.68 0 0 1-.492 2.403c.16-1.551.453-3.082.87-4.586Zm0 0"/><path style="stroke:none;fill-rule:evenodd;fill:#fa9c9d;fill-opacity:1" d="M23.188 37.617a1.74 1.74 0 0 1-.543.875 1.74 1.74 0 0 1 .543-.875Zm0 0"/><use xlink:href="#cj" mask="url(#ck)"/><path style="stroke:none;fill-rule:evenodd;fill:#f99796;fill-opacity:1" d="M42.285 37.508a5.095 5.095 0 0 0-1.2 1.855 2.31 2.31 0 0 1 .38-1.09c.191-.355.465-.609.82-.765Zm0 0"/><path style="stroke:none;fill-rule:evenodd;fill:#f99899;fill-opacity:1" d="M18.934 36.309c-.07.21-.11.43-.11.652v2.95c-.074-.583-.11-1.18-.11-1.802 0-.64.075-1.242.22-1.8Zm0 0"/><use xlink:href="#cl" mask="url(#cm)"/><path style="stroke:none;fill-rule:evenodd;fill:#fb9f9e;fill-opacity:1" d="M22.645 38.492c-.176.426-.43.79-.766 1.09a2.24 2.24 0 0 1 .766-1.09Zm0 0"/><use xlink:href="#cn" mask="url(#co)"/><path style="stroke:none;fill-rule:evenodd;fill:#fcdddd;fill-opacity:1" d="M21.77 39.8c3.308.184 6.617.294 9.93.329-3.384.074-6.731 0-10.04-.219 0-.07.035-.11.11-.11Zm0 0"/><use xlink:href="#cp" mask="url(#cq)"/><path style="stroke:none;fill-rule:evenodd;fill:#f87c7e;fill-opacity:1" d="M21.66 39.91c3.309.219 6.656.293 10.04.219-.02.351-.09.68-.22.984v-.875H21.441c-.023-.183.051-.293.22-.328Zm0 0"/><use xlink:href="#cr" mask="url(#cs)"/><use xlink:href="#ct" mask="url(#cu)"/><use xlink:href="#cv" mask="url(#cw)"/><path style="stroke:none;fill-rule:evenodd;fill:#f87c7c;fill-opacity:1" d="M37.813 39.148c.015.582 0 1.164-.055 1.747a.983.983 0 0 1-.164.437c.023-.75.097-1.477.218-2.184Zm0 0"/><path style="stroke:none;fill-rule:evenodd;fill:#f97876;fill-opacity:1" d="M58.98 37.727h.11a45.22 45.22 0 0 1-1.2 6.878c.4-2.285.762-4.578 1.09-6.878Zm0 0"/><use xlink:href="#cx" mask="url(#cy)"/><use xlink:href="#cz" mask="url(#cA)"/><path style="stroke:none;fill-rule:evenodd;fill:#f97a79;fill-opacity:1" d="M12.71 41.332c.071.012.126.047.165.11.047.546.102 1.093.164 1.636a.259.259 0 0 1-.164-.11 16.468 16.468 0 0 0-.164-1.636Zm0 0"/><path style="stroke:none;fill-rule:evenodd;fill:#f88485;fill-opacity:1" d="M37.594 41.55a4.413 4.413 0 0 1-.219 1.528 3.76 3.76 0 0 1 .219-1.527Zm0 0"/><path style="stroke:none;fill-rule:evenodd;fill:#f87473;fill-opacity:1" d="M44.902 43.625c.371.262.664.59.875.98a2.842 2.842 0 0 1-.875-.98Zm0 0"/><path style="stroke:none;fill-rule:evenodd;fill:#f99596;fill-opacity:1" d="M31.48 42.094a11.884 11.884 0 0 1-.324 2.293v-.328c.078-.579.133-1.16.16-1.746a.379.379 0 0 1 .164-.22Zm0 0"/><path style="stroke:none;fill-rule:evenodd;fill:#f75659;fill-opacity:1" d="M31.156 44.059v.328c-3.02.035-6.043 0-9.058-.11v-.109c3.039.18 6.058.145 9.058-.11Zm0 0"/><path style="stroke:none;fill-rule:evenodd;fill:#faa4a5;fill-opacity:1" d="M22.098 44.277c3.015.11 6.039.145 9.058.11-1.492.074-3.004.11-4.531.11-1.547 0-3.055-.071-4.527-.22Zm0 0"/><path style="stroke:none;fill-rule:evenodd;fill:#f98f8f;fill-opacity:1" d="M13.04 43.078c.187.535.331 1.082.437 1.637a3.56 3.56 0 0 1-.438-1.637Zm0 0"/><path style="stroke:none;fill-rule:evenodd;fill:#fdd0cf;fill-opacity:1" d="M54.18 41.984c-.102.91-.192 1.82-.274 2.73-.125.294-.254.583-.383.876.2-1.207.418-2.406.657-3.606Zm0 0"/><path style="stroke:none;fill-rule:evenodd;fill:#f99495;fill-opacity:1" d="M37.375 43.188c-.04.898-.148 1.773-.328 2.62.05-.8.105-1.601.164-2.402a.367.367 0 0 1 .164-.218Zm0 0"/><path style="stroke:none;fill-rule:evenodd;fill:#fb9d9b;fill-opacity:1" d="M41.086 39.691a128.9 128.9 0 0 1-1.313 7.426c.063-1.406.301-2.8.711-4.148.067-1.067.211-2.125.438-3.168a.24.24 0 0 1 .164-.11Zm0 0"/><path style="stroke:none;fill-rule:evenodd;fill:#f97370;fill-opacity:1" d="M44.469 44.168a6.893 6.893 0 0 1-.438 2.73c.082-.918.227-1.832.438-2.73Zm0 0"/><path style="stroke:none;fill-rule:evenodd;fill:#fcafae;fill-opacity:1" d="M57.89 44.824a41.132 41.132 0 0 1-.765 3.824c.16-.98.29-1.964.383-2.949.07-.34.195-.629.383-.875Zm0 0"/><path style="stroke:none;fill-rule:evenodd;fill:#faa5a5;fill-opacity:1" d="M37.047 45.918a20.956 20.956 0 0 1-.438 3.71c.055-1.093.149-2.187.274-3.276a.968.968 0 0 1 .164-.434Zm0 0"/><use xlink:href="#cB" mask="url(#cC)"/><path style="stroke:none;fill-rule:evenodd;fill:#f96c68;fill-opacity:1" d="M43.922 47.117c-.02.805-.074 1.606-.164 2.403a.466.466 0 0 1-.274.328c.149-.914.293-1.825.438-2.73Zm0 0"/><path style="stroke:none;fill-rule:evenodd;fill:#f87a79;fill-opacity:1" d="M50.36 49.41c.445.336.808.735 1.093 1.203a4.279 4.279 0 0 1-1.094-1.203Zm0 0"/><use xlink:href="#cD" mask="url(#cE)"/><use xlink:href="#cF" mask="url(#cG)"/><use xlink:href="#cH" mask="url(#cI)"/><path style="stroke:none;fill-rule:evenodd;fill:#fbabaa;fill-opacity:1" d="M39.664 47.664a6.74 6.74 0 0 1-.434 2.621c-.02-.367 0-.73.055-1.094.137-.507.262-1.015.38-1.527Zm0 0"/><path style="stroke:none;fill-rule:evenodd;fill:#fde4e5;fill-opacity:1" d="M36.61 49.629a22.61 22.61 0 0 1-.329 2.402 568.706 568.706 0 0 1-15.273-.11h-.438a1.533 1.533 0 0 1-.656-.327c.395.074.797.129 1.2.164 5.019.054 10.042.074 15.062.054.02-.699.113-1.394.27-2.074a.259.259 0 0 1 .163-.11Zm0 0"/><path style="stroke:none;fill-rule:evenodd;fill:#f98d8c;fill-opacity:1" d="M43.484 50.066c-.054.664-.164 1.32-.328 1.965h-4.363c.082-.488.191-.96.328-1.418.012.438-.027.88-.11 1.309h4.036c.11-.652.254-1.27.437-1.856Zm0 0"/><path style="stroke:none;fill-rule:evenodd;fill:#faadae;fill-opacity:1" d="M21.008 51.922c5.09.105 10.18.14 15.273.11v.109c-4.945.02-9.89 0-14.84-.055a.968.968 0 0 1-.433-.164Zm0 0"/><path style="stroke:none;fill-rule:evenodd;fill:#fcbdbd;fill-opacity:1" d="M55.926 51.484a.771.771 0 0 1-.219.274 4.612 4.612 0 0 1-2.617.328.356.356 0 0 1-.219-.164c1.086.246 2.106.101 3.055-.438Zm0 0"/><path style="stroke:none;fill-rule:evenodd;fill:#f76264;fill-opacity:1" d="M20.57 51.922h.438c.12.086.265.14.433.164 4.95.055 9.895.074 14.84.055-5.015.129-10.039.144-15.058.054a1.157 1.157 0 0 1-.653-.273Zm0 0"/><use xlink:href="#cJ" mask="url(#cK)"/><use xlink:href="#cL" mask="url(#cM)"/><use xlink:href="#cN" mask="url(#cO)"/><use xlink:href="#cP" mask="url(#cQ)"/><use xlink:href="#cR" mask="url(#cS)"/><use xlink:href="#cT" mask="url(#cU)"/><use xlink:href="#cV" mask="url(#cW)"/><use xlink:href="#cX" mask="url(#cY)"/><use xlink:href="#cZ" mask="url(#da)"/><use xlink:href="#db" mask="url(#dc)"/><use xlink:href="#dd" mask="url(#de)"/><use xlink:href="#df" mask="url(#dg)"/><use xlink:href="#dh" mask="url(#di)"/><use xlink:href="#dj" mask="url(#dk)"/><use xlink:href="#dl" mask="url(#dm)"/><use xlink:href="#dn" mask="url(#do)"/><use xlink:href="#dp" mask="url(#dq)"/><use xlink:href="#dr" mask="url(#ds)"/><path style="stroke:none;fill-rule:evenodd;fill:#f63737;fill-opacity:1" d="M257.148 63.605h2.18v7.426h-2.18Zm0 0"/><use xlink:href="#dt" mask="url(#du)"/></svg>